<svg width="696" height="134" viewBox="0 0 696 134" fill="none" xmlns="http://www.w3.org/2000/svg">
<mask id="path-1-outside-1_3789_2819" maskUnits="userSpaceOnUse" x="0.677734" y="0.581848" width="695" height="133" fill="black">
<rect fill="white" x="0.677734" y="0.581848" width="695" height="133"/>
<path d="M3.60358 2.59304H75.1002L76.2059 3.69867V19.9144L75.1002 21.02H22.0306L20.9249 19.9144L19.8193 21.02L20.9249 22.1256V56.7683L19.8193 57.874L20.9249 58.9796L22.0306 57.874H75.1002L76.2059 58.9796V75.1953L75.1002 76.3009H22.0306L20.9249 75.1953L19.8193 76.3009L20.9249 77.4066V112.049L19.8193 113.155L20.9249 114.26L22.0306 113.155H75.1002L76.2059 114.26V130.476L75.1002 131.582H3.60358L2.49796 130.476V3.69867L3.60358 2.59304ZM77.3115 21.02H93.5272L94.6328 22.1256V56.7683L93.5272 57.874H77.3115L76.2059 56.7683V22.1256L77.3115 21.02ZM77.3115 76.3009H93.5272L94.6328 77.4066V112.049L93.5272 113.155H77.3115L76.2059 112.049V77.4066L77.3115 76.3009ZM123.451 2.59304H213.375L214.48 3.69867V19.9144L213.375 21.02H141.878L140.772 19.9144L139.667 21.02L140.772 22.1256V56.7683L139.667 57.874L140.772 58.9796L141.878 57.874H194.948L196.053 58.9796V75.1953L194.948 76.3009H141.878L140.772 75.1953L139.667 76.3009L140.772 77.4066V112.049L139.667 113.155L140.772 114.26L141.878 113.155H213.375L214.48 114.26V130.476L213.375 131.582H123.451L122.345 130.476V3.69867L123.451 2.59304ZM261.725 2.59304H314.795L315.9 3.69867V19.9144L314.795 21.02H261.725L260.62 19.9144V3.69867L261.725 2.59304ZM317.006 21.02H333.222L334.327 22.1256V38.3414L333.222 39.447H317.006L315.9 38.3414V22.1256L317.006 21.02ZM243.298 21.02H259.514L260.62 22.1256V112.049L259.514 113.155H243.298L242.193 112.049V22.1256L243.298 21.02ZM289.366 57.874H333.222L334.327 58.9796V112.049L333.222 113.155H317.006L315.9 112.049V77.4066L317.006 76.3009L315.9 75.1953L314.795 76.3009H289.366L288.26 75.1953V58.9796L289.366 57.874ZM261.725 113.155H314.795L315.9 114.26V130.476L314.795 131.582H261.725L260.62 130.476V114.26L261.725 113.155ZM372.359 2.59304H443.856L444.961 3.69867V19.9144L443.856 21.02H418.426L417.321 19.9144L416.215 21.02L417.321 22.1256V112.049L416.215 113.155L417.321 114.26L418.426 113.155H453.069L454.175 114.26V130.476L453.069 131.582H363.145L362.04 130.476V114.26L363.145 113.155H397.788L398.894 114.26L399.999 113.155L398.894 112.049V22.1256L399.999 21.02L398.894 19.9144L397.788 21.02H372.359L371.253 19.9144V3.69867L372.359 2.59304ZM556.701 2.59304H572.916L574.022 3.69867V130.476L572.916 131.582H556.701L555.595 130.476V77.4066L556.701 76.3009L555.595 75.1953L554.489 76.3009H538.274L537.168 75.1953V58.9796L538.274 57.874H554.489L555.595 58.9796L556.701 57.874L555.595 56.7683V3.69867L556.701 2.59304ZM482.993 2.59304H499.209L500.314 3.69867V19.9144L499.209 21.02L500.314 22.1256L501.42 21.02H517.635L518.741 22.1256V38.3414L517.635 39.447H501.42L500.314 38.3414L499.209 39.447L500.314 40.5526V130.476L499.209 131.582H482.993L481.887 130.476V3.69867L482.993 2.59304ZM519.847 39.447H536.062L537.168 40.5526V56.7683L536.062 57.874H519.847L518.741 56.7683V40.5526L519.847 39.447ZM621.267 2.59304H674.337L675.442 3.69867V19.9144L674.337 21.02H621.267L620.161 19.9144V3.69867L621.267 2.59304ZM676.548 21.02H692.764L693.869 22.1256V38.3414L692.764 39.447H676.548L675.442 38.3414V22.1256L676.548 21.02ZM602.84 21.02H619.056L620.161 22.1256V56.7683L619.056 57.874H602.84L601.734 56.7683V22.1256L602.84 21.02ZM621.267 57.874H674.337L675.442 58.9796V75.1953L674.337 76.3009H621.267L620.161 75.1953V58.9796L621.267 57.874ZM676.548 76.3009H692.764L693.869 77.4066V112.049L692.764 113.155H676.548L675.442 112.049V77.4066L676.548 76.3009ZM602.84 94.7279H619.056L620.161 95.8335V112.049L619.056 113.155H602.84L601.734 112.049V95.8335L602.84 94.7279ZM621.267 113.155H674.337L675.442 114.26V130.476L674.337 131.582H621.267L620.161 130.476V114.26L621.267 113.155Z"/>
</mask>
<path d="M3.60358 2.59304V0.824026H2.87083L2.3527 1.34216L3.60358 2.59304ZM75.1002 2.59304L76.3511 1.34216L75.833 0.824026H75.1002V2.59304ZM76.2059 3.69867H77.9749V2.96592L77.4567 2.44779L76.2059 3.69867ZM76.2059 19.9144L77.4567 21.1653L77.9749 20.6472V19.9144H76.2059ZM75.1002 21.02V22.789H75.833L76.3511 22.2709L75.1002 21.02ZM22.0306 21.02L20.7797 22.2709L21.2978 22.789H22.0306V21.02ZM20.9249 19.9144L22.1758 18.6635L20.9249 17.4126L19.6741 18.6635L20.9249 19.9144ZM19.8193 21.02L18.5684 19.7691L17.3176 21.02L18.5684 22.2709L19.8193 21.02ZM20.9249 22.1256H22.694V21.3929L22.1758 20.8747L20.9249 22.1256ZM20.9249 56.7683L22.1758 58.0192L22.694 57.5011V56.7683H20.9249ZM19.8193 57.874L18.5684 56.6231L17.3176 57.874L18.5684 59.1248L19.8193 57.874ZM20.9249 58.9796L19.6741 60.2305L20.9249 61.4813L22.1758 60.2305L20.9249 58.9796ZM22.0306 57.874V56.1049H21.2978L20.7797 56.6231L22.0306 57.874ZM75.1002 57.874L76.3511 56.6231L75.833 56.1049H75.1002V57.874ZM76.2059 58.9796H77.9749V58.2468L77.4567 57.7287L76.2059 58.9796ZM76.2059 75.1953L77.4567 76.4462L77.9749 75.9281V75.1953H76.2059ZM75.1002 76.3009V78.0699H75.833L76.3511 77.5518L75.1002 76.3009ZM22.0306 76.3009L20.7797 77.5518L21.2978 78.0699H22.0306V76.3009ZM20.9249 75.1953L22.1758 73.9444L20.9249 72.6935L19.6741 73.9444L20.9249 75.1953ZM19.8193 76.3009L18.5684 75.05L17.3176 76.3009L18.5684 77.5518L19.8193 76.3009ZM20.9249 77.4066H22.694V76.6738L22.1758 76.1557L20.9249 77.4066ZM20.9249 112.049L22.1758 113.3L22.694 112.782V112.049H20.9249ZM19.8193 113.155L18.5684 111.904L17.3176 113.155L18.5684 114.406L19.8193 113.155ZM20.9249 114.26L19.6741 115.511L20.9249 116.762L22.1758 115.511L20.9249 114.26ZM22.0306 113.155V111.386H21.2978L20.7797 111.904L22.0306 113.155ZM75.1002 113.155L76.3511 111.904L75.833 111.386H75.1002V113.155ZM76.2059 114.26H77.9749V113.528L77.4567 113.01L76.2059 114.26ZM76.2059 130.476L77.4567 131.727L77.9749 131.209V130.476H76.2059ZM75.1002 131.582V133.351H75.833L76.3511 132.833L75.1002 131.582ZM3.60358 131.582L2.3527 132.833L2.87083 133.351H3.60358V131.582ZM2.49796 130.476H0.72895V131.209L1.24708 131.727L2.49796 130.476ZM2.49796 3.69867L1.24708 2.44779L0.72895 2.96592V3.69867H2.49796ZM77.3115 21.02V19.251H76.5787L76.0606 19.7691L77.3115 21.02ZM93.5272 21.02L94.7781 19.7691L94.2599 19.251H93.5272V21.02ZM94.6328 22.1256H96.4018V21.3929L95.8837 20.8747L94.6328 22.1256ZM94.6328 56.7683L95.8837 58.0192L96.4018 57.5011V56.7683H94.6328ZM93.5272 57.874V59.643H94.2599L94.7781 59.1248L93.5272 57.874ZM77.3115 57.874L76.0606 59.1248L76.5787 59.643H77.3115V57.874ZM76.2059 56.7683H74.4368V57.5011L74.955 58.0192L76.2059 56.7683ZM76.2059 22.1256L74.955 20.8747L74.4368 21.3929V22.1256H76.2059ZM77.3115 76.3009V74.5319H76.5787L76.0606 75.05L77.3115 76.3009ZM93.5272 76.3009L94.7781 75.05L94.2599 74.5319H93.5272V76.3009ZM94.6328 77.4066H96.4018V76.6738L95.8837 76.1557L94.6328 77.4066ZM94.6328 112.049L95.8837 113.3L96.4018 112.782V112.049H94.6328ZM93.5272 113.155V114.924H94.2599L94.7781 114.406L93.5272 113.155ZM77.3115 113.155L76.0606 114.406L76.5787 114.924H77.3115V113.155ZM76.2059 112.049H74.4368V112.782L74.955 113.3L76.2059 112.049ZM76.2059 77.4066L74.955 76.1557L74.4368 76.6738V77.4066H76.2059ZM3.60358 2.59304V4.36205H75.1002V2.59304V0.824026H3.60358V2.59304ZM75.1002 2.59304L73.8493 3.84392L74.955 4.94954L76.2059 3.69867L77.4567 2.44779L76.3511 1.34216L75.1002 2.59304ZM76.2059 3.69867H74.4368V19.9144H76.2059H77.9749V3.69867H76.2059ZM76.2059 19.9144L74.955 18.6635L73.8494 19.7691L75.1002 21.02L76.3511 22.2709L77.4567 21.1653L76.2059 19.9144ZM75.1002 21.02V19.251H22.0306V21.02V22.789H75.1002V21.02ZM22.0306 21.02L23.2814 19.7691L22.1758 18.6635L20.9249 19.9144L19.6741 21.1653L20.7797 22.2709L22.0306 21.02ZM20.9249 19.9144L19.6741 18.6635L18.5684 19.7691L19.8193 21.02L21.0702 22.2709L22.1758 21.1653L20.9249 19.9144ZM19.8193 21.02L18.5684 22.2709L19.6741 23.3765L20.9249 22.1256L22.1758 20.8747L21.0702 19.7691L19.8193 21.02ZM20.9249 22.1256H19.1559V56.7683H20.9249H22.694V22.1256H20.9249ZM20.9249 56.7683L19.6741 55.5175L18.5684 56.6231L19.8193 57.874L21.0702 59.1248L22.1758 58.0192L20.9249 56.7683ZM19.8193 57.874L18.5684 59.1248L19.6741 60.2305L20.9249 58.9796L22.1758 57.7287L21.0702 56.6231L19.8193 57.874ZM20.9249 58.9796L22.1758 60.2305L23.2814 59.1248L22.0306 57.874L20.7797 56.6231L19.6741 57.7287L20.9249 58.9796ZM22.0306 57.874V59.643H75.1002V57.874V56.1049H22.0306V57.874ZM75.1002 57.874L73.8494 59.1248L74.955 60.2305L76.2059 58.9796L77.4567 57.7287L76.3511 56.6231L75.1002 57.874ZM76.2059 58.9796H74.4368V75.1953H76.2059H77.9749V58.9796H76.2059ZM76.2059 75.1953L74.955 73.9444L73.8493 75.05L75.1002 76.3009L76.3511 77.5518L77.4567 76.4462L76.2059 75.1953ZM75.1002 76.3009V74.5319H22.0306V76.3009V78.0699H75.1002V76.3009ZM22.0306 76.3009L23.2814 75.05L22.1758 73.9444L20.9249 75.1953L19.6741 76.4462L20.7797 77.5518L22.0306 76.3009ZM20.9249 75.1953L19.6741 73.9444L18.5684 75.05L19.8193 76.3009L21.0702 77.5518L22.1758 76.4462L20.9249 75.1953ZM19.8193 76.3009L18.5684 77.5518L19.6741 78.6574L20.9249 77.4066L22.1758 76.1557L21.0702 75.05L19.8193 76.3009ZM20.9249 77.4066H19.1559V112.049H20.9249H22.694V77.4066H20.9249ZM20.9249 112.049L19.6741 110.798L18.5684 111.904L19.8193 113.155L21.0702 114.406L22.1758 113.3L20.9249 112.049ZM19.8193 113.155L18.5684 114.406L19.6741 115.511L20.9249 114.26L22.1758 113.01L21.0702 111.904L19.8193 113.155ZM20.9249 114.26L22.1758 115.511L23.2814 114.406L22.0306 113.155L20.7797 111.904L19.6741 113.01L20.9249 114.26ZM22.0306 113.155V114.924H75.1002V113.155V111.386H22.0306V113.155ZM75.1002 113.155L73.8493 114.406L74.955 115.511L76.2059 114.26L77.4567 113.01L76.3511 111.904L75.1002 113.155ZM76.2059 114.26H74.4368V130.476H76.2059H77.9749V114.26H76.2059ZM76.2059 130.476L74.955 129.225L73.8493 130.331L75.1002 131.582L76.3511 132.833L77.4567 131.727L76.2059 130.476ZM75.1002 131.582V129.813H3.60358V131.582V133.351H75.1002V131.582ZM3.60358 131.582L4.85446 130.331L3.74885 129.225L2.49796 130.476L1.24708 131.727L2.3527 132.833L3.60358 131.582ZM2.49796 130.476H4.26698V3.69867H2.49796H0.72895V130.476H2.49796ZM2.49796 3.69867L3.74885 4.94954L4.85447 3.84392L3.60358 2.59304L2.3527 1.34216L1.24708 2.44779L2.49796 3.69867ZM77.3115 21.02V22.789H93.5272V21.02V19.251H77.3115V21.02ZM93.5272 21.02L92.2763 22.2709L93.382 23.3765L94.6328 22.1256L95.8837 20.8747L94.7781 19.7691L93.5272 21.02ZM94.6328 22.1256H92.8638V56.7683H94.6328H96.4018V22.1256H94.6328ZM94.6328 56.7683L93.382 55.5175L92.2763 56.6231L93.5272 57.874L94.7781 59.1248L95.8837 58.0192L94.6328 56.7683ZM93.5272 57.874V56.1049H77.3115V57.874V59.643H93.5272V57.874ZM77.3115 57.874L78.5624 56.6231L77.4567 55.5175L76.2059 56.7683L74.955 58.0192L76.0606 59.1248L77.3115 57.874ZM76.2059 56.7683H77.9749V22.1256H76.2059H74.4368V56.7683H76.2059ZM76.2059 22.1256L77.4567 23.3765L78.5624 22.2709L77.3115 21.02L76.0606 19.7691L74.955 20.8747L76.2059 22.1256ZM77.3115 76.3009V78.0699H93.5272V76.3009V74.5319H77.3115V76.3009ZM93.5272 76.3009L92.2763 77.5518L93.382 78.6574L94.6328 77.4066L95.8837 76.1557L94.7781 75.05L93.5272 76.3009ZM94.6328 77.4066H92.8638V112.049H94.6328H96.4018V77.4066H94.6328ZM94.6328 112.049L93.382 110.798L92.2763 111.904L93.5272 113.155L94.7781 114.406L95.8837 113.3L94.6328 112.049ZM93.5272 113.155V111.386H77.3115V113.155V114.924H93.5272V113.155ZM77.3115 113.155L78.5624 111.904L77.4567 110.798L76.2059 112.049L74.955 113.3L76.0606 114.406L77.3115 113.155ZM76.2059 112.049H77.9749V77.4066H76.2059H74.4368V112.049H76.2059ZM76.2059 77.4066L77.4567 78.6574L78.5624 77.5518L77.3115 76.3009L76.0606 75.05L74.955 76.1557L76.2059 77.4066ZM123.451 2.59304V0.824026H122.718L122.2 1.34216L123.451 2.59304ZM213.374 2.59304L214.625 1.34216L214.107 0.824026H213.374V2.59304ZM214.48 3.69867H216.249V2.96592L215.731 2.44778L214.48 3.69867ZM214.48 19.9144L215.731 21.1653L216.249 20.6472V19.9144H214.48ZM213.374 21.02V22.789H214.107L214.625 22.2709L213.374 21.02ZM141.878 21.02L140.627 22.2709L141.145 22.789H141.878V21.02ZM140.772 19.9144L142.023 18.6635L140.772 17.4126L139.521 18.6635L140.772 19.9144ZM139.667 21.02L138.416 19.7691L137.165 21.02L138.416 22.2709L139.667 21.02ZM140.772 22.1256H142.541V21.3929L142.023 20.8747L140.772 22.1256ZM140.772 56.7683L142.023 58.0192L142.541 57.5011V56.7683H140.772ZM139.667 57.874L138.416 56.6231L137.165 57.874L138.416 59.1248L139.667 57.874ZM140.772 58.9796L139.521 60.2305L140.772 61.4813L142.023 60.2305L140.772 58.9796ZM141.878 57.874V56.1049H141.145L140.627 56.6231L141.878 57.874ZM194.948 57.874L196.198 56.6231L195.68 56.1049H194.948V57.874ZM196.053 58.9796H197.822V58.2468L197.304 57.7287L196.053 58.9796ZM196.053 75.1953L197.304 76.4462L197.822 75.9281V75.1953H196.053ZM194.948 76.3009V78.0699H195.68L196.198 77.5518L194.948 76.3009ZM141.878 76.3009L140.627 77.5518L141.145 78.0699H141.878V76.3009ZM140.772 75.1953L142.023 73.9444L140.772 72.6935L139.521 73.9444L140.772 75.1953ZM139.667 76.3009L138.416 75.05L137.165 76.3009L138.416 77.5518L139.667 76.3009ZM140.772 77.4066H142.541V76.6738L142.023 76.1557L140.772 77.4066ZM140.772 112.049L142.023 113.3L142.541 112.782V112.049H140.772ZM139.667 113.155L138.416 111.904L137.165 113.155L138.416 114.406L139.667 113.155ZM140.772 114.26L139.521 115.511L140.772 116.762L142.023 115.511L140.772 114.26ZM141.878 113.155V111.386H141.145L140.627 111.904L141.878 113.155ZM213.374 113.155L214.625 111.904L214.107 111.386H213.374V113.155ZM214.48 114.26H216.249V113.528L215.731 113.01L214.48 114.26ZM214.48 130.476L215.731 131.727L216.249 131.209V130.476H214.48ZM213.374 131.582V133.351H214.107L214.625 132.833L213.374 131.582ZM123.451 131.582L122.2 132.833L122.718 133.351H123.451V131.582ZM122.345 130.476H120.576V131.209L121.094 131.727L122.345 130.476ZM122.345 3.69867L121.094 2.44779L120.576 2.96592V3.69867H122.345ZM123.451 2.59304V4.36205H213.374V2.59304V0.824026H123.451V2.59304ZM213.374 2.59304L212.124 3.84392L213.229 4.94955L214.48 3.69867L215.731 2.44778L214.625 1.34216L213.374 2.59304ZM214.48 3.69867H212.711V19.9144H214.48H216.249V3.69867H214.48ZM214.48 19.9144L213.229 18.6635L212.124 19.7691L213.374 21.02L214.625 22.2709L215.731 21.1653L214.48 19.9144ZM213.374 21.02V19.251H141.878V21.02V22.789H213.374V21.02ZM141.878 21.02L143.129 19.7691L142.023 18.6635L140.772 19.9144L139.521 21.1653L140.627 22.2709L141.878 21.02ZM140.772 19.9144L139.521 18.6635L138.416 19.7691L139.667 21.02L140.917 22.2709L142.023 21.1653L140.772 19.9144ZM139.667 21.02L138.416 22.2709L139.521 23.3765L140.772 22.1256L142.023 20.8747L140.917 19.7691L139.667 21.02ZM140.772 22.1256H139.003V56.7683H140.772H142.541V22.1256H140.772ZM140.772 56.7683L139.521 55.5175L138.416 56.6231L139.667 57.874L140.917 59.1248L142.023 58.0192L140.772 56.7683ZM139.667 57.874L138.416 59.1248L139.521 60.2305L140.772 58.9796L142.023 57.7287L140.917 56.6231L139.667 57.874ZM140.772 58.9796L142.023 60.2305L143.129 59.1248L141.878 57.874L140.627 56.6231L139.521 57.7287L140.772 58.9796ZM141.878 57.874V59.643H194.948V57.874V56.1049H141.878V57.874ZM194.948 57.874L193.697 59.1248L194.802 60.2305L196.053 58.9796L197.304 57.7287L196.198 56.6231L194.948 57.874ZM196.053 58.9796H194.284V75.1953H196.053H197.822V58.9796H196.053ZM196.053 75.1953L194.802 73.9444L193.697 75.05L194.948 76.3009L196.198 77.5518L197.304 76.4462L196.053 75.1953ZM194.948 76.3009V74.5319H141.878V76.3009V78.0699H194.948V76.3009ZM141.878 76.3009L143.129 75.05L142.023 73.9444L140.772 75.1953L139.521 76.4462L140.627 77.5518L141.878 76.3009ZM140.772 75.1953L139.521 73.9444L138.416 75.05L139.667 76.3009L140.917 77.5518L142.023 76.4462L140.772 75.1953ZM139.667 76.3009L138.416 77.5518L139.521 78.6574L140.772 77.4066L142.023 76.1557L140.917 75.05L139.667 76.3009ZM140.772 77.4066H139.003V112.049H140.772H142.541V77.4066H140.772ZM140.772 112.049L139.521 110.798L138.416 111.904L139.667 113.155L140.917 114.406L142.023 113.3L140.772 112.049ZM139.667 113.155L138.416 114.406L139.521 115.511L140.772 114.26L142.023 113.01L140.917 111.904L139.667 113.155ZM140.772 114.26L142.023 115.511L143.129 114.406L141.878 113.155L140.627 111.904L139.521 113.01L140.772 114.26ZM141.878 113.155V114.924H213.374V113.155V111.386H141.878V113.155ZM213.374 113.155L212.124 114.406L213.229 115.511L214.48 114.26L215.731 113.01L214.625 111.904L213.374 113.155ZM214.48 114.26H212.711V130.476H214.48H216.249V114.26H214.48ZM214.48 130.476L213.229 129.225L212.124 130.331L213.374 131.582L214.625 132.833L215.731 131.727L214.48 130.476ZM213.374 131.582V129.813H123.451V131.582V133.351H213.374V131.582ZM123.451 131.582L124.702 130.331L123.596 129.225L122.345 130.476L121.094 131.727L122.2 132.833L123.451 131.582ZM122.345 130.476H124.114V3.69867H122.345H120.576V130.476H122.345ZM122.345 3.69867L123.596 4.94954L124.702 3.84392L123.451 2.59304L122.2 1.34216L121.094 2.44779L122.345 3.69867ZM261.725 2.59304V0.824026H260.992L260.474 1.34216L261.725 2.59304ZM314.795 2.59304L316.046 1.34216L315.528 0.824026H314.795V2.59304ZM315.9 3.69867H317.669V2.96592L317.151 2.44779L315.9 3.69867ZM315.9 19.9144L317.151 21.1653L317.669 20.6472V19.9144H315.9ZM314.795 21.02V22.789H315.528L316.046 22.2709L314.795 21.02ZM261.725 21.02L260.474 22.2709L260.992 22.789H261.725V21.02ZM260.62 19.9144H258.851V20.6472L259.369 21.1653L260.62 19.9144ZM260.62 3.69867L259.369 2.44779L258.851 2.96592V3.69867H260.62ZM317.006 21.02V19.251H316.273L315.755 19.7691L317.006 21.02ZM333.222 21.02L334.473 19.7691L333.955 19.251H333.222V21.02ZM334.327 22.1256H336.096V21.3929L335.578 20.8747L334.327 22.1256ZM334.327 38.3414L335.578 39.5922L336.096 39.0741V38.3414H334.327ZM333.222 39.447V41.216H333.955L334.473 40.6979L333.222 39.447ZM317.006 39.447L315.755 40.6979L316.273 41.216H317.006V39.447ZM315.9 38.3414H314.131V39.0741L314.65 39.5922L315.9 38.3414ZM315.9 22.1256L314.65 20.8747L314.131 21.3929V22.1256H315.9ZM243.298 21.02V19.251H242.565L242.047 19.7691L243.298 21.02ZM259.514 21.02L260.765 19.7691L260.247 19.251H259.514V21.02ZM260.62 22.1256H262.389V21.3929L261.87 20.8747L260.62 22.1256ZM260.62 112.049L261.87 113.3L262.389 112.782V112.049H260.62ZM259.514 113.155V114.924H260.247L260.765 114.406L259.514 113.155ZM243.298 113.155L242.047 114.406L242.565 114.924H243.298V113.155ZM242.193 112.049H240.424V112.782L240.942 113.3L242.193 112.049ZM242.193 22.1256L240.942 20.8747L240.424 21.3929V22.1256H242.193ZM289.366 57.874V56.1049H288.633L288.115 56.6231L289.366 57.874ZM333.222 57.874L334.473 56.6231L333.955 56.1049H333.222V57.874ZM334.327 58.9796H336.096V58.2468L335.578 57.7287L334.327 58.9796ZM334.327 112.049L335.578 113.3L336.096 112.782V112.049H334.327ZM333.222 113.155V114.924H333.955L334.473 114.406L333.222 113.155ZM317.006 113.155L315.755 114.406L316.273 114.924H317.006V113.155ZM315.9 112.049H314.131V112.782L314.65 113.3L315.9 112.049ZM315.9 77.4066L314.65 76.1557L314.131 76.6738V77.4066H315.9ZM317.006 76.3009L318.257 77.5518L319.508 76.3009L318.257 75.05L317.006 76.3009ZM315.9 75.1953L317.151 73.9444L315.9 72.6936L314.65 73.9444L315.9 75.1953ZM314.795 76.3009V78.0699H315.528L316.046 77.5518L314.795 76.3009ZM289.366 76.3009L288.115 77.5518L288.633 78.0699H289.366V76.3009ZM288.26 75.1953H286.491V75.9281L287.009 76.4462L288.26 75.1953ZM288.26 58.9796L287.009 57.7287L286.491 58.2468V58.9796H288.26ZM261.725 113.155V111.386H260.992L260.474 111.904L261.725 113.155ZM314.795 113.155L316.046 111.904L315.528 111.386H314.795V113.155ZM315.9 114.26H317.669V113.528L317.151 113.01L315.9 114.26ZM315.9 130.476L317.151 131.727L317.669 131.209V130.476H315.9ZM314.795 131.582V133.351H315.528L316.046 132.833L314.795 131.582ZM261.725 131.582L260.474 132.833L260.992 133.351H261.725V131.582ZM260.62 130.476H258.851V131.209L259.369 131.727L260.62 130.476ZM260.62 114.26L259.369 113.01L258.851 113.528V114.26H260.62ZM261.725 2.59304V4.36205H314.795V2.59304V0.824026H261.725V2.59304ZM314.795 2.59304L313.544 3.84392L314.65 4.94954L315.9 3.69867L317.151 2.44779L316.046 1.34216L314.795 2.59304ZM315.9 3.69867H314.131V19.9144H315.9H317.669V3.69867H315.9ZM315.9 19.9144L314.65 18.6635L313.544 19.7691L314.795 21.02L316.046 22.2709L317.151 21.1653L315.9 19.9144ZM314.795 21.02V19.251H261.725V21.02V22.789H314.795V21.02ZM261.725 21.02L262.976 19.7691L261.87 18.6635L260.62 19.9144L259.369 21.1653L260.474 22.2709L261.725 21.02ZM260.62 19.9144H262.389V3.69867H260.62H258.851V19.9144H260.62ZM260.62 3.69867L261.87 4.94954L262.976 3.84392L261.725 2.59304L260.474 1.34216L259.369 2.44779L260.62 3.69867ZM317.006 21.02V22.789H333.222V21.02V19.251H317.006V21.02ZM333.222 21.02L331.971 22.2709L333.077 23.3765L334.327 22.1256L335.578 20.8747L334.473 19.7691L333.222 21.02ZM334.327 22.1256H332.558V38.3414H334.327H336.096V22.1256H334.327ZM334.327 38.3414L333.077 37.0905L331.971 38.1961L333.222 39.447L334.473 40.6979L335.578 39.5922L334.327 38.3414ZM333.222 39.447V37.678H317.006V39.447V41.216H333.222V39.447ZM317.006 39.447L318.257 38.1961L317.151 37.0905L315.9 38.3414L314.65 39.5922L315.755 40.6979L317.006 39.447ZM315.9 38.3414H317.669V22.1256H315.9H314.131V38.3414H315.9ZM315.9 22.1256L317.151 23.3765L318.257 22.2709L317.006 21.02L315.755 19.7691L314.65 20.8747L315.9 22.1256ZM243.298 21.02V22.789H259.514V21.02V19.251H243.298V21.02ZM259.514 21.02L258.263 22.2709L259.369 23.3765L260.62 22.1256L261.87 20.8747L260.765 19.7691L259.514 21.02ZM260.62 22.1256H258.851V112.049H260.62H262.389V22.1256H260.62ZM260.62 112.049L259.369 110.798L258.263 111.904L259.514 113.155L260.765 114.406L261.87 113.3L260.62 112.049ZM259.514 113.155V111.386H243.298V113.155V114.924H259.514V113.155ZM243.298 113.155L244.549 111.904L243.443 110.798L242.193 112.049L240.942 113.3L242.047 114.406L243.298 113.155ZM242.193 112.049H243.962V22.1256H242.193H240.424V112.049H242.193ZM242.193 22.1256L243.443 23.3765L244.549 22.2709L243.298 21.02L242.047 19.7691L240.942 20.8747L242.193 22.1256ZM289.366 57.874V59.643H333.222V57.874V56.1049H289.366V57.874ZM333.222 57.874L331.971 59.1248L333.077 60.2305L334.327 58.9796L335.578 57.7287L334.473 56.6231L333.222 57.874ZM334.327 58.9796H332.558V112.049H334.327H336.096V58.9796H334.327ZM334.327 112.049L333.077 110.798L331.971 111.904L333.222 113.155L334.473 114.406L335.578 113.3L334.327 112.049ZM333.222 113.155V111.386H317.006V113.155V114.924H333.222V113.155ZM317.006 113.155L318.257 111.904L317.151 110.798L315.9 112.049L314.65 113.3L315.755 114.406L317.006 113.155ZM315.9 112.049H317.669V77.4066H315.9H314.131V112.049H315.9ZM315.9 77.4066L317.151 78.6574L318.257 77.5518L317.006 76.3009L315.755 75.05L314.65 76.1557L315.9 77.4066ZM317.006 76.3009L318.257 75.05L317.151 73.9444L315.9 75.1953L314.65 76.4462L315.755 77.5518L317.006 76.3009ZM315.9 75.1953L314.65 73.9444L313.544 75.05L314.795 76.3009L316.046 77.5518L317.151 76.4462L315.9 75.1953ZM314.795 76.3009V74.5319H289.366V76.3009V78.0699H314.795V76.3009ZM289.366 76.3009L290.616 75.05L289.511 73.9444L288.26 75.1953L287.009 76.4462L288.115 77.5518L289.366 76.3009ZM288.26 75.1953H290.029V58.9796H288.26H286.491V75.1953H288.26ZM288.26 58.9796L289.511 60.2305L290.616 59.1248L289.366 57.874L288.115 56.6231L287.009 57.7287L288.26 58.9796ZM261.725 113.155V114.924H314.795V113.155V111.386H261.725V113.155ZM314.795 113.155L313.544 114.406L314.65 115.511L315.9 114.26L317.151 113.01L316.046 111.904L314.795 113.155ZM315.9 114.26H314.131V130.476H315.9H317.669V114.26H315.9ZM315.9 130.476L314.65 129.225L313.544 130.331L314.795 131.582L316.046 132.833L317.151 131.727L315.9 130.476ZM314.795 131.582V129.813H261.725V131.582V133.351H314.795V131.582ZM261.725 131.582L262.976 130.331L261.87 129.225L260.62 130.476L259.369 131.727L260.474 132.833L261.725 131.582ZM260.62 130.476H262.389V114.26H260.62H258.851V130.476H260.62ZM260.62 114.26L261.87 115.511L262.976 114.406L261.725 113.155L260.474 111.904L259.369 113.01L260.62 114.26ZM372.359 2.59304V0.824026H371.626L371.108 1.34216L372.359 2.59304ZM443.856 2.59304L445.107 1.34216L444.588 0.824026H443.856V2.59304ZM444.961 3.69867H446.73V2.96592L446.212 2.44779L444.961 3.69867ZM444.961 19.9144L446.212 21.1653L446.73 20.6471V19.9144H444.961ZM443.856 21.02V22.789H444.588L445.107 22.2709L443.856 21.02ZM418.426 21.02L417.176 22.2709L417.694 22.789H418.426V21.02ZM417.321 19.9144L418.572 18.6635L417.321 17.4126L416.07 18.6635L417.321 19.9144ZM416.215 21.02L414.964 19.7691L413.713 21.02L414.964 22.2709L416.215 21.02ZM417.321 22.1256H419.09V21.3929L418.572 20.8747L417.321 22.1256ZM417.321 112.049L418.572 113.3L419.09 112.782V112.049H417.321ZM416.215 113.155L414.964 111.904L413.713 113.155L414.964 114.406L416.215 113.155ZM417.321 114.26L416.07 115.511L417.321 116.762L418.572 115.511L417.321 114.26ZM418.426 113.155V111.386H417.694L417.176 111.904L418.426 113.155ZM453.069 113.155L454.32 111.904L453.802 111.386H453.069V113.155ZM454.175 114.26H455.944V113.528L455.426 113.01L454.175 114.26ZM454.175 130.476L455.426 131.727L455.944 131.209V130.476H454.175ZM453.069 131.582V133.351H453.802L454.32 132.833L453.069 131.582ZM363.145 131.582L361.895 132.833L362.413 133.351H363.145V131.582ZM362.04 130.476H360.271V131.209L360.789 131.727L362.04 130.476ZM362.04 114.26L360.789 113.01L360.271 113.528V114.26H362.04ZM363.145 113.155V111.386H362.413L361.895 111.904L363.145 113.155ZM397.788 113.155L399.039 111.904L398.521 111.386H397.788V113.155ZM398.894 114.26L397.643 115.511L398.894 116.762L400.145 115.511L398.894 114.26ZM399.999 113.155L401.25 114.406L402.501 113.155L401.25 111.904L399.999 113.155ZM398.894 112.049H397.125V112.782L397.643 113.3L398.894 112.049ZM398.894 22.1256L397.643 20.8747L397.125 21.3929V22.1256H398.894ZM399.999 21.02L401.25 22.2709L402.501 21.02L401.25 19.7691L399.999 21.02ZM398.894 19.9144L400.145 18.6635L398.894 17.4126L397.643 18.6635L398.894 19.9144ZM397.788 21.02V22.789H398.521L399.039 22.2709L397.788 21.02ZM372.359 21.02L371.108 22.2709L371.626 22.789H372.359V21.02ZM371.253 19.9144H369.484V20.6472L370.002 21.1653L371.253 19.9144ZM371.253 3.69867L370.002 2.44779L369.484 2.96592V3.69867H371.253ZM372.359 2.59304V4.36205H443.856V2.59304V0.824026H372.359V2.59304ZM443.856 2.59304L442.605 3.84391L443.71 4.94954L444.961 3.69867L446.212 2.44779L445.107 1.34216L443.856 2.59304ZM444.961 3.69867H443.192V19.9144H444.961H446.73V3.69867H444.961ZM444.961 19.9144L443.71 18.6635L442.605 19.7691L443.856 21.02L445.107 22.2709L446.212 21.1653L444.961 19.9144ZM443.856 21.02V19.251H418.426V21.02V22.789H443.856V21.02ZM418.426 21.02L419.677 19.7691L418.572 18.6635L417.321 19.9144L416.07 21.1653L417.176 22.2709L418.426 21.02ZM417.321 19.9144L416.07 18.6635L414.964 19.7691L416.215 21.02L417.466 22.2709L418.572 21.1653L417.321 19.9144ZM416.215 21.02L414.964 22.2709L416.07 23.3765L417.321 22.1256L418.572 20.8747L417.466 19.7691L416.215 21.02ZM417.321 22.1256H415.552V112.049H417.321H419.09V22.1256H417.321ZM417.321 112.049L416.07 110.798L414.964 111.904L416.215 113.155L417.466 114.406L418.572 113.3L417.321 112.049ZM416.215 113.155L414.964 114.406L416.07 115.511L417.321 114.26L418.572 113.01L417.466 111.904L416.215 113.155ZM417.321 114.26L418.572 115.511L419.677 114.406L418.426 113.155L417.176 111.904L416.07 113.01L417.321 114.26ZM418.426 113.155V114.924H453.069V113.155V111.386H418.426V113.155ZM453.069 113.155L451.818 114.406L452.924 115.511L454.175 114.26L455.426 113.01L454.32 111.904L453.069 113.155ZM454.175 114.26H452.406V130.476H454.175H455.944V114.26H454.175ZM454.175 130.476L452.924 129.225L451.818 130.331L453.069 131.582L454.32 132.833L455.426 131.727L454.175 130.476ZM453.069 131.582V129.813H363.145V131.582V133.351H453.069V131.582ZM363.145 131.582L364.396 130.331L363.291 129.225L362.04 130.476L360.789 131.727L361.895 132.833L363.145 131.582ZM362.04 130.476H363.809V114.26H362.04H360.271V130.476H362.04ZM362.04 114.26L363.291 115.511L364.396 114.406L363.145 113.155L361.895 111.904L360.789 113.01L362.04 114.26ZM363.145 113.155V114.924H397.788V113.155V111.386H363.145V113.155ZM397.788 113.155L396.537 114.406L397.643 115.511L398.894 114.26L400.145 113.01L399.039 111.904L397.788 113.155ZM398.894 114.26L400.145 115.511L401.25 114.406L399.999 113.155L398.749 111.904L397.643 113.01L398.894 114.26ZM399.999 113.155L401.25 111.904L400.145 110.798L398.894 112.049L397.643 113.3L398.749 114.406L399.999 113.155ZM398.894 112.049H400.663V22.1256H398.894H397.125V112.049H398.894ZM398.894 22.1256L400.145 23.3765L401.25 22.2709L399.999 21.02L398.749 19.7691L397.643 20.8747L398.894 22.1256ZM399.999 21.02L401.25 19.7691L400.145 18.6635L398.894 19.9144L397.643 21.1653L398.749 22.2709L399.999 21.02ZM398.894 19.9144L397.643 18.6635L396.537 19.7691L397.788 21.02L399.039 22.2709L400.145 21.1653L398.894 19.9144ZM397.788 21.02V19.251H372.359V21.02V22.789H397.788V21.02ZM372.359 21.02L373.61 19.7691L372.504 18.6635L371.253 19.9144L370.002 21.1653L371.108 22.2709L372.359 21.02ZM371.253 19.9144H373.022V3.69867H371.253H369.484V19.9144H371.253ZM371.253 3.69867L372.504 4.94954L373.61 3.84392L372.359 2.59304L371.108 1.34216L370.002 2.44779L371.253 3.69867ZM556.701 2.59304V0.824026H555.968L555.45 1.34216L556.701 2.59304ZM572.916 2.59304L574.167 1.34216L573.649 0.824026H572.916V2.59304ZM574.022 3.69867H575.791V2.96592L575.273 2.44778L574.022 3.69867ZM574.022 130.476L575.273 131.727L575.791 131.209V130.476H574.022ZM572.916 131.582V133.351H573.649L574.167 132.833L572.916 131.582ZM556.701 131.582L555.45 132.833L555.968 133.351H556.701V131.582ZM555.595 130.476H553.826V131.209L554.344 131.727L555.595 130.476ZM555.595 77.4066L554.344 76.1557L553.826 76.6738V77.4066H555.595ZM556.701 76.3009L557.952 77.5518L559.202 76.3009L557.952 75.05L556.701 76.3009ZM555.595 75.1953L556.846 73.9444L555.595 72.6936L554.344 73.9444L555.595 75.1953ZM554.489 76.3009V78.0699H555.222L555.74 77.5518L554.489 76.3009ZM538.274 76.3009L537.023 77.5518L537.541 78.0699H538.274V76.3009ZM537.168 75.1953H535.399V75.9281L535.917 76.4462L537.168 75.1953ZM537.168 58.9796L535.917 57.7287L535.399 58.2468V58.9796H537.168ZM538.274 57.874V56.1049H537.541L537.023 56.6231L538.274 57.874ZM554.489 57.874L555.74 56.6231L555.222 56.1049H554.489V57.874ZM555.595 58.9796L554.344 60.2305L555.595 61.4813L556.846 60.2305L555.595 58.9796ZM556.701 57.874L557.952 59.1248L559.202 57.874L557.952 56.6231L556.701 57.874ZM555.595 56.7683H553.826V57.5011L554.344 58.0192L555.595 56.7683ZM555.595 3.69867L554.344 2.44779L553.826 2.96592V3.69867H555.595ZM482.993 2.59304V0.824026H482.26L481.742 1.34216L482.993 2.59304ZM499.208 2.59304L500.459 1.34216L499.941 0.824026H499.208V2.59304ZM500.314 3.69867H502.083V2.96592L501.565 2.44779L500.314 3.69867ZM500.314 19.9144L501.565 21.1653L502.083 20.6472V19.9144H500.314ZM499.208 21.02L497.958 19.7691L496.707 21.02L497.958 22.2709L499.208 21.02ZM500.314 22.1256L499.063 23.3765L500.314 24.6274L501.565 23.3765L500.314 22.1256ZM501.42 21.02V19.251H500.687L500.169 19.7691L501.42 21.02ZM517.635 21.02L518.886 19.7691L518.368 19.251H517.635V21.02ZM518.741 22.1256H520.51V21.3929L519.992 20.8747L518.741 22.1256ZM518.741 38.3414L519.992 39.5922L520.51 39.0741V38.3414H518.741ZM517.635 39.447V41.216H518.368L518.886 40.6979L517.635 39.447ZM501.42 39.447L500.169 40.6979L500.687 41.216H501.42V39.447ZM500.314 38.3414L501.565 37.0905L500.314 35.8396L499.063 37.0905L500.314 38.3414ZM499.208 39.447L497.958 38.1961L496.707 39.447L497.958 40.6979L499.208 39.447ZM500.314 40.5526H502.083V39.8199L501.565 39.3017L500.314 40.5526ZM500.314 130.476L501.565 131.727L502.083 131.209V130.476H500.314ZM499.208 131.582V133.351H499.941L500.459 132.833L499.208 131.582ZM482.993 131.582L481.742 132.833L482.26 133.351H482.993V131.582ZM481.887 130.476H480.118V131.209L480.636 131.727L481.887 130.476ZM481.887 3.69867L480.636 2.44779L480.118 2.96592V3.69867H481.887ZM519.847 39.447V37.678H519.114L518.596 38.1961L519.847 39.447ZM536.062 39.447L537.313 38.1961L536.795 37.678H536.062V39.447ZM537.168 40.5526H538.937V39.8199L538.419 39.3017L537.168 40.5526ZM537.168 56.7683L538.419 58.0192L538.937 57.5011V56.7683H537.168ZM536.062 57.874V59.643H536.795L537.313 59.1248L536.062 57.874ZM519.847 57.874L518.596 59.1248L519.114 59.643H519.847V57.874ZM518.741 56.7683H516.972V57.5011L517.49 58.0192L518.741 56.7683ZM518.741 40.5526L517.49 39.3017L516.972 39.8199V40.5526H518.741ZM556.701 2.59304V4.36205H572.916V2.59304V0.824026H556.701V2.59304ZM572.916 2.59304L571.666 3.84392L572.771 4.94955L574.022 3.69867L575.273 2.44778L574.167 1.34216L572.916 2.59304ZM574.022 3.69867H572.253V130.476H574.022H575.791V3.69867H574.022ZM574.022 130.476L572.771 129.225L571.666 130.331L572.916 131.582L574.167 132.833L575.273 131.727L574.022 130.476ZM572.916 131.582V129.813H556.701V131.582V133.351H572.916V131.582ZM556.701 131.582L557.952 130.331L556.846 129.225L555.595 130.476L554.344 131.727L555.45 132.833L556.701 131.582ZM555.595 130.476H557.364V77.4066H555.595H553.826V130.476H555.595ZM555.595 77.4066L556.846 78.6574L557.952 77.5518L556.701 76.3009L555.45 75.05L554.344 76.1557L555.595 77.4066ZM556.701 76.3009L557.952 75.05L556.846 73.9444L555.595 75.1953L554.344 76.4462L555.45 77.5518L556.701 76.3009ZM555.595 75.1953L554.344 73.9444L553.239 75.05L554.489 76.3009L555.74 77.5518L556.846 76.4462L555.595 75.1953ZM554.489 76.3009V74.5319H538.274V76.3009V78.0699H554.489V76.3009ZM538.274 76.3009L539.525 75.0501L538.419 73.9444L537.168 75.1953L535.917 76.4462L537.023 77.5518L538.274 76.3009ZM537.168 75.1953H538.937V58.9796H537.168H535.399V75.1953H537.168ZM537.168 58.9796L538.419 60.2305L539.525 59.1248L538.274 57.874L537.023 56.6231L535.917 57.7287L537.168 58.9796ZM538.274 57.874V59.643H554.489V57.874V56.1049H538.274V57.874ZM554.489 57.874L553.239 59.1248L554.344 60.2305L555.595 58.9796L556.846 57.7287L555.74 56.6231L554.489 57.874ZM555.595 58.9796L556.846 60.2305L557.952 59.1248L556.701 57.874L555.45 56.6231L554.344 57.7287L555.595 58.9796ZM556.701 57.874L557.952 56.6231L556.846 55.5175L555.595 56.7683L554.344 58.0192L555.45 59.1248L556.701 57.874ZM555.595 56.7683H557.364V3.69867H555.595H553.826V56.7683H555.595ZM555.595 3.69867L556.846 4.94954L557.952 3.84392L556.701 2.59304L555.45 1.34216L554.344 2.44779L555.595 3.69867ZM482.993 2.59304V4.36205H499.208V2.59304V0.824026H482.993V2.59304ZM499.208 2.59304L497.958 3.84392L499.063 4.94954L500.314 3.69867L501.565 2.44779L500.459 1.34216L499.208 2.59304ZM500.314 3.69867H498.545V19.9144H500.314H502.083V3.69867H500.314ZM500.314 19.9144L499.063 18.6635L497.958 19.7691L499.208 21.02L500.459 22.2709L501.565 21.1653L500.314 19.9144ZM499.208 21.02L497.958 22.2709L499.063 23.3765L500.314 22.1256L501.565 20.8747L500.459 19.7691L499.208 21.02ZM500.314 22.1256L501.565 23.3765L502.671 22.2709L501.42 21.02L500.169 19.7691L499.063 20.8747L500.314 22.1256ZM501.42 21.02V22.789H517.635V21.02V19.251H501.42V21.02ZM517.635 21.02L516.385 22.2709L517.49 23.3765L518.741 22.1256L519.992 20.8747L518.886 19.7691L517.635 21.02ZM518.741 22.1256H516.972V38.3414H518.741H520.51V22.1256H518.741ZM518.741 38.3414L517.49 37.0905L516.385 38.1961L517.635 39.447L518.886 40.6979L519.992 39.5922L518.741 38.3414ZM517.635 39.447V37.678H501.42V39.447V41.216H517.635V39.447ZM501.42 39.447L502.671 38.1961L501.565 37.0905L500.314 38.3414L499.063 39.5922L500.169 40.6979L501.42 39.447ZM500.314 38.3414L499.063 37.0905L497.958 38.1961L499.208 39.447L500.459 40.6979L501.565 39.5922L500.314 38.3414ZM499.208 39.447L497.958 40.6979L499.063 41.8035L500.314 40.5526L501.565 39.3017L500.459 38.1961L499.208 39.447ZM500.314 40.5526H498.545V130.476H500.314H502.083V40.5526H500.314ZM500.314 130.476L499.063 129.225L497.958 130.331L499.208 131.582L500.459 132.833L501.565 131.727L500.314 130.476ZM499.208 131.582V129.813H482.993V131.582V133.351H499.208V131.582ZM482.993 131.582L484.244 130.331L483.138 129.225L481.887 130.476L480.636 131.727L481.742 132.833L482.993 131.582ZM481.887 130.476H483.656V3.69867H481.887H480.118V130.476H481.887ZM481.887 3.69867L483.138 4.94954L484.244 3.84392L482.993 2.59304L481.742 1.34216L480.636 2.44779L481.887 3.69867ZM519.847 39.447V41.216H536.062V39.447V37.678H519.847V39.447ZM536.062 39.447L534.812 40.6979L535.917 41.8035L537.168 40.5526L538.419 39.3017L537.313 38.1961L536.062 39.447ZM537.168 40.5526H535.399V56.7683H537.168H538.937V40.5526H537.168ZM537.168 56.7683L535.917 55.5175L534.812 56.6231L536.062 57.874L537.313 59.1248L538.419 58.0192L537.168 56.7683ZM536.062 57.874V56.1049H519.847V57.874V59.643H536.062V57.874ZM519.847 57.874L521.098 56.6231L519.992 55.5175L518.741 56.7683L517.49 58.0192L518.596 59.1248L519.847 57.874ZM518.741 56.7683H520.51V40.5526H518.741H516.972V56.7683H518.741ZM518.741 40.5526L519.992 41.8035L521.098 40.6979L519.847 39.447L518.596 38.1961L517.49 39.3017L518.741 40.5526ZM621.267 2.59304V0.824026H620.534L620.016 1.34216L621.267 2.59304ZM674.337 2.59304L675.588 1.34216L675.07 0.824026H674.337V2.59304ZM675.442 3.69867H677.211V2.96592L676.693 2.44779L675.442 3.69867ZM675.442 19.9144L676.693 21.1653L677.211 20.6472V19.9144H675.442ZM674.337 21.02V22.789H675.07L675.588 22.2709L674.337 21.02ZM621.267 21.02L620.016 22.2709L620.534 22.789H621.267V21.02ZM620.161 19.9144H618.392V20.6472L618.911 21.1653L620.161 19.9144ZM620.161 3.69867L618.911 2.44779L618.392 2.96592V3.69867H620.161ZM676.548 21.02V19.251H675.815L675.297 19.7691L676.548 21.02ZM692.764 21.02L694.015 19.7691L693.496 19.251H692.764V21.02ZM693.869 22.1256H695.638V21.3929L695.12 20.8747L693.869 22.1256ZM693.869 38.3414L695.12 39.5922L695.638 39.0741V38.3414H693.869ZM692.764 39.447V41.216H693.496L694.015 40.6979L692.764 39.447ZM676.548 39.447L675.297 40.6979L675.815 41.216H676.548V39.447ZM675.442 38.3414H673.673V39.0741L674.191 39.5922L675.442 38.3414ZM675.442 22.1256L674.191 20.8747L673.673 21.3929V22.1256H675.442ZM602.84 21.02V19.251H602.107L601.589 19.7691L602.84 21.02ZM619.056 21.02L620.307 19.7691L619.789 19.251H619.056V21.02ZM620.161 22.1256H621.93V21.3929L621.412 20.8747L620.161 22.1256ZM620.161 56.7683L621.412 58.0192L621.93 57.5011V56.7683H620.161ZM619.056 57.874V59.643H619.789L620.307 59.1248L619.056 57.874ZM602.84 57.874L601.589 59.1248L602.107 59.643H602.84V57.874ZM601.734 56.7683H599.965V57.5011L600.484 58.0192L601.734 56.7683ZM601.734 22.1256L600.484 20.8747L599.965 21.3929V22.1256H601.734ZM621.267 57.874V56.1049H620.534L620.016 56.6231L621.267 57.874ZM674.337 57.874L675.588 56.6231L675.07 56.1049H674.337V57.874ZM675.442 58.9796H677.211V58.2468L676.693 57.7287L675.442 58.9796ZM675.442 75.1953L676.693 76.4462L677.211 75.9281V75.1953H675.442ZM674.337 76.3009V78.0699H675.07L675.588 77.5518L674.337 76.3009ZM621.267 76.3009L620.016 77.5518L620.534 78.0699H621.267V76.3009ZM620.161 75.1953H618.392V75.9281L618.911 76.4462L620.161 75.1953ZM620.161 58.9796L618.911 57.7287L618.392 58.2468V58.9796H620.161ZM676.548 76.3009V74.5319H675.815L675.297 75.05L676.548 76.3009ZM692.764 76.3009L694.015 75.05L693.496 74.5319H692.764V76.3009ZM693.869 77.4066H695.638V76.6738L695.12 76.1557L693.869 77.4066ZM693.869 112.049L695.12 113.3L695.638 112.782V112.049H693.869ZM692.764 113.155V114.924H693.496L694.015 114.406L692.764 113.155ZM676.548 113.155L675.297 114.406L675.815 114.924H676.548V113.155ZM675.442 112.049H673.673V112.782L674.191 113.3L675.442 112.049ZM675.442 77.4066L674.191 76.1557L673.673 76.6738V77.4066H675.442ZM602.84 94.7279V92.9589H602.107L601.589 93.477L602.84 94.7279ZM619.056 94.7279L620.307 93.477L619.789 92.9589H619.056V94.7279ZM620.161 95.8335H621.93V95.1008L621.412 94.5826L620.161 95.8335ZM620.161 112.049L621.412 113.3L621.93 112.782V112.049H620.161ZM619.056 113.155V114.924H619.789L620.307 114.406L619.056 113.155ZM602.84 113.155L601.589 114.406L602.107 114.924H602.84V113.155ZM601.734 112.049H599.965V112.782L600.484 113.3L601.734 112.049ZM601.734 95.8335L600.484 94.5826L599.965 95.1008V95.8335H601.734ZM621.267 113.155V111.386H620.534L620.016 111.904L621.267 113.155ZM674.337 113.155L675.588 111.904L675.07 111.386H674.337V113.155ZM675.442 114.26H677.211V113.528L676.693 113.01L675.442 114.26ZM675.442 130.476L676.693 131.727L677.211 131.209V130.476H675.442ZM674.337 131.582V133.351H675.07L675.588 132.833L674.337 131.582ZM621.267 131.582L620.016 132.833L620.534 133.351H621.267V131.582ZM620.161 130.476H618.392V131.209L618.911 131.727L620.161 130.476ZM620.161 114.26L618.911 113.01L618.392 113.528V114.26H620.161ZM621.267 2.59304V4.36205H674.337V2.59304V0.824026H621.267V2.59304ZM674.337 2.59304L673.086 3.84392L674.191 4.94954L675.442 3.69867L676.693 2.44779L675.588 1.34216L674.337 2.59304ZM675.442 3.69867H673.673V19.9144H675.442H677.211V3.69867H675.442ZM675.442 19.9144L674.191 18.6635L673.086 19.7691L674.337 21.02L675.588 22.2709L676.693 21.1653L675.442 19.9144ZM674.337 21.02V19.251H621.267V21.02V22.789H674.337V21.02ZM621.267 21.02L622.518 19.7691L621.412 18.6635L620.161 19.9144L618.911 21.1653L620.016 22.2709L621.267 21.02ZM620.161 19.9144H621.93V3.69867H620.161H618.392V19.9144H620.161ZM620.161 3.69867L621.412 4.94954L622.518 3.84392L621.267 2.59304L620.016 1.34216L618.911 2.44779L620.161 3.69867ZM676.548 21.02V22.789H692.764V21.02V19.251H676.548V21.02ZM692.764 21.02L691.513 22.2709L692.618 23.3765L693.869 22.1256L695.12 20.8747L694.015 19.7691L692.764 21.02ZM693.869 22.1256H692.1V38.3414H693.869H695.638V22.1256H693.869ZM693.869 38.3414L692.618 37.0905L691.513 38.1961L692.764 39.447L694.015 40.6979L695.12 39.5922L693.869 38.3414ZM692.764 39.447V37.678H676.548V39.447V41.216H692.764V39.447ZM676.548 39.447L677.799 38.1961L676.693 37.0905L675.442 38.3414L674.191 39.5922L675.297 40.6979L676.548 39.447ZM675.442 38.3414H677.211V22.1256H675.442H673.673V38.3414H675.442ZM675.442 22.1256L676.693 23.3765L677.799 22.2709L676.548 21.02L675.297 19.7691L674.191 20.8747L675.442 22.1256ZM602.84 21.02V22.789H619.056V21.02V19.251H602.84V21.02ZM619.056 21.02L617.805 22.2709L618.911 23.3765L620.161 22.1256L621.412 20.8747L620.307 19.7691L619.056 21.02ZM620.161 22.1256H618.392V56.7683H620.161H621.93V22.1256H620.161ZM620.161 56.7683L618.911 55.5175L617.805 56.6231L619.056 57.874L620.307 59.1248L621.412 58.0192L620.161 56.7683ZM619.056 57.874V56.1049H602.84V57.874V59.643H619.056V57.874ZM602.84 57.874L604.091 56.6231L602.985 55.5175L601.734 56.7683L600.484 58.0192L601.589 59.1248L602.84 57.874ZM601.734 56.7683H603.503V22.1256H601.734H599.965V56.7683H601.734ZM601.734 22.1256L602.985 23.3765L604.091 22.2709L602.84 21.02L601.589 19.7691L600.484 20.8747L601.734 22.1256ZM621.267 57.874V59.643H674.337V57.874V56.1049H621.267V57.874ZM674.337 57.874L673.086 59.1248L674.191 60.2305L675.442 58.9796L676.693 57.7287L675.588 56.6231L674.337 57.874ZM675.442 58.9796H673.673V75.1953H675.442H677.211V58.9796H675.442ZM675.442 75.1953L674.191 73.9444L673.086 75.05L674.337 76.3009L675.588 77.5518L676.693 76.4462L675.442 75.1953ZM674.337 76.3009V74.5319H621.267V76.3009V78.0699H674.337V76.3009ZM621.267 76.3009L622.518 75.05L621.412 73.9444L620.161 75.1953L618.911 76.4462L620.016 77.5518L621.267 76.3009ZM620.161 75.1953H621.93V58.9796H620.161H618.392V75.1953H620.161ZM620.161 58.9796L621.412 60.2305L622.518 59.1248L621.267 57.874L620.016 56.6231L618.911 57.7287L620.161 58.9796ZM676.548 76.3009V78.0699H692.764V76.3009V74.5319H676.548V76.3009ZM692.764 76.3009L691.513 77.5518L692.618 78.6574L693.869 77.4066L695.12 76.1557L694.015 75.05L692.764 76.3009ZM693.869 77.4066H692.1V112.049H693.869H695.638V77.4066H693.869ZM693.869 112.049L692.618 110.798L691.513 111.904L692.764 113.155L694.015 114.406L695.12 113.3L693.869 112.049ZM692.764 113.155V111.386H676.548V113.155V114.924H692.764V113.155ZM676.548 113.155L677.799 111.904L676.693 110.798L675.442 112.049L674.191 113.3L675.297 114.406L676.548 113.155ZM675.442 112.049H677.211V77.4066H675.442H673.673V112.049H675.442ZM675.442 77.4066L676.693 78.6574L677.799 77.5518L676.548 76.3009L675.297 75.05L674.191 76.1557L675.442 77.4066ZM602.84 94.7279V96.4969H619.056V94.7279V92.9589H602.84V94.7279ZM619.056 94.7279L617.805 95.9788L618.911 97.0844L620.161 95.8335L621.412 94.5826L620.307 93.477L619.056 94.7279ZM620.161 95.8335H618.392V112.049H620.161H621.93V95.8335H620.161ZM620.161 112.049L618.911 110.798L617.805 111.904L619.056 113.155L620.307 114.406L621.412 113.3L620.161 112.049ZM619.056 113.155V111.386H602.84V113.155V114.924H619.056V113.155ZM602.84 113.155L604.091 111.904L602.985 110.798L601.734 112.049L600.484 113.3L601.589 114.406L602.84 113.155ZM601.734 112.049H603.503V95.8335H601.734H599.965V112.049H601.734ZM601.734 95.8335L602.985 97.0844L604.091 95.9788L602.84 94.7279L601.589 93.477L600.484 94.5826L601.734 95.8335ZM621.267 113.155V114.924H674.337V113.155V111.386H621.267V113.155ZM674.337 113.155L673.086 114.406L674.191 115.511L675.442 114.26L676.693 113.01L675.588 111.904L674.337 113.155ZM675.442 114.26H673.673V130.476H675.442H677.211V114.26H675.442ZM675.442 130.476L674.191 129.225L673.086 130.331L674.337 131.582L675.588 132.833L676.693 131.727L675.442 130.476ZM674.337 131.582V129.813H621.267V131.582V133.351H674.337V131.582ZM621.267 131.582L622.518 130.331L621.412 129.225L620.161 130.476L618.911 131.727L620.016 132.833L621.267 131.582ZM620.161 130.476H621.93V114.26H620.161H618.392V130.476H620.161ZM620.161 114.26L621.412 115.511L622.518 114.406L621.267 113.155L620.016 111.904L618.911 113.01L620.161 114.26Z" fill="white" mask="url(#path-1-outside-1_3789_2819)"/>
</svg>
