<svg width="70" height="17" viewBox="0 0 70 17" fill="none" xmlns="http://www.w3.org/2000/svg">
<path fill-rule="evenodd" clip-rule="evenodd" d="M14.6948 2.62334L14.7821 3.16874C14.8476 3.6705 14.8803 4.17227 14.8694 4.68495C14.8694 5.80847 14.7385 6.92108 14.4767 8.01187C14.1276 9.48445 13.5168 10.8916 12.6769 12.1569C11.7061 13.5968 10.2989 15.0039 8.25915 16.1601L8.00826 16.3019L7.75738 16.1601C5.71759 15.0257 4.31046 13.6077 3.33965 12.1569C2.48883 10.8916 1.88889 9.49536 1.53984 8.01187C1.27805 6.92108 1.14715 5.80847 1.14715 4.68495C1.14715 4.18318 1.16897 3.6705 1.23442 3.16874L1.31077 2.62334C1.32168 2.57971 1.32168 2.53608 1.31077 2.49244C1.29987 2.44881 1.28896 2.40518 1.25623 2.37246C1.23442 2.33973 1.20169 2.30701 1.16897 2.28519C1.13625 2.26338 1.09261 2.25247 1.05989 2.24156C1.01626 2.23065 0.972626 2.23065 0.928994 2.24156C0.885362 2.25247 0.841731 2.27428 0.809007 2.2961C0.776283 2.31792 0.743559 2.35064 0.721743 2.38336C0.699927 2.427 0.689019 2.47063 0.678111 2.51426L0.590848 3.05966C0.5254 3.59415 0.492676 4.13955 0.492676 4.68495C0.492676 5.86301 0.63448 7.03016 0.907179 8.17549C1.09261 8.94996 1.3435 9.71351 1.65983 10.4443C1.97616 11.1752 2.35794 11.8733 2.80516 12.5387C3.83051 14.0658 5.314 15.5602 7.45196 16.7382L7.85555 16.9673C7.91009 16.9891 7.96463 17 8.01917 17C8.07371 17 8.12825 16.9891 8.18279 16.9673L8.58638 16.7382C10.7134 15.5493 12.2078 14.0549 13.2332 12.5387C14.1276 11.2079 14.7712 9.72442 15.1312 8.17549C15.4039 7.03016 15.5348 5.86301 15.5348 4.68495C15.5348 4.13955 15.502 3.59415 15.4366 3.04875L15.3493 2.50335C15.3384 2.45972 15.3275 2.41609 15.3057 2.37246C15.2839 2.33973 15.2511 2.30701 15.2184 2.28519C15.1857 2.26338 15.1421 2.24156 15.0984 2.23065C15.0548 2.21975 15.0112 2.21975 14.9675 2.23065C14.9239 2.24156 14.8803 2.25247 14.8366 2.27429C14.8039 2.2961 14.7712 2.32883 14.7494 2.36155C14.7276 2.39427 14.7058 2.4379 14.6948 2.48154V2.62334Z" fill="white"/>
<path fill-rule="evenodd" clip-rule="evenodd" d="M3.14522 2.25249L8.03198 0.714471L13.0169 2.28522C13.0606 2.29613 13.1042 2.29613 13.1478 2.29613C13.1915 2.29613 13.2351 2.28522 13.2787 2.2634C13.3223 2.24159 13.3551 2.21977 13.3878 2.17614C13.4205 2.14342 13.4423 2.09978 13.4423 2.05615C13.4532 2.01252 13.4532 1.96889 13.4532 1.92526C13.4532 1.88162 13.4423 1.83799 13.4205 1.79436C13.3987 1.75073 13.3769 1.718 13.3442 1.68528C13.3114 1.65256 13.2678 1.63074 13.2242 1.63074L8.13016 0.0163619C8.06471 -0.00545398 7.99926 -0.00545398 7.93381 0.0163619L2.95978 1.58711C2.91615 1.59802 2.88342 1.61983 2.83979 1.64165C2.80707 1.67437 2.77435 1.7071 2.76344 1.75073C2.74162 1.79436 2.73071 1.83799 2.73071 1.88162C2.73071 1.92525 2.73071 1.96889 2.74162 2.01252C2.75253 2.05615 2.77434 2.09978 2.79616 2.13251C2.81798 2.16523 2.86161 2.19795 2.90524 2.21977C2.93796 2.24159 2.9816 2.25249 3.03614 2.25249C3.05795 2.2634 3.10158 2.2634 3.14522 2.25249Z" fill="white"/>
<path fill-rule="evenodd" clip-rule="evenodd" d="M0.731987 2.72101L7.72399 16.8141C7.74581 16.8686 7.78944 16.9123 7.83307 16.945C7.94215 17.0104 8.07305 17.0104 8.18213 16.945C8.23667 16.9123 8.2803 16.8686 8.31302 16.8141L12.578 8.57859L12.5889 8.56768L15.3159 2.7101C15.3378 2.66647 15.3487 2.62284 15.3487 2.57921C15.3487 2.53558 15.3487 2.49194 15.3268 2.44831C15.3159 2.40468 15.2941 2.36105 15.2614 2.32832C15.2396 2.2956 15.1959 2.26288 15.1632 2.24106C15.1305 2.21924 15.0869 2.20834 15.0323 2.20834C14.9887 2.20834 14.9451 2.20834 14.9014 2.21925C14.8578 2.23015 14.8142 2.25197 14.7814 2.28469C14.7487 2.31742 14.716 2.35014 14.7051 2.39377L11.9781 8.25135L8.0076 15.9196L1.31011 2.39377C1.28829 2.36105 1.25557 2.31742 1.23375 2.28469C1.20103 2.25197 1.1574 2.23015 1.11377 2.21925C1.07013 2.19743 1.0265 2.19743 0.982871 2.20834C0.939239 2.20834 0.895607 2.21924 0.851976 2.24106C0.819252 2.26288 0.77562 2.2956 0.753804 2.32832C0.731988 2.36105 0.710172 2.40468 0.699264 2.44831C0.688356 2.49194 0.677448 2.53558 0.688356 2.57921C0.699264 2.63375 0.710171 2.67738 0.731987 2.72101Z" fill="white"/>
<path fill-rule="evenodd" clip-rule="evenodd" d="M4.08493 9.00459H11.8732C11.9168 9.00459 11.9605 8.99368 12.0041 8.98277C12.0477 8.97186 12.0805 8.93914 12.1023 8.90642C12.135 8.87369 12.1568 8.84097 12.1677 8.79734C12.2005 8.71007 12.2005 8.62281 12.1677 8.53555C12.1568 8.49191 12.1241 8.45919 12.1023 8.42647C12.0696 8.39374 12.0368 8.37193 12.0041 8.35011C11.9605 8.3392 11.9168 8.3283 11.8732 8.3283H4.08493C4.0413 8.3283 3.99766 8.3392 3.95403 8.35011C3.9104 8.36102 3.87768 8.39374 3.85586 8.42647C3.82314 8.45919 3.80132 8.49191 3.79041 8.53555C3.75769 8.62281 3.75769 8.71007 3.79041 8.79734C3.80132 8.84097 3.82314 8.87369 3.85586 8.90642C3.88858 8.93914 3.92131 8.96096 3.95403 8.98277C3.99766 8.99368 4.0413 8.99368 4.08493 9.00459ZM25.7918 6.07035H20.7305C20.6868 6.07035 20.6432 6.08125 20.5996 6.09216C20.556 6.10307 20.5232 6.1358 20.5014 6.16852C20.4687 6.20124 20.4469 6.23397 20.436 6.2776C20.4251 6.32123 20.4141 6.36486 20.4141 6.40849V10.6081C20.4141 10.6517 20.4251 10.6953 20.436 10.739C20.4469 10.7826 20.4687 10.8153 20.5014 10.848C20.5341 10.8808 20.5669 10.9026 20.5996 10.9244C20.6432 10.9353 20.6868 10.9462 20.7305 10.9462H25.7918V11.6552H20.7305C20.665 11.6552 20.5996 11.6443 20.5341 11.6334C20.4687 11.6225 20.4032 11.6007 20.3378 11.5789C20.2723 11.5571 20.2178 11.5243 20.1633 11.4916C20.1087 11.448 20.0651 11.4043 20.0106 11.3607C19.9124 11.2625 19.8469 11.1535 19.7924 11.0335C19.7706 10.968 19.7488 10.9026 19.7379 10.8371C19.7269 10.7717 19.716 10.7062 19.716 10.6408V6.4194C19.716 6.35395 19.7269 6.28851 19.7379 6.22306C19.7488 6.15761 19.7706 6.09216 19.7924 6.02671C19.8142 5.96127 19.8469 5.89582 19.8797 5.84128C19.9124 5.78674 19.956 5.7322 20.0106 5.68857C20.0542 5.64494 20.1087 5.60131 20.1633 5.55767C20.2178 5.52495 20.2723 5.49222 20.3378 5.47041C20.4032 5.44859 20.4687 5.42678 20.5341 5.41587C20.5996 5.40496 20.665 5.39405 20.7305 5.39405H25.7918V6.07035ZM35.2926 5.36133V6.07035H30.4167V8.15377H34.3327V8.87369H30.4167V10.9571H35.2926V11.6661H29.7405V5.36133H35.2926Z" fill="white"/>
<path d="M45.3408 6.43014V8.27359C45.3408 8.33904 45.3299 8.40448 45.319 8.46993C45.3081 8.53538 45.2863 8.60083 45.2644 8.66628C45.2426 8.73172 45.2099 8.79717 45.1772 8.85171C45.1335 8.90625 45.1008 8.96079 45.0463 9.00442C45.0026 9.04806 44.9481 9.09169 44.8936 9.13532C44.839 9.16804 44.7845 9.20077 44.719 9.22258C44.6536 9.2444 44.5881 9.26621 44.5227 9.28803C44.4573 9.29894 44.3918 9.30985 44.3264 9.30985H43.3992L45.3081 11.6551H44.3918L42.4938 9.30985H40.2686C40.1595 9.30985 40.0504 9.29894 39.9414 9.27712V11.6551H39.2542V5.37207H44.3373C44.4027 5.37207 44.4682 5.38298 44.5336 5.39389C44.5991 5.4048 44.6645 5.42661 44.7299 5.44843C44.7954 5.47024 44.8499 5.50297 44.9045 5.5466C45.0136 5.62295 45.1008 5.72113 45.1772 5.83021C45.2099 5.88475 45.2426 5.95019 45.2644 6.01564C45.2863 6.08109 45.3081 6.14654 45.319 6.21198C45.3299 6.28834 45.3408 6.3647 45.3408 6.43014ZM40.2577 8.61174H44.3264C44.37 8.61174 44.4136 8.60083 44.4573 8.58992C44.5009 8.57901 44.5336 8.5572 44.5554 8.51357C44.5881 8.48084 44.61 8.44812 44.6209 8.40449C44.6318 8.36085 44.6427 8.31722 44.6427 8.27359V6.43014C44.6427 6.34288 44.61 6.25562 44.5554 6.19017C44.5009 6.12472 44.4136 6.08109 44.3264 6.08109H40.2577C40.2141 6.08109 40.1704 6.092 40.1268 6.10291C40.0832 6.11381 40.0504 6.14654 40.0286 6.17926C39.9959 6.21198 39.9741 6.24471 39.9632 6.28834C39.9523 6.33197 39.9414 6.3756 39.9414 6.41924V8.26268C39.9414 8.34994 39.9741 8.43721 40.0504 8.50266C40.0941 8.5681 40.1813 8.61174 40.2577 8.61174Z" fill="white"/>
<path fill-rule="evenodd" clip-rule="evenodd" d="M48.9807 5.36133H55.0674V6.07035H52.3731V11.6552H51.6859V6.07035H48.9807V5.36133ZM58.7761 11.6661V5.37224H59.4633V11.6661H58.7761ZM68.615 5.36133H69.4986L66.957 8.51373L69.5095 11.6661H68.615L66.3462 8.87369H64.3828V11.6661H63.6956V5.37224H64.3937V8.16468H66.3571L68.615 5.36133Z" fill="white"/>
</svg>
