<svg width="33" height="33" viewBox="0 0 33 33" fill="none" xmlns="http://www.w3.org/2000/svg">
<g clip-path="url(#clip0_6269_8447)">
<path d="M14.9185 24.7881H4.91846V26.7881H14.9185V24.7881Z" fill="white"/>
<path d="M14.9185 18.7881H4.91846V20.7881H14.9185V18.7881Z" fill="white"/>
<path d="M26.9185 14.7881H6.91846C6.38802 14.7881 5.87932 14.5774 5.50424 14.2023C5.12917 13.8272 4.91846 13.3185 4.91846 12.7881V6.78809C4.91846 6.25765 5.12917 5.74894 5.50424 5.37387C5.87932 4.9988 6.38802 4.78809 6.91846 4.78809H26.9185C27.4489 4.78809 27.9576 4.9988 28.3327 5.37387C28.7077 5.74894 28.9185 6.25765 28.9185 6.78809V12.7881C28.9185 13.3185 28.7077 13.8272 28.3327 14.2023C27.9576 14.5774 27.4489 14.7881 26.9185 14.7881ZM6.91846 6.78809V12.7881H26.9185V6.78809H6.91846Z" fill="white"/>
<path d="M26.9185 28.7881H20.9185C20.388 28.7881 19.8793 28.5774 19.5042 28.2023C19.1292 27.8272 18.9185 27.3185 18.9185 26.7881V20.7881C18.9185 20.2577 19.1292 19.7489 19.5042 19.3739C19.8793 18.9988 20.388 18.7881 20.9185 18.7881H26.9185C27.4489 18.7881 27.9576 18.9988 28.3327 19.3739C28.7077 19.7489 28.9185 20.2577 28.9185 20.7881V26.7881C28.9185 27.3185 28.7077 27.8272 28.3327 28.2023C27.9576 28.5774 27.4489 28.7881 26.9185 28.7881ZM20.9185 20.7881V26.7881H26.9185V20.7881H20.9185Z" fill="white"/>
</g>
<defs>
<clipPath id="clip0_6269_8447">
<rect width="32" height="32" fill="white" transform="translate(0.918457 0.788086)"/>
</clipPath>
</defs>
</svg>
