<svg width="37" height="36" viewBox="0 0 37 36" fill="none" xmlns="http://www.w3.org/2000/svg">
<g clip-path="url(#clip0_745_1457)">
<path d="M30.6669 6.2336C28.3724 5.18078 25.9119 4.40511 23.3393 3.96085C23.2924 3.95227 23.2456 3.9737 23.2215 4.01656C22.905 4.57938 22.5545 5.31363 22.309 5.89074C19.542 5.47649 16.7892 5.47649 14.0789 5.89074C13.8334 5.3008 13.4701 4.57938 13.1523 4.01656C13.1281 3.97513 13.0813 3.9537 13.0345 3.96085C10.4633 4.40369 8.00275 5.17936 5.70681 6.2336C5.68693 6.24217 5.6699 6.25647 5.65859 6.27503C0.991494 13.2476 -0.287019 20.0487 0.340176 26.7656C0.343014 26.7984 0.361461 26.8299 0.387003 26.8498C3.46622 29.1111 6.44897 30.484 9.37632 31.3939C9.42317 31.4082 9.47281 31.3911 9.50263 31.3525C10.1951 30.4068 10.8124 29.4097 11.3416 28.3612C11.3729 28.2998 11.343 28.2269 11.2792 28.2026C10.3001 27.8312 9.36781 27.3784 8.471 26.8641C8.40007 26.8227 8.39439 26.7213 8.45964 26.6727C8.64836 26.5313 8.83714 26.3841 9.01734 26.2356C9.04994 26.2084 9.09537 26.2027 9.1337 26.2198C15.0253 28.9098 21.4037 28.9098 27.2258 26.2198C27.2642 26.2013 27.3096 26.207 27.3436 26.2341C27.5239 26.3827 27.7126 26.5313 27.9027 26.6727C27.968 26.7213 27.9637 26.8227 27.8928 26.8641C26.996 27.3884 26.0637 27.8312 25.0832 28.2012C25.0193 28.2255 24.9909 28.2998 25.0222 28.3612C25.5628 29.4083 26.1801 30.4054 26.8597 31.3511C26.8881 31.3911 26.9392 31.4082 26.9861 31.3939C29.9276 30.484 32.9103 29.1111 35.9896 26.8498C36.0165 26.8299 36.0336 26.7998 36.0364 26.767C36.787 19.0016 34.7791 12.2562 30.7137 6.27645C30.7038 6.25647 30.6868 6.24217 30.6669 6.2336ZM12.2214 22.6757C10.4477 22.6757 8.9861 21.0473 8.9861 19.0473C8.9861 17.0474 10.4193 15.4189 12.2214 15.4189C14.0377 15.4189 15.4851 17.0617 15.4567 19.0473C15.4567 21.0473 14.0235 22.6757 12.2214 22.6757ZM24.1835 22.6757C22.4098 22.6757 20.9482 21.0473 20.9482 19.0473C20.9482 17.0474 22.3814 15.4189 24.1835 15.4189C25.9999 15.4189 27.4472 17.0617 27.4189 19.0473C27.4189 21.0473 25.9999 22.6757 24.1835 22.6757Z" fill="black"/>
</g>
<defs>
<clipPath id="clip0_745_1457">
<rect width="36" height="36" fill="white" transform="translate(0.191406)"/>
</clipPath>
</defs>
</svg>
