<svg width="37" height="37" viewBox="0 0 37 37" fill="none" xmlns="http://www.w3.org/2000/svg">
<g clip-path="url(#clip0_4700_10365)">
<path d="M31.0419 6.7336C28.7474 5.68078 26.2869 4.90511 23.7143 4.46085C23.6674 4.45227 23.6206 4.4737 23.5965 4.51656C23.28 5.07938 22.9295 5.81363 22.684 6.39074C19.917 5.97649 17.1642 5.97649 14.4539 6.39074C14.2084 5.8008 13.8451 5.07938 13.5273 4.51656C13.5031 4.47513 13.4563 4.4537 13.4095 4.46085C10.8383 4.90369 8.37775 5.67936 6.08181 6.7336C6.06193 6.74217 6.0449 6.75647 6.03359 6.77503C1.36649 13.7476 0.0879809 20.5487 0.715176 27.2656C0.718014 27.2984 0.736461 27.3299 0.762003 27.3498C3.84122 29.6111 6.82397 30.984 9.75132 31.8939C9.79817 31.9082 9.84781 31.8911 9.87763 31.8525C10.5701 30.9068 11.1874 29.9097 11.7166 28.8612C11.7479 28.7998 11.718 28.7269 11.6542 28.7026C10.6751 28.3312 9.74281 27.8784 8.846 27.3641C8.77507 27.3227 8.76939 27.2213 8.83464 27.1727C9.02336 27.0313 9.21214 26.8841 9.39234 26.7356C9.42494 26.7084 9.47037 26.7027 9.5087 26.7198C15.4003 29.4098 21.7787 29.4098 27.6008 26.7198C27.6392 26.7013 27.6846 26.707 27.7186 26.7341C27.8989 26.8827 28.0876 27.0313 28.2777 27.1727C28.343 27.2213 28.3387 27.3227 28.2678 27.3641C27.371 27.8884 26.4387 28.3312 25.4582 28.7012C25.3943 28.7255 25.3659 28.7998 25.3972 28.8612C25.9378 29.9083 26.5551 30.9054 27.2347 31.8511C27.2631 31.8911 27.3142 31.9082 27.3611 31.8939C30.3026 30.984 33.2853 29.6111 36.3646 27.3498C36.3915 27.3299 36.4086 27.2998 36.4114 27.267C37.162 19.5016 35.1541 12.7562 31.0887 6.77645C31.0788 6.75647 31.0618 6.74217 31.0419 6.7336ZM12.5964 23.1757C10.8227 23.1757 9.3611 21.5473 9.3611 19.5473C9.3611 17.5474 10.7943 15.9189 12.5964 15.9189C14.4127 15.9189 15.8601 17.5617 15.8317 19.5473C15.8317 21.5473 14.3985 23.1757 12.5964 23.1757ZM24.5585 23.1757C22.7848 23.1757 21.3232 21.5473 21.3232 19.5473C21.3232 17.5474 22.7564 15.9189 24.5585 15.9189C26.3749 15.9189 27.8222 17.5617 27.7939 19.5473C27.7939 21.5473 26.3749 23.1757 24.5585 23.1757Z" fill="#0B35F1"/>
</g>
<defs>
<clipPath id="clip0_4700_10365">
<rect width="36" height="36" fill="white" transform="translate(0.566406 0.5)"/>
</clipPath>
</defs>
</svg>
