<svg width="37" height="37" viewBox="0 0 37 37" fill="none" xmlns="http://www.w3.org/2000/svg">
<g clip-path="url(#clip0_4700_10367)">
<path fill-rule="evenodd" clip-rule="evenodd" d="M18.5813 0.799805C8.61953 0.799805 0.566406 8.9123 0.566406 18.9486C0.566406 26.9711 5.72632 33.762 12.8845 36.1655C13.7794 36.3462 14.1073 35.775 14.1073 35.2945C14.1073 34.8737 14.0778 33.4316 14.0778 31.9289C9.06645 33.0108 8.02289 29.7655 8.02289 29.7655C7.21754 27.6621 6.02427 27.1215 6.02427 27.1215C4.38407 26.0097 6.14374 26.0097 6.14374 26.0097C7.96315 26.13 8.91785 27.8727 8.91785 27.8727C10.5282 30.6368 13.1231 29.8558 14.167 29.3749C14.316 28.2031 14.7935 27.3918 15.3005 26.9412C11.3037 26.5205 7.09844 24.9581 7.09844 17.9869C7.09844 16.0037 7.81381 14.3812 8.94735 13.1194C8.7685 12.6687 8.142 10.8055 9.12656 8.3116C9.12656 8.3116 10.6477 7.83075 14.0774 10.1745C15.5458 9.77726 17.0601 9.57517 18.5813 9.57346C20.1024 9.57346 21.653 9.78402 23.0848 10.1745C26.5149 7.83075 28.036 8.3116 28.036 8.3116C29.0206 10.8055 28.3937 12.6687 28.2149 13.1194C29.3783 14.3812 30.0642 16.0037 30.0642 17.9869C30.0642 24.9581 25.8589 26.4902 21.8322 26.9412C22.4886 27.512 23.055 28.5936 23.055 30.3064C23.055 32.7402 23.0255 34.6934 23.0255 35.2941C23.0255 35.775 23.3537 36.3462 24.2482 36.1658C31.4064 33.7616 36.5663 26.9711 36.5663 18.9486C36.5958 8.9123 28.5132 0.799805 18.5813 0.799805Z" fill="#0B35F1"/>
</g>
<defs>
<clipPath id="clip0_4700_10367">
<rect width="36" height="36" fill="white" transform="translate(0.566406 0.5)"/>
</clipPath>
</defs>
</svg>
