<svg width="37" height="36" viewBox="0 0 37 36" fill="none" xmlns="http://www.w3.org/2000/svg">
<g clip-path="url(#clip0_745_1459)">
<path fill-rule="evenodd" clip-rule="evenodd" d="M18.2063 0.299805C8.24453 0.299805 0.191406 8.4123 0.191406 18.4486C0.191406 26.4711 5.35132 33.262 12.5095 35.6655C13.4044 35.8462 13.7323 35.275 13.7323 34.7945C13.7323 34.3737 13.7028 32.9316 13.7028 31.4289C8.69145 32.5108 7.64789 29.2655 7.64789 29.2655C6.84254 27.1621 5.64927 26.6215 5.64927 26.6215C4.00907 25.5097 5.76874 25.5097 5.76874 25.5097C7.58815 25.63 8.54285 27.3727 8.54285 27.3727C10.1532 30.1368 12.7481 29.3558 13.792 28.8749C13.941 27.7031 14.4185 26.8918 14.9255 26.4412C10.9287 26.0205 6.72344 24.4581 6.72344 17.4869C6.72344 15.5037 7.43881 13.8812 8.57235 12.6194C8.3935 12.1687 7.767 10.3055 8.75156 7.8116C8.75156 7.8116 10.2727 7.33075 13.7024 9.67453C15.1708 9.27726 16.6851 9.07517 18.2063 9.07346C19.7274 9.07346 21.278 9.28402 22.7098 9.67453C26.1399 7.33075 27.661 7.8116 27.661 7.8116C28.6456 10.3055 28.0187 12.1687 27.8399 12.6194C29.0033 13.8812 29.6892 15.5037 29.6892 17.4869C29.6892 24.4581 25.4839 25.9902 21.4572 26.4412C22.1136 27.012 22.68 28.0936 22.68 29.8064C22.68 32.2402 22.6505 34.1934 22.6505 34.7941C22.6505 35.275 22.9787 35.8462 23.8732 35.6658C31.0314 33.2616 36.1913 26.4711 36.1913 18.4486C36.2208 8.4123 28.1382 0.299805 18.2063 0.299805Z" fill="black"/>
</g>
<defs>
<clipPath id="clip0_745_1459">
<rect width="36" height="36" fill="white" transform="translate(0.191406)"/>
</clipPath>
</defs>
</svg>
