<svg width="25" height="25" viewBox="0 0 25 25" fill="none" xmlns="http://www.w3.org/2000/svg">
<g clip-path="url(#clip0_745_1428)">
<path fill-rule="evenodd" clip-rule="evenodd" d="M12.2013 0.357422C5.56015 0.357422 0.191406 5.76575 0.191406 12.4566C0.191406 17.8049 3.63135 22.3322 8.40346 23.9345C9.0001 24.055 9.21864 23.6742 9.21864 23.3539C9.21864 23.0734 9.19898 22.1119 9.19898 21.1102C5.8581 21.8314 5.1624 19.6679 5.1624 19.6679C4.6255 18.2656 3.82998 17.9052 3.82998 17.9052C2.73652 17.164 3.90963 17.164 3.90963 17.164C5.12257 17.2442 5.75903 18.406 5.75903 18.406C6.83259 20.2488 8.56251 19.7281 9.25847 19.4075C9.35778 18.6263 9.67614 18.0854 10.0142 17.785C7.34957 17.5045 4.54609 16.4629 4.54609 11.8155C4.54609 10.4934 5.02301 9.4117 5.7787 8.57046C5.65947 8.27005 5.2418 7.02786 5.89818 5.36529C5.89818 5.36529 6.91224 5.04472 9.19873 6.60724C10.1777 6.34239 11.1872 6.20766 12.2013 6.20653C13.2154 6.20653 14.2491 6.3469 15.2037 6.60724C17.4904 5.04472 18.5045 5.36529 18.5045 5.36529C19.1609 7.02786 18.743 8.27005 18.6237 8.57046C19.3993 9.4117 19.8566 10.4934 19.8566 11.8155C19.8566 16.4629 17.0531 17.4844 14.3686 17.785C14.8062 18.1656 15.1838 18.8866 15.1838 20.0285C15.1838 21.651 15.1641 22.9532 15.1641 23.3536C15.1641 23.6742 15.3829 24.055 15.9793 23.9348C20.7514 22.3319 24.1914 17.8049 24.1914 12.4566C24.211 5.76575 18.8226 0.357422 12.2013 0.357422Z" fill="white"/>
</g>
<defs>
<clipPath id="clip0_745_1428">
<rect width="24" height="24" fill="white" transform="translate(0.191406 0.357422)"/>
</clipPath>
</defs>
</svg>
