<svg width="1608" height="247" viewBox="0 0 1608 247" fill="none" xmlns="http://www.w3.org/2000/svg">
<path fill-rule="evenodd" clip-rule="evenodd" d="M1014.23 52.9425H1031.84V35.2787H1049.43V17.6393H1067V0H1014.23V52.9425Z" fill="#0B35F1"/>
<path fill-rule="evenodd" clip-rule="evenodd" d="M1278.18 35.2787H1260.59V17.6393H1242.98V0H1119.84V17.6393H1102.25V35.2787H1084.59V52.9425H1067.09V194.033H1084.59V211.697H1102.2V229.336H1119.79V246.975H1242.93V229.336H1260.54V211.697H1278.13V194.057H1295.8V52.9425H1278.18V35.2787ZM1243.03 158.779H1225.43V176.393H1207.84V194.033H1155.07V176.393H1137.48V158.754H1119.87V88.1967H1137.48V70.5574H1155.07V52.918H1207.84V70.5574H1225.43V88.1967H1243.03V158.779Z" fill="#0B35F1"/>
<path fill-rule="evenodd" clip-rule="evenodd" d="M1049.43 211.721H1031.84V194.057H1014.23V246.975H1067V229.336H1049.43V211.721Z" fill="#0B35F1"/>
<path fill-rule="evenodd" clip-rule="evenodd" d="M1589.95 211.721H1572.36V229.336H1554.79V246.975H1607.57V194.057H1589.95V211.721Z" fill="#0B35F1"/>
<path fill-rule="evenodd" clip-rule="evenodd" d="M1554.79 0V17.6393H1572.36V35.2542H1589.95V52.918H1607.57V0H1554.79Z" fill="#0B35F1"/>
<path fill-rule="evenodd" clip-rule="evenodd" d="M1542.02 35.2787H1524.43V17.6393H1506.84V0H1366.09V17.6393H1348.5V35.2787H1330.88V52.9425H1330.98V123.5H1348.57V141.139H1383.77V158.779H1489.32V176.418H1471.73V194.057H1401.37V176.418H1383.77V158.779H1330.91V211.721H1348.1V229.36H1365.52V247H1506.27V229.36H1524.01V211.721H1541.94V141.139H1524.5V123.5H1506.91V105.836H1401.37V88.1967H1383.77V70.5818H1401.37V52.9425H1471.73V70.5818H1489.32V88.2212H1542.11V52.9425H1542.02V35.2787Z" fill="#0B35F1"/>
<path fill-rule="evenodd" clip-rule="evenodd" d="M65.7738 186.658V155.471L71.9794 149.224H162.229V95.2034H70.709L65.7738 90.2301V59.0428L69.9272 54.8779H190.74V0.0734942H0.566406V246.755H194.234V191.926H71.0021L65.7738 186.658Z" fill="#0B35F1"/>
<path fill-rule="evenodd" clip-rule="evenodd" d="M275.811 186.707V0.293977H209.43V246.975H397.626V192.146H281.259L275.811 186.707Z" fill="#0B35F1"/>
<path d="M477.589 0.293977H411.209V247H477.589V0.293977Z" fill="#0B35F1"/>
<path fill-rule="evenodd" clip-rule="evenodd" d="M581.936 184.944L697.472 51.987V0.293977H493.25V55.1229H607.443V61.7622L492.053 196.483V247H700.575V192.171H581.936V184.944Z" fill="#0B35F1"/>
<path fill-rule="evenodd" clip-rule="evenodd" d="M806.803 0.293977L708.784 247H775.555L792.144 203.685L799.864 199.227H884.397L891.506 203.342L908.291 246.975H978.971L880.952 0.293977H806.803ZM864.412 149.444H819.996L814.865 144.3L839.077 76.6086H844.769L869.201 144.716L864.412 149.444Z" fill="#0B35F1"/>
</svg>
