<svg width="1608" height="248" viewBox="0 0 1608 248" fill="none" xmlns="http://www.w3.org/2000/svg">
<path fill-rule="evenodd" clip-rule="evenodd" d="M1013.85 53.4425H1031.47V35.7787H1049.06V18.1393H1066.62V0.5H1013.85V53.4425Z" fill="black"/>
<path fill-rule="evenodd" clip-rule="evenodd" d="M1277.81 35.7787H1260.22V18.1393H1242.6V0.5H1119.47V18.1393H1101.88V35.7787H1084.21V53.4425H1066.72V194.533H1084.21V212.197H1101.83V229.836H1119.42V247.475H1242.55V229.836H1260.17V212.197H1277.76V194.557H1295.42V53.4425H1277.81V35.7787ZM1242.65 159.279H1225.06V176.893H1207.47V194.533H1154.7V176.893H1137.11V159.254H1119.49V88.6967H1137.11V71.0574H1154.7V53.418H1207.47V71.0574H1225.06V88.6967H1242.65V159.279Z" fill="black"/>
<path fill-rule="evenodd" clip-rule="evenodd" d="M1049.06 212.221H1031.47V194.557H1013.85V247.475H1066.62V229.836H1049.06V212.221Z" fill="black"/>
<path fill-rule="evenodd" clip-rule="evenodd" d="M1589.58 212.221H1571.99V229.836H1554.42V247.475H1607.19V194.557H1589.58V212.221Z" fill="black"/>
<path fill-rule="evenodd" clip-rule="evenodd" d="M1554.42 0.5V18.1393H1571.99V35.7542H1589.58V53.418H1607.19V0.5H1554.42Z" fill="black"/>
<path fill-rule="evenodd" clip-rule="evenodd" d="M1541.64 35.7787H1524.05V18.1393H1506.46V0.5H1365.71V18.1393H1348.12V35.7787H1330.51V53.4425H1330.6V124H1348.19V141.639H1383.4V159.279H1488.94V176.918H1471.35V194.557H1400.99V176.918H1383.4V159.279H1330.53V212.221H1347.73V229.86H1365.15V247.5H1505.9V229.86H1523.64V212.221H1541.57V141.639H1524.12V124H1506.53V106.336H1400.99V88.6967H1383.4V71.0818H1400.99V53.4425H1471.35V71.0818H1488.94V88.7212H1541.74V53.4425H1541.64V35.7787Z" fill="black"/>
<path fill-rule="evenodd" clip-rule="evenodd" d="M65.3988 187.158V155.971L71.6044 149.724H161.854V95.7034H70.334L65.3988 90.7301V59.5428L69.5522 55.3779H190.365V0.573494H0.191406V247.255H193.859V192.426H70.6271L65.3988 187.158Z" fill="black"/>
<path fill-rule="evenodd" clip-rule="evenodd" d="M275.436 187.207V0.793977H209.055V247.475H397.251V192.646H280.884L275.436 187.207Z" fill="black"/>
<path d="M477.214 0.793977H410.834V247.5H477.214V0.793977Z" fill="black"/>
<path fill-rule="evenodd" clip-rule="evenodd" d="M581.561 185.444L697.097 52.487V0.793977H492.875V55.6229H607.068V62.2622L491.678 196.983V247.5H700.2V192.671H581.561V185.444Z" fill="black"/>
<path fill-rule="evenodd" clip-rule="evenodd" d="M806.428 0.793977L708.409 247.5H775.18L791.769 204.185L799.489 199.727H884.022L891.131 203.842L907.916 247.475H978.596L880.577 0.793977H806.428ZM864.037 149.944H819.621L814.49 144.8L838.702 77.1086H844.394L868.826 145.216L864.037 149.944Z" fill="black"/>
</svg>
