<svg width="1539" height="286" viewBox="0 0 1539 286" fill="none" xmlns="http://www.w3.org/2000/svg">
<g opacity="0.9">
<mask id="path-1-outside-1_4477_5541" maskUnits="userSpaceOnUse" x="-0.335938" y="0.211426" width="1539" height="286" fill="black">
<rect fill="white" x="-0.335938" y="0.211426" width="1539" height="286"/>
<path d="M263.77 120.211L232.366 5.65392H261.046L272.582 53.72C275.145 64.7752 277.869 82.079 277.869 82.079H278.189C278.189 82.079 281.234 66.3774 283.797 54.8415L294.532 5.65392H320.808L331.543 54.5211C334.106 66.2172 336.99 82.079 336.99 82.079H337.311C337.311 82.079 340.515 64.7752 343.079 53.3996L354.454 5.65392H382.973L351.57 120.211H323.852L311.836 65.2559C309.753 56.1233 307.83 43.9466 307.83 43.9466H307.51C307.51 43.9466 305.587 56.1233 303.664 65.2559L291.648 120.211H263.77ZM390.893 120.211V5.65392H477.732V29.0461H419.252V49.5543H469.401V71.6647H419.252V96.1784H478.694V120.211H390.893ZM491.5 120.211V5.65392H519.859V96.1784H571.29V120.211H491.5ZM629.937 122.775C596.29 122.775 573.379 97.6204 573.379 63.3332C573.379 29.2063 595.65 3.41084 629.776 3.41084C643.075 3.41084 654.29 7.25612 662.461 13.5047C672.395 21.0351 678.163 32.2505 679.605 45.0681H651.246C649.804 34.814 641.793 26.9632 629.616 26.9632C611.031 26.9632 602.219 42.5046 602.219 63.3332C602.219 84.3221 612.793 99.543 629.776 99.543C642.434 99.543 650.765 91.532 652.047 80.4768H680.406C679.605 91.8524 674.478 102.267 666.627 109.797C657.815 118.289 646.119 122.775 629.937 122.775ZM742.595 99.8635C761.181 99.8635 770.313 84.0016 770.313 63.173C770.313 42.3444 761.181 26.3223 742.595 26.3223C724.17 26.3223 714.717 42.3444 714.717 63.173C714.717 84.0016 724.17 99.8635 742.595 99.8635ZM742.435 122.935C707.827 122.935 685.877 97.4601 685.877 63.173C685.877 28.8859 707.827 3.41084 742.435 3.41084C777.203 3.41084 799.153 28.8859 799.153 63.173C799.153 97.4601 777.203 122.935 742.435 122.935ZM810.22 120.211V5.65392H848.352L862.291 55.8029C864.374 63.0128 868.86 81.9188 868.86 81.9188H869.181C869.181 81.9188 873.667 63.0128 875.589 55.8029L889.689 5.65392H928.142V120.211H902.186V62.5321C902.186 57.8857 902.667 39.6206 902.667 39.6206H902.346C902.346 39.6206 898.341 56.7642 897.059 60.9299L880.556 120.211H857.164L840.822 61.0901C839.54 56.9244 835.534 39.6206 835.534 39.6206H835.214C835.214 39.6206 835.695 58.046 835.695 62.6923V120.211H810.22ZM943.841 120.211V5.65392H1030.68V29.0461H972.2V49.5543H1022.35V71.6647H972.2V96.1784H1031.64V120.211H943.841ZM1097.52 120.211V29.687H1064.2V5.65392H1159.53V29.687H1125.88V120.211H1097.52ZM1217.31 99.8635C1235.9 99.8635 1245.03 84.0016 1245.03 63.173C1245.03 42.3444 1235.9 26.3223 1217.31 26.3223C1198.89 26.3223 1189.43 42.3444 1189.43 63.173C1189.43 84.0016 1198.89 99.8635 1217.31 99.8635ZM1217.15 122.935C1182.54 122.935 1160.59 97.4601 1160.59 63.173C1160.59 28.8859 1182.54 3.41084 1217.15 3.41084C1251.92 3.41084 1273.87 28.8859 1273.87 63.173C1273.87 97.4601 1251.92 122.935 1217.15 122.935Z"/>
<path d="M36.9257 280.211V189.687H3.5999V165.654H98.931V189.687H65.2847V280.211H36.9257ZM109.49 280.211V165.654H137.849V209.074H178.065V165.654H206.424V280.211H178.065V232.466H137.849V280.211H109.49ZM222.145 280.211V165.654H308.985V189.046H250.504V209.554H300.653V231.665H250.504V256.178H309.946V280.211H222.145ZM347.63 280.211V165.654H376.15L410.116 223.173C411.879 226.377 417.967 237.753 417.967 237.753H418.288C418.288 237.753 417.967 223.974 417.967 219.969V165.654H445.685V280.211H417.166L383.52 223.493C381.597 220.449 375.349 208.112 375.349 208.112H375.028C375.028 208.112 375.349 222.853 375.349 226.858V280.211H347.63ZM461.381 280.211V165.654H548.22V189.046H489.74V209.554H539.888V231.665H489.74V256.178H549.181V280.211H461.381ZM585.54 280.211L554.137 165.654H582.816L594.352 213.72C596.916 224.775 599.639 242.079 599.639 242.079H599.96C599.96 242.079 603.004 226.377 605.567 214.842L616.302 165.654H642.578L653.313 214.521C655.877 226.217 658.761 242.079 658.761 242.079H659.081C659.081 242.079 662.285 224.775 664.849 213.4L676.225 165.654H704.744L673.341 280.211H645.623L633.606 225.256C631.523 216.123 629.601 203.947 629.601 203.947H629.28C629.28 203.947 627.357 216.123 625.435 225.256L613.418 280.211H585.54ZM737.541 280.211V165.654H824.381V189.046H765.9V209.554H816.049V231.665H765.9V256.178H825.342V280.211H737.541ZM887.713 282.775C854.067 282.775 831.155 257.62 831.155 223.333C831.155 189.206 853.426 163.411 887.553 163.411C900.851 163.411 912.066 167.256 920.238 173.505C930.171 181.035 935.939 192.25 937.381 205.068H909.022C907.58 194.814 899.569 186.963 887.392 186.963C868.807 186.963 859.995 202.505 859.995 223.333C859.995 244.322 870.569 259.543 887.553 259.543C900.21 259.543 908.542 251.532 909.823 240.477H938.182C937.381 251.852 932.254 262.267 924.403 269.797C915.591 278.289 903.895 282.775 887.713 282.775ZM1000.37 259.863C1018.96 259.863 1028.09 244.002 1028.09 223.173C1028.09 202.344 1018.96 186.322 1000.37 186.322C981.946 186.322 972.493 202.344 972.493 223.173C972.493 244.002 981.946 259.863 1000.37 259.863ZM1000.21 282.935C965.604 282.935 943.654 257.46 943.654 223.173C943.654 188.886 965.604 163.411 1000.21 163.411C1034.98 163.411 1056.93 188.886 1056.93 223.173C1056.93 257.46 1034.98 282.935 1000.21 282.935ZM1068 280.211V165.654H1096.52L1130.48 223.173C1132.24 226.377 1138.33 237.753 1138.33 237.753H1138.65C1138.65 237.753 1138.33 223.974 1138.33 219.969V165.654H1166.05V280.211H1137.53L1103.89 223.493C1101.96 220.449 1095.71 208.112 1095.71 208.112H1095.39C1095.39 208.112 1095.71 222.853 1095.71 226.858V280.211H1068ZM1233.82 259.863C1252.4 259.863 1261.54 244.002 1261.54 223.173C1261.54 202.344 1252.4 186.322 1233.82 186.322C1215.39 186.322 1205.94 202.344 1205.94 223.173C1205.94 244.002 1215.39 259.863 1233.82 259.863ZM1233.66 282.935C1199.05 282.935 1177.1 257.46 1177.1 223.173C1177.1 188.886 1199.05 163.411 1233.66 163.411C1268.42 163.411 1290.38 188.886 1290.38 223.173C1290.38 257.46 1268.42 282.935 1233.66 282.935ZM1301.44 280.211V165.654H1339.57L1353.51 215.803C1355.6 223.013 1360.08 241.919 1360.08 241.919H1360.4C1360.4 241.919 1364.89 223.013 1366.81 215.803L1380.91 165.654H1419.36V280.211H1393.41V222.532C1393.41 217.886 1393.89 199.621 1393.89 199.621H1393.57C1393.57 199.621 1389.56 216.764 1388.28 220.93L1371.78 280.211H1348.39L1332.04 221.09C1330.76 216.924 1326.76 199.621 1326.76 199.621H1326.44C1326.44 199.621 1326.92 218.046 1326.92 222.692V280.211H1301.44ZM1466.15 280.211V237.913L1427.37 165.654H1458.29L1473.04 195.295C1476.88 203.145 1480.57 212.759 1480.57 212.759H1480.89C1480.89 212.759 1484.89 203.145 1488.74 195.295L1503.32 165.654H1533.28L1494.5 237.913V280.211H1466.15Z"/>
</mask>
<path d="M36.9257 280.211V189.687H3.5999V165.654H98.931V189.687H65.2847V280.211H36.9257ZM109.49 280.211V165.654H137.849V209.074H178.065V165.654H206.424V280.211H178.065V232.466H137.849V280.211H109.49ZM222.145 280.211V165.654H308.985V189.046H250.504V209.554H300.653V231.665H250.504V256.178H309.946V280.211H222.145ZM347.63 280.211V165.654H376.15L410.116 223.173C411.879 226.377 417.967 237.753 417.967 237.753H418.288C418.288 237.753 417.967 223.974 417.967 219.969V165.654H445.685V280.211H417.166L383.52 223.493C381.597 220.449 375.349 208.112 375.349 208.112H375.028C375.028 208.112 375.349 222.853 375.349 226.858V280.211H347.63ZM461.381 280.211V165.654H548.22V189.046H489.74V209.554H539.888V231.665H489.74V256.178H549.181V280.211H461.381ZM585.54 280.211L554.137 165.654H582.816L594.352 213.72C596.916 224.775 599.639 242.079 599.639 242.079H599.96C599.96 242.079 603.004 226.377 605.567 214.842L616.302 165.654H642.578L653.313 214.521C655.877 226.217 658.761 242.079 658.761 242.079H659.081C659.081 242.079 662.285 224.775 664.849 213.4L676.225 165.654H704.744L673.341 280.211H645.623L633.606 225.256C631.523 216.123 629.601 203.947 629.601 203.947H629.28C629.28 203.947 627.357 216.123 625.435 225.256L613.418 280.211H585.54ZM737.541 280.211V165.654H824.381V189.046H765.9V209.554H816.049V231.665H765.9V256.178H825.342V280.211H737.541ZM887.713 282.775C854.067 282.775 831.155 257.62 831.155 223.333C831.155 189.206 853.426 163.411 887.553 163.411C900.851 163.411 912.066 167.256 920.238 173.505C930.171 181.035 935.939 192.25 937.381 205.068H909.022C907.58 194.814 899.569 186.963 887.392 186.963C868.807 186.963 859.995 202.505 859.995 223.333C859.995 244.322 870.569 259.543 887.553 259.543C900.21 259.543 908.542 251.532 909.823 240.477H938.182C937.381 251.852 932.254 262.267 924.403 269.797C915.591 278.289 903.895 282.775 887.713 282.775ZM1000.37 259.863C1018.96 259.863 1028.09 244.002 1028.09 223.173C1028.09 202.344 1018.96 186.322 1000.37 186.322C981.946 186.322 972.493 202.344 972.493 223.173C972.493 244.002 981.946 259.863 1000.37 259.863ZM1000.21 282.935C965.604 282.935 943.654 257.46 943.654 223.173C943.654 188.886 965.604 163.411 1000.21 163.411C1034.98 163.411 1056.93 188.886 1056.93 223.173C1056.93 257.46 1034.98 282.935 1000.21 282.935ZM1068 280.211V165.654H1096.52L1130.48 223.173C1132.24 226.377 1138.33 237.753 1138.33 237.753H1138.65C1138.65 237.753 1138.33 223.974 1138.33 219.969V165.654H1166.05V280.211H1137.53L1103.89 223.493C1101.96 220.449 1095.71 208.112 1095.71 208.112H1095.39C1095.39 208.112 1095.71 222.853 1095.71 226.858V280.211H1068ZM1233.82 259.863C1252.4 259.863 1261.54 244.002 1261.54 223.173C1261.54 202.344 1252.4 186.322 1233.82 186.322C1215.39 186.322 1205.94 202.344 1205.94 223.173C1205.94 244.002 1215.39 259.863 1233.82 259.863ZM1233.66 282.935C1199.05 282.935 1177.1 257.46 1177.1 223.173C1177.1 188.886 1199.05 163.411 1233.66 163.411C1268.42 163.411 1290.38 188.886 1290.38 223.173C1290.38 257.46 1268.42 282.935 1233.66 282.935ZM1301.44 280.211V165.654H1339.57L1353.51 215.803C1355.6 223.013 1360.08 241.919 1360.08 241.919H1360.4C1360.4 241.919 1364.89 223.013 1366.81 215.803L1380.91 165.654H1419.36V280.211H1393.41V222.532C1393.41 217.886 1393.89 199.621 1393.89 199.621H1393.57C1393.57 199.621 1389.56 216.764 1388.28 220.93L1371.78 280.211H1348.39L1332.04 221.09C1330.76 216.924 1326.76 199.621 1326.76 199.621H1326.44C1326.44 199.621 1326.92 218.046 1326.92 222.692V280.211H1301.44ZM1466.15 280.211V237.913L1427.37 165.654H1458.29L1473.04 195.295C1476.88 203.145 1480.57 212.759 1480.57 212.759H1480.89C1480.89 212.759 1484.89 203.145 1488.74 195.295L1503.32 165.654H1533.28L1494.5 237.913V280.211H1466.15Z" fill="white"/>
<path d="M263.77 120.211L260.876 121.005L261.481 123.211H263.77V120.211ZM232.366 5.65392V2.65392H228.433L229.473 6.44704L232.366 5.65392ZM261.046 5.65392L263.963 4.9538L263.411 2.65392H261.046V5.65392ZM272.582 53.72L275.504 53.0423L275.501 53.0311L275.499 53.0199L272.582 53.72ZM277.869 82.079L274.905 82.5455L275.304 85.079H277.869V82.079ZM278.189 82.079V85.079H280.664L281.134 82.65L278.189 82.079ZM283.797 54.8416L286.726 55.4923L286.728 55.4812L283.797 54.8416ZM294.532 5.65392V2.65392H292.116L291.601 5.01426L294.532 5.65392ZM320.808 5.65392L323.738 5.01025L323.22 2.65392H320.808V5.65392ZM331.543 54.5211L334.473 53.8788L334.473 53.8774L331.543 54.5211ZM336.99 82.079L334.039 82.6157L334.486 85.079H336.99V82.079ZM337.311 82.079V85.079H339.806L340.26 82.6253L337.311 82.079ZM343.079 53.3996L340.16 52.7043L340.156 52.7221L340.152 52.74L343.079 53.3996ZM354.454 5.65392V2.65392H352.085L351.536 4.95862L354.454 5.65392ZM382.973 5.65392L385.867 6.44704L386.906 2.65392H382.973V5.65392ZM351.57 120.211V123.211H353.859L354.463 121.005L351.57 120.211ZM323.852 120.211L320.921 120.852L321.437 123.211H323.852V120.211ZM311.836 65.2559L314.766 64.615L314.763 64.6019L314.76 64.5888L311.836 65.2559ZM307.83 43.9466L310.793 43.4787L310.394 40.9466H307.83V43.9466ZM307.51 43.9466V40.9466H304.946L304.546 43.4787L307.51 43.9466ZM303.664 65.2559L306.595 65.8967L306.598 65.8853L306.6 65.8739L303.664 65.2559ZM291.648 120.211V123.211H294.063L294.579 120.852L291.648 120.211ZM263.77 120.211L266.663 119.418L235.26 4.86081L232.366 5.65392L229.473 6.44704L260.876 121.005L263.77 120.211ZM232.366 5.65392V8.65392H261.046V5.65392V2.65392H232.366V5.65392ZM261.046 5.65392L258.129 6.35404L269.664 54.4201L272.582 53.72L275.499 53.0199L263.963 4.9538L261.046 5.65392ZM272.582 53.72L269.659 54.3977C270.922 59.8425 272.232 66.8663 273.232 72.5636C273.73 75.4049 274.149 77.9027 274.443 79.6897C274.59 80.5831 274.706 81.2984 274.785 81.7898C274.824 82.0354 274.855 82.2251 274.875 82.3529C274.885 82.4169 274.893 82.4654 274.898 82.4977C274.9 82.5139 274.902 82.526 274.904 82.534C274.904 82.538 274.905 82.5409 274.905 82.5429C274.905 82.5438 274.905 82.5445 274.905 82.545C274.905 82.5452 274.905 82.5453 274.905 82.5454C274.905 82.5455 274.905 82.5455 277.869 82.079C280.832 81.6125 280.832 81.6124 280.832 81.6122C280.832 81.612 280.832 81.6118 280.832 81.6115C280.832 81.6108 280.832 81.61 280.832 81.6088C280.831 81.6065 280.831 81.6032 280.83 81.5989C280.829 81.5901 280.827 81.5773 280.824 81.5603C280.819 81.5265 280.811 81.4765 280.8 81.411C280.78 81.28 280.749 81.0871 280.709 80.838C280.629 80.3399 280.512 79.617 280.363 78.7154C280.067 76.9125 279.644 74.3934 279.141 71.5268C278.138 65.8084 276.805 58.6527 275.504 53.0423L272.582 53.72ZM277.869 82.079V85.079H278.189V82.079V79.079H277.869V82.079ZM278.189 82.079C281.134 82.65 281.134 82.65 281.135 82.6499C281.135 82.6498 281.135 82.6496 281.135 82.6494C281.135 82.649 281.135 82.6483 281.135 82.6474C281.135 82.6455 281.136 82.6428 281.137 82.639C281.138 82.6316 281.14 82.6204 281.143 82.6055C281.149 82.5758 281.158 82.5313 281.169 82.4728C281.192 82.3556 281.226 82.182 281.27 81.9568C281.357 81.5064 281.486 80.8496 281.648 80.0251C281.973 78.3762 282.433 76.0574 282.973 73.3788C284.053 68.0175 285.45 61.231 286.726 55.4923L283.797 54.8416L280.868 54.1908C279.58 59.9879 278.174 66.8202 277.091 72.1937C276.549 74.8824 276.088 77.21 275.762 78.8656C275.599 79.6935 275.469 80.3535 275.381 80.8068C275.337 81.0334 275.302 81.2084 275.279 81.3269C275.268 81.3862 275.259 81.4313 275.253 81.4617C275.25 81.4769 275.248 81.4884 275.246 81.4961C275.246 81.5 275.245 81.5029 275.245 81.5049C275.245 81.5059 275.244 81.5067 275.244 81.5072C275.244 81.5074 275.244 81.5076 275.244 81.5078C275.244 81.5079 275.244 81.508 278.189 82.079ZM283.797 54.8416L286.728 55.4812L297.463 6.29359L294.532 5.65392L291.601 5.01426L280.866 54.2019L283.797 54.8416ZM294.532 5.65392V8.65392H320.808V5.65392V2.65392H294.532V5.65392ZM320.808 5.65392L317.878 6.29759L328.613 55.1648L331.543 54.5211L334.473 53.8774L323.738 5.01025L320.808 5.65392ZM331.543 54.5211L328.612 55.1634C329.886 60.9729 331.242 67.8321 332.281 73.2514C332.801 75.9584 333.24 78.3008 333.55 79.9662C333.705 80.7988 333.827 81.4619 333.911 81.9166C333.952 82.1439 333.984 82.3191 334.006 82.4372C334.017 82.4963 334.025 82.5411 334.03 82.5711C334.033 82.586 334.035 82.5973 334.037 82.6047C334.037 82.6085 334.038 82.6112 334.038 82.6131C334.038 82.614 334.038 82.6147 334.038 82.6151C334.039 82.6153 334.039 82.6154 334.039 82.6156C334.039 82.6156 334.039 82.6157 336.99 82.079C339.942 81.5423 339.942 81.5422 339.942 81.5421C339.942 81.542 339.942 81.5417 339.942 81.5415C339.942 81.5409 339.941 81.5402 339.941 81.5391C339.941 81.5371 339.94 81.5341 339.94 81.5302C339.938 81.5223 339.936 81.5106 339.933 81.4952C339.928 81.4644 339.919 81.4188 339.908 81.3588C339.886 81.2389 339.854 81.0618 339.812 80.8326C339.728 80.3741 339.605 79.7067 339.449 78.8695C339.138 77.1953 338.696 74.8413 338.174 72.1208C337.131 66.6851 335.763 59.7654 334.473 53.8788L331.543 54.5211ZM336.99 82.079V85.079H337.311V82.079V79.079H336.99V82.079ZM337.311 82.079C340.26 82.6253 340.26 82.6252 340.26 82.6251C340.26 82.625 340.261 82.6249 340.261 82.6246C340.261 82.6241 340.261 82.6234 340.261 82.6224C340.261 82.6204 340.262 82.6174 340.263 82.6133C340.264 82.6051 340.266 82.5928 340.27 82.5765C340.276 82.5438 340.285 82.4949 340.297 82.4306C340.321 82.302 340.356 82.1114 340.402 81.8647C340.494 81.3711 340.629 80.6528 340.799 79.7551C341.139 77.9595 341.618 75.4468 342.178 72.5797C343.298 66.8379 344.733 59.7029 346.005 54.0591L343.079 53.3996L340.152 52.74C338.86 58.4719 337.412 65.6766 336.289 71.4306C335.727 74.3114 335.245 76.8357 334.904 78.64C334.733 79.5422 334.597 80.2646 334.504 80.7619C334.458 81.0105 334.422 81.2028 334.398 81.3332C334.386 81.3984 334.376 81.4481 334.37 81.4815C334.367 81.4983 334.365 81.511 334.363 81.5196C334.362 81.5238 334.362 81.5271 334.361 81.5293C334.361 81.5304 334.361 81.5312 334.361 81.5318C334.361 81.5321 334.361 81.5323 334.361 81.5325C334.361 81.5326 334.361 81.5327 337.311 82.079ZM343.079 53.3996L345.997 54.0949L357.372 6.34923L354.454 5.65392L351.536 4.95862L340.16 52.7043L343.079 53.3996ZM354.454 5.65392V8.65392H382.973V5.65392V2.65392H354.454V5.65392ZM382.973 5.65392L380.08 4.86081L348.677 119.418L351.57 120.211L354.463 121.005L385.867 6.44704L382.973 5.65392ZM351.57 120.211V117.211H323.852V120.211V123.211H351.57V120.211ZM323.852 120.211L326.783 119.571L314.766 64.615L311.836 65.2559L308.905 65.8967L320.921 120.852L323.852 120.211ZM311.836 65.2559L314.76 64.5888C313.735 60.094 312.744 54.823 312.006 50.6535C311.638 48.5736 311.334 46.7772 311.123 45.5015C311.017 44.8638 310.934 44.3565 310.878 44.0094C310.85 43.8359 310.829 43.7024 310.815 43.6127C310.808 43.5679 310.802 43.534 310.799 43.5115C310.797 43.5002 310.795 43.4918 310.795 43.4863C310.794 43.4836 310.794 43.4816 310.794 43.4803C310.794 43.4797 310.793 43.4792 310.793 43.4789C310.793 43.4788 310.793 43.4787 310.793 43.4787C310.793 43.4787 310.793 43.4787 307.83 43.9466C304.867 44.4145 304.867 44.4146 304.867 44.4147C304.867 44.4149 304.867 44.4151 304.867 44.4153C304.867 44.4158 304.867 44.4164 304.867 44.4173C304.867 44.419 304.868 44.4214 304.868 44.4245C304.869 44.4308 304.871 44.44 304.873 44.4521C304.877 44.4762 304.882 44.5118 304.89 44.5584C304.905 44.6515 304.927 44.7886 304.955 44.9658C305.012 45.3203 305.096 45.8357 305.203 46.4823C305.418 47.7751 305.725 49.5937 306.098 51.6995C306.842 55.9015 307.853 61.2852 308.911 65.923L311.836 65.2559ZM307.83 43.9466V40.9466H307.51V43.9466V46.9466H307.83V43.9466ZM307.51 43.9466C304.546 43.4787 304.546 43.4787 304.546 43.4787C304.546 43.4788 304.546 43.4789 304.546 43.479C304.546 43.4793 304.546 43.4798 304.546 43.4805C304.546 43.4818 304.546 43.4839 304.545 43.4866C304.544 43.4922 304.543 43.5007 304.541 43.5121C304.537 43.5348 304.532 43.5689 304.525 43.614C304.511 43.7041 304.489 43.838 304.461 44.012C304.405 44.36 304.323 44.8683 304.219 45.5071C304.009 46.785 303.71 48.5841 303.352 50.6673C302.633 54.8409 301.679 60.1257 300.729 64.6378L303.664 65.2559L306.6 65.8739C307.573 61.2535 308.541 55.8836 309.264 51.6858C309.627 49.5832 309.928 47.7673 310.14 46.4767C310.245 45.8312 310.329 45.3168 310.385 44.9632C310.414 44.7865 310.436 44.6498 310.45 44.5572C310.458 44.5108 310.463 44.4754 310.467 44.4515C310.469 44.4395 310.47 44.4304 310.471 44.4242C310.472 44.4211 310.472 44.4188 310.473 44.4171C310.473 44.4163 310.473 44.4157 310.473 44.4152C310.473 44.415 310.473 44.4148 310.473 44.4147C310.473 44.4146 310.473 44.4145 307.51 43.9466ZM303.664 65.2559L300.734 64.615L288.717 119.571L291.648 120.211L294.579 120.852L306.595 65.8967L303.664 65.2559ZM291.648 120.211V117.211H263.77V120.211V123.211H291.648V120.211ZM390.893 120.211H387.893V123.211H390.893V120.211ZM390.893 5.65392V2.65392H387.893V5.65392H390.893ZM477.732 5.65392H480.732V2.65392H477.732V5.65392ZM477.732 29.0461V32.0461H480.732V29.0461H477.732ZM419.252 29.0461V26.0461H416.252V29.0461H419.252ZM419.252 49.5543H416.252V52.5543H419.252V49.5543ZM469.401 49.5543H472.401V46.5543H469.401V49.5543ZM469.401 71.6647V74.6647H472.401V71.6647H469.401ZM419.252 71.6647V68.6647H416.252V71.6647H419.252ZM419.252 96.1784H416.252V99.1784H419.252V96.1784ZM478.694 96.1784H481.694V93.1784H478.694V96.1784ZM478.694 120.211V123.211H481.694V120.211H478.694ZM390.893 120.211H393.893V5.65392H390.893H387.893V120.211H390.893ZM390.893 5.65392V8.65392H477.732V5.65392V2.65392H390.893V5.65392ZM477.732 5.65392H474.732V29.0461H477.732H480.732V5.65392H477.732ZM477.732 29.0461V26.0461H419.252V29.0461V32.0461H477.732V29.0461ZM419.252 29.0461H416.252V49.5543H419.252H422.252V29.0461H419.252ZM419.252 49.5543V52.5543H469.401V49.5543V46.5543H419.252V49.5543ZM469.401 49.5543H466.401V71.6647H469.401H472.401V49.5543H469.401ZM469.401 71.6647V68.6647H419.252V71.6647V74.6647H469.401V71.6647ZM419.252 71.6647H416.252V96.1784H419.252H422.252V71.6647H419.252ZM419.252 96.1784V99.1784H478.694V96.1784V93.1784H419.252V96.1784ZM478.694 96.1784H475.694V120.211H478.694H481.694V96.1784H478.694ZM478.694 120.211V117.211H390.893V120.211V123.211H478.694V120.211ZM491.5 120.211H488.5V123.211H491.5V120.211ZM491.5 5.65392V2.65392H488.5V5.65392H491.5ZM519.859 5.65392H522.859V2.65392H519.859V5.65392ZM519.859 96.1784H516.859V99.1784H519.859V96.1784ZM571.29 96.1784H574.29V93.1784H571.29V96.1784ZM571.29 120.211V123.211H574.29V120.211H571.29ZM491.5 120.211H494.5V5.65392H491.5H488.5V120.211H491.5ZM491.5 5.65392V8.65392H519.859V5.65392V2.65392H491.5V5.65392ZM519.859 5.65392H516.859V96.1784H519.859H522.859V5.65392H519.859ZM519.859 96.1784V99.1784H571.29V96.1784V93.1784H519.859V96.1784ZM571.29 96.1784H568.29V120.211H571.29H574.29V96.1784H571.29ZM571.29 120.211V117.211H491.5V120.211V123.211H571.29V120.211ZM662.461 13.5047L660.639 15.8878L660.649 15.8954L662.461 13.5047ZM679.605 45.0681V48.0681H682.961L682.586 44.7327L679.605 45.0681ZM651.246 45.0681L648.275 45.4859L648.638 48.0681H651.246V45.0681ZM652.047 80.4768V77.4768H649.375L649.067 80.1313L652.047 80.4768ZM680.406 80.4768L683.399 80.6875L683.625 77.4768H680.406V80.4768ZM666.627 109.797L664.55 107.632L664.545 107.637L666.627 109.797ZM629.937 122.775V119.775C613.897 119.775 600.564 113.797 591.227 103.858C581.875 93.9024 576.379 79.8045 576.379 63.3332H573.379H570.379C570.379 81.1491 576.339 96.7721 586.854 107.966C597.384 119.176 612.33 125.775 629.937 125.775V122.775ZM573.379 63.3332H576.379C576.379 46.9197 581.729 32.6939 590.99 22.6029C600.229 12.5367 613.513 6.41084 629.776 6.41084V3.41084V0.410839C611.913 0.410839 596.999 7.18271 586.57 18.546C576.164 29.8845 570.379 45.6198 570.379 63.3332H573.379ZM629.776 3.41084V6.41084C642.498 6.41084 653.053 10.0866 660.639 15.8878L662.461 13.5047L664.284 11.1216C655.527 4.42562 643.651 0.410839 629.776 0.410839V3.41084ZM662.461 13.5047L660.649 15.8954C669.843 22.8648 675.261 33.2891 676.624 45.4035L679.605 45.0681L682.586 44.7327C681.065 31.2119 674.947 19.2053 664.274 11.114L662.461 13.5047ZM679.605 45.0681V42.0681H651.246V45.0681V48.0681H679.605V45.0681ZM651.246 45.0681L654.217 44.6503C652.569 32.9347 643.308 23.9632 629.616 23.9632V26.9632V29.9632C640.278 29.9632 647.039 36.6934 648.275 45.4859L651.246 45.0681ZM629.616 26.9632V23.9632C619.355 23.9632 611.582 28.3177 606.487 35.6212C601.489 42.7868 599.219 52.557 599.219 63.3332H602.219H605.219C605.219 53.2808 607.354 44.866 611.408 39.0538C615.366 33.3794 621.292 29.9632 629.616 29.9632V26.9632ZM602.219 63.3332H599.219C599.219 74.2949 601.976 84.0244 607.219 91.0957C612.517 98.2421 620.279 102.543 629.776 102.543V99.543V96.543C622.29 96.543 616.273 93.2335 612.039 87.5222C607.748 81.7358 605.219 73.3605 605.219 63.3332H602.219ZM629.776 99.543V102.543C636.757 102.543 642.734 100.323 647.166 96.4024C651.592 92.4858 654.309 87.0187 655.027 80.8223L652.047 80.4768L649.067 80.1313C648.504 84.9901 646.414 89.0561 643.19 91.9088C639.971 94.7571 635.454 96.543 629.776 96.543V99.543ZM652.047 80.4768V83.4768H680.406V80.4768V77.4768H652.047V80.4768ZM680.406 80.4768L677.413 80.2661C676.666 90.8744 671.882 100.6 664.55 107.632L666.627 109.797L668.704 111.962C677.074 103.934 682.544 92.8305 683.399 80.6875L680.406 80.4768ZM666.627 109.797L664.545 107.637C656.402 115.484 645.51 119.775 629.937 119.775V122.775V125.775C646.728 125.775 659.228 121.094 668.709 111.957L666.627 109.797ZM742.595 99.8634V102.863C752.874 102.863 760.717 98.4147 765.88 91.0514C770.955 83.8146 773.313 73.9689 773.313 63.173H770.313H767.313C767.313 73.2057 765.106 81.7053 760.968 87.6066C756.918 93.3813 750.902 96.8634 742.595 96.8634V99.8634ZM770.313 63.173H773.313C773.313 52.377 770.955 42.4954 765.885 35.2216C760.727 27.8214 752.886 23.3223 742.595 23.3223V26.3223V29.3223C750.89 29.3223 756.908 32.8343 760.963 38.6523C765.106 44.5966 767.313 53.1403 767.313 63.173H770.313ZM742.595 26.3223V23.3223C732.382 23.3223 724.509 27.8231 719.296 35.2066C714.164 42.475 711.717 52.3574 711.717 63.173H714.717H717.717C717.717 53.16 719.996 44.617 724.197 38.6673C728.317 32.8326 734.384 29.3223 742.595 29.3223V26.3223ZM714.717 63.173H711.717C711.717 73.9887 714.164 83.8351 719.301 91.0663C724.52 98.413 732.393 102.863 742.595 102.863V99.8634V96.8634C734.372 96.8634 728.306 93.383 724.192 87.5916C719.996 81.6848 717.717 73.186 717.717 63.173H714.717ZM742.435 122.935V119.935C725.909 119.935 712.591 113.874 703.385 103.879C694.155 93.8587 688.877 79.68 688.877 63.173H685.877H682.877C682.877 80.9532 688.574 96.6556 698.972 107.944C709.393 119.259 724.354 125.935 742.435 125.935V122.935ZM685.877 63.173H688.877C688.877 46.666 694.155 32.4874 703.385 22.4667C712.591 12.472 725.909 6.41084 742.435 6.41084V3.41084V0.410839C724.354 0.410839 709.393 7.0872 698.972 18.4018C688.574 29.6904 682.877 45.3928 682.877 63.173H685.877ZM742.435 3.41084V6.41084C759.045 6.41084 772.404 12.4749 781.627 22.4689C790.875 32.4888 796.153 46.6661 796.153 63.173H799.153H802.153C802.153 45.3927 796.456 29.689 786.037 18.3996C775.593 7.08433 760.593 0.410839 742.435 0.410839V3.41084ZM799.153 63.173H796.153C796.153 79.6799 790.875 93.8572 781.627 103.877C772.404 113.871 759.045 119.935 742.435 119.935V122.935V125.935C760.593 125.935 775.593 119.262 786.037 107.946C796.456 96.657 802.153 80.9533 802.153 63.173H799.153ZM810.219 120.211H807.219V123.211H810.219V120.211ZM810.219 5.65392V2.65392H807.219V5.65392H810.219ZM848.352 5.65392L851.242 4.85052L850.632 2.65392H848.352V5.65392ZM862.291 55.8029L859.401 56.6063L859.405 56.6209L859.409 56.6355L862.291 55.8029ZM868.86 81.9188L865.941 82.6114L866.489 84.9188H868.86V81.9188ZM869.181 81.9188V84.9188H871.552L872.1 82.6114L869.181 81.9188ZM875.589 55.8029L872.701 54.9909L872.696 55.0104L872.691 55.0299L875.589 55.8029ZM889.689 5.65392V2.65392H887.416L886.801 4.84195L889.689 5.65392ZM928.142 5.65392H931.142V2.65392H928.142V5.65392ZM928.142 120.211V123.211H931.142V120.211H928.142ZM902.186 120.211H899.186V123.211H902.186V120.211ZM902.667 39.6206L905.666 39.6995L905.747 36.6206H902.667V39.6206ZM902.346 39.6206V36.6206H899.966L899.425 38.9381L902.346 39.6206ZM897.059 60.9299L894.192 60.0477L894.18 60.0864L894.169 60.1254L897.059 60.9299ZM880.556 120.211V123.211H882.835L883.446 121.016L880.556 120.211ZM857.164 120.211L854.272 121.011L854.881 123.211H857.164V120.211ZM840.822 61.0901L843.713 60.2908L843.702 60.2492L843.689 60.2079L840.822 61.0901ZM835.534 39.6206L838.457 38.9441L837.919 36.6206H835.534V39.6206ZM835.214 39.6206V36.6206H832.135L832.215 39.6989L835.214 39.6206ZM835.695 120.211V123.211H838.695V120.211H835.695ZM810.219 120.211H813.219V5.65392H810.219H807.219V120.211H810.219ZM810.219 5.65392V8.65392H848.352V5.65392V2.65392H810.219V5.65392ZM848.352 5.65392L845.461 6.45733L859.401 56.6063L862.291 55.8029L865.182 54.9995L851.242 4.85052L848.352 5.65392ZM862.291 55.8029L859.409 56.6355C860.431 60.172 862.059 66.6411 863.443 72.2799C864.133 75.0878 864.757 77.6714 865.21 79.5532C865.436 80.494 865.619 81.2591 865.745 81.7887C865.808 82.0536 865.857 82.2595 865.891 82.3991C865.907 82.4689 865.92 82.5221 865.928 82.5578C865.933 82.5757 865.936 82.5891 865.938 82.5981C865.939 82.6026 865.94 82.606 865.94 82.6082C865.941 82.6093 865.941 82.6101 865.941 82.6107C865.941 82.6109 865.941 82.6111 865.941 82.6112C865.941 82.6114 865.941 82.6114 868.86 81.9188C871.779 81.2262 871.779 81.2261 871.779 81.2259C871.779 81.2257 871.779 81.2255 871.779 81.2252C871.779 81.2246 871.779 81.2237 871.778 81.2225C871.778 81.2201 871.777 81.2166 871.776 81.212C871.773 81.2027 871.77 81.189 871.766 81.1708C871.757 81.1345 871.745 81.0807 871.728 81.0103C871.694 80.8694 871.645 80.6621 871.581 80.3959C871.454 79.8635 871.271 79.0952 871.044 78.1509C870.59 76.2625 869.963 73.669 869.27 70.8491C867.891 65.2325 866.234 58.6436 865.173 54.9703L862.291 55.8029ZM868.86 81.9188V84.9188H869.181V81.9188V78.9188H868.86V81.9188ZM869.181 81.9188C872.1 82.6114 872.1 82.6114 872.1 82.6112C872.1 82.6111 872.1 82.6109 872.1 82.6106C872.1 82.6101 872.1 82.6092 872.1 82.6081C872.101 82.6058 872.102 82.6024 872.103 82.5979C872.105 82.5889 872.108 82.5754 872.112 82.5574C872.121 82.5216 872.133 82.4683 872.15 82.3983C872.183 82.2585 872.232 82.0522 872.296 81.7871C872.422 81.2569 872.604 80.4911 872.829 79.5495C873.28 77.6663 873.9 75.0806 874.58 72.2702C875.943 66.6359 877.537 60.1413 878.488 56.5759L875.589 55.8029L872.691 55.0299C871.719 58.6743 870.108 65.2377 868.748 70.8589C868.066 73.6762 867.445 76.2676 866.994 78.1546C866.768 79.0981 866.585 79.8657 866.459 80.3975C866.395 80.6635 866.346 80.8705 866.313 81.011C866.296 81.0813 866.283 81.135 866.275 81.1712C866.27 81.1893 866.267 81.203 866.265 81.2122C866.264 81.2168 866.263 81.2202 866.262 81.2226C866.262 81.2237 866.262 81.2246 866.262 81.2252C866.262 81.2255 866.262 81.2258 866.262 81.2259C866.262 81.2261 866.262 81.2262 869.181 81.9188ZM875.589 55.8029L878.477 56.6148L892.577 6.46589L889.689 5.65392L886.801 4.84195L872.701 54.9909L875.589 55.8029ZM889.689 5.65392V8.65392H928.142V5.65392V2.65392H889.689V5.65392ZM928.142 5.65392H925.142V120.211H928.142H931.142V5.65392H928.142ZM928.142 120.211V117.211H902.186V120.211V123.211H928.142V120.211ZM902.186 120.211H905.186V62.5321H902.186H899.186V120.211H902.186ZM902.186 62.5321H905.186C905.186 60.2524 905.305 54.5665 905.425 49.404C905.485 46.8329 905.546 44.4066 905.591 42.6229C905.613 41.7311 905.632 41 905.645 40.492C905.652 40.238 905.657 40.0398 905.66 39.9051C905.662 39.8378 905.663 39.7864 905.664 39.7518C905.665 39.7345 905.665 39.7214 905.665 39.7126C905.665 39.7083 905.665 39.705 905.665 39.7028C905.666 39.7017 905.666 39.7009 905.666 39.7003C905.666 39.7001 905.666 39.6999 905.666 39.6997C905.666 39.6996 905.666 39.6995 902.667 39.6206C899.668 39.5417 899.668 39.5418 899.668 39.5419C899.668 39.5421 899.668 39.5423 899.668 39.5426C899.668 39.5431 899.668 39.544 899.668 39.5451C899.667 39.5474 899.667 39.5507 899.667 39.5551C899.667 39.564 899.667 39.5772 899.666 39.5946C899.665 39.6294 899.664 39.6811 899.662 39.7486C899.659 39.8838 899.654 40.0825 899.647 40.337C899.634 40.846 899.615 41.5783 899.592 42.4714C899.547 44.2576 899.487 46.688 899.427 49.264C899.307 54.3956 899.186 60.1654 899.186 62.5321H902.186ZM902.667 39.6206V36.6206H902.346V39.6206V42.6206H902.667V39.6206ZM902.346 39.6206C899.425 38.9381 899.425 38.9381 899.425 38.9382C899.425 38.9383 899.425 38.9385 899.425 38.9388C899.425 38.9392 899.424 38.94 899.424 38.941C899.424 38.943 899.423 38.9461 899.422 38.9501C899.42 38.9582 899.417 38.9704 899.414 38.9866C899.406 39.0189 899.395 39.067 899.38 39.13C899.35 39.256 899.307 39.4415 899.251 39.6793C899.139 40.155 898.978 40.8394 898.781 41.6739C898.386 43.3431 897.846 45.6112 897.267 48.0084C896.096 52.856 894.799 58.0745 894.192 60.0477L897.059 60.9299L899.926 61.8122C900.601 59.6196 901.948 54.1835 903.099 49.4178C903.682 47.0084 904.223 44.7303 904.62 43.0549C904.818 42.2171 904.98 41.5296 905.092 41.0514C905.148 40.8123 905.192 40.6255 905.222 40.4984C905.237 40.4348 905.248 40.3861 905.256 40.3533C905.26 40.3369 905.263 40.3244 905.264 40.316C905.265 40.3118 905.266 40.3086 905.267 40.3065C905.267 40.3054 905.267 40.3046 905.267 40.3041C905.267 40.3038 905.267 40.3036 905.267 40.3034C905.267 40.3033 905.268 40.3032 902.346 39.6206ZM897.059 60.9299L894.169 60.1254L877.666 119.407L880.556 120.211L883.446 121.016L899.949 61.7345L897.059 60.9299ZM880.556 120.211V117.211H857.164V120.211V123.211H880.556V120.211ZM857.164 120.211L860.056 119.412L843.713 60.2908L840.822 61.0901L837.93 61.8894L854.272 121.011L857.164 120.211ZM840.822 61.0901L843.689 60.2079C843.083 58.2382 841.786 52.9834 840.615 48.094C840.035 45.677 839.496 43.3889 839.101 41.7047C838.904 40.8628 838.743 40.1721 838.631 39.6922C838.575 39.4522 838.531 39.2649 838.502 39.1377C838.487 39.0742 838.476 39.0256 838.468 38.993C838.465 38.9767 838.462 38.9644 838.46 38.9562C838.459 38.9521 838.458 38.9491 838.458 38.947C838.457 38.946 838.457 38.9453 838.457 38.9448C838.457 38.9445 838.457 38.9443 838.457 38.9442C838.457 38.9441 838.457 38.9441 835.534 39.6206C832.612 40.2972 832.612 40.2973 832.612 40.2974C832.612 40.2976 832.612 40.2978 832.612 40.2981C832.612 40.2986 832.612 40.2994 832.612 40.3005C832.613 40.3027 832.614 40.3059 832.615 40.3101C832.617 40.3186 832.619 40.3312 832.623 40.3478C832.631 40.3809 832.642 40.43 832.657 40.4942C832.687 40.6226 832.731 40.8111 832.787 41.0524C832.899 41.535 833.061 42.2288 833.259 43.0741C833.656 44.7646 834.198 47.0628 834.78 49.4924C835.931 54.2964 837.279 59.7763 837.954 61.9724L840.822 61.0901ZM835.534 39.6206V36.6206H835.214V39.6206V42.6206H835.534V39.6206ZM835.214 39.6206C832.215 39.6989 832.215 39.6989 832.215 39.6991C832.215 39.6992 832.215 39.6994 832.215 39.6997C832.215 39.7002 832.215 39.701 832.215 39.7021C832.215 39.7043 832.215 39.7077 832.215 39.7121C832.215 39.7209 832.216 39.7341 832.216 39.7515C832.217 39.7864 832.219 39.8383 832.22 39.9063C832.224 40.0421 832.229 40.2421 832.236 40.4983C832.249 41.0106 832.267 41.7479 832.29 42.6473C832.335 44.446 832.395 46.8924 832.455 49.4836C832.576 54.6862 832.695 60.4124 832.695 62.6923H835.695H838.695C838.695 60.3259 838.573 54.5162 838.453 49.3446C838.393 46.7486 838.333 44.2983 838.288 42.4971C838.266 41.5965 838.247 40.858 838.234 40.3446C838.227 40.0879 838.222 39.8874 838.218 39.7511C838.216 39.6829 838.215 39.6308 838.214 39.5957C838.214 39.5781 838.213 39.5648 838.213 39.5559C838.213 39.5515 838.213 39.5481 838.213 39.5458C838.213 39.5447 838.213 39.5438 838.213 39.5433C838.213 39.543 838.213 39.5428 838.213 39.5426C838.213 39.5425 838.213 39.5424 835.214 39.6206ZM835.695 62.6923H832.695V120.211H835.695H838.695V62.6923H835.695ZM835.695 120.211V117.211H810.219V120.211V123.211H835.695V120.211ZM943.841 120.211H940.841V123.211H943.841V120.211ZM943.841 5.65392V2.65392H940.841V5.65392H943.841ZM1030.68 5.65392H1033.68V2.65392H1030.68V5.65392ZM1030.68 29.0461V32.0461H1033.68V29.0461H1030.68ZM972.2 29.0461V26.0461H969.2V29.0461H972.2ZM972.2 49.5543H969.2V52.5543H972.2V49.5543ZM1022.35 49.5543H1025.35V46.5543H1022.35V49.5543ZM1022.35 71.6647V74.6647H1025.35V71.6647H1022.35ZM972.2 71.6647V68.6647H969.2V71.6647H972.2ZM972.2 96.1784H969.2V99.1784H972.2V96.1784ZM1031.64 96.1784H1034.64V93.1784H1031.64V96.1784ZM1031.64 120.211V123.211H1034.64V120.211H1031.64ZM943.841 120.211H946.841V5.65392H943.841H940.841V120.211H943.841ZM943.841 5.65392V8.65392H1030.68V5.65392V2.65392H943.841V5.65392ZM1030.68 5.65392H1027.68V29.0461H1030.68H1033.68V5.65392H1030.68ZM1030.68 29.0461V26.0461H972.2V29.0461V32.0461H1030.68V29.0461ZM972.2 29.0461H969.2V49.5543H972.2H975.2V29.0461H972.2ZM972.2 49.5543V52.5543H1022.35V49.5543V46.5543H972.2V49.5543ZM1022.35 49.5543H1019.35V71.6647H1022.35H1025.35V49.5543H1022.35ZM1022.35 71.6647V68.6647H972.2V71.6647V74.6647H1022.35V71.6647ZM972.2 71.6647H969.2V96.1784H972.2H975.2V71.6647H972.2ZM972.2 96.1784V99.1784H1031.64V96.1784V93.1784H972.2V96.1784ZM1031.64 96.1784H1028.64V120.211H1031.64H1034.64V96.1784H1031.64ZM1031.64 120.211V117.211H943.841V120.211V123.211H1031.64V120.211ZM1097.52 120.211H1094.52V123.211H1097.52V120.211ZM1097.52 29.687H1100.52V26.687H1097.52V29.687ZM1064.2 29.687H1061.2V32.687H1064.2V29.687ZM1064.2 5.65392V2.65392H1061.2V5.65392H1064.2ZM1159.53 5.65392H1162.53V2.65392H1159.53V5.65392ZM1159.53 29.687V32.687H1162.53V29.687H1159.53ZM1125.88 29.687V26.687H1122.88V29.687H1125.88ZM1125.88 120.211V123.211H1128.88V120.211H1125.88ZM1097.52 120.211H1100.52V29.687H1097.52H1094.52V120.211H1097.52ZM1097.52 29.687V26.687H1064.2V29.687V32.687H1097.52V29.687ZM1064.2 29.687H1067.2V5.65392H1064.2H1061.2V29.687H1064.2ZM1064.2 5.65392V8.65392H1159.53V5.65392V2.65392H1064.2V5.65392ZM1159.53 5.65392H1156.53V29.687H1159.53H1162.53V5.65392H1159.53ZM1159.53 29.687V26.687H1125.88V29.687V32.687H1159.53V29.687ZM1125.88 29.687H1122.88V120.211H1125.88H1128.88V29.687H1125.88ZM1125.88 120.211V117.211H1097.52V120.211V123.211H1125.88V120.211ZM1217.31 99.8634V102.863C1227.59 102.863 1235.43 98.4147 1240.6 91.0514C1245.67 83.8146 1248.03 73.9689 1248.03 63.173H1245.03H1242.03C1242.03 73.2057 1239.82 81.7053 1235.68 87.6066C1231.63 93.3813 1225.62 96.8634 1217.31 96.8634V99.8634ZM1245.03 63.173H1248.03C1248.03 52.377 1245.67 42.4954 1240.6 35.2216C1235.44 27.8214 1227.6 23.3223 1217.31 23.3223V26.3223V29.3223C1225.61 29.3223 1231.62 32.8343 1235.68 38.6523C1239.82 44.5966 1242.03 53.1403 1242.03 63.173H1245.03ZM1217.31 26.3223V23.3223C1207.1 23.3223 1199.22 27.8231 1194.01 35.2066C1188.88 42.475 1186.43 52.3574 1186.43 63.173H1189.43H1192.43C1192.43 53.16 1194.71 44.617 1198.91 38.6673C1203.03 32.8326 1209.1 29.3223 1217.31 29.3223V26.3223ZM1189.43 63.173H1186.43C1186.43 73.9887 1188.88 83.8351 1194.02 91.0663C1199.23 98.413 1207.11 102.863 1217.31 102.863V99.8634V96.8634C1209.09 96.8634 1203.02 93.383 1198.91 87.5916C1194.71 81.6848 1192.43 73.186 1192.43 63.173H1189.43ZM1217.15 122.935V119.935C1200.62 119.935 1187.31 113.874 1178.1 103.879C1168.87 93.8587 1163.59 79.68 1163.59 63.173H1160.59H1157.59C1157.59 80.9532 1163.29 96.6556 1173.69 107.944C1184.11 119.259 1199.07 125.935 1217.15 125.935V122.935ZM1160.59 63.173H1163.59C1163.59 46.666 1168.87 32.4874 1178.1 22.4667C1187.31 12.472 1200.62 6.41084 1217.15 6.41084V3.41084V0.410839C1199.07 0.410839 1184.11 7.0872 1173.69 18.4018C1163.29 29.6904 1157.59 45.3928 1157.59 63.173H1160.59ZM1217.15 3.41084V6.41084C1233.76 6.41084 1247.12 12.4749 1256.34 22.4689C1265.59 32.4888 1270.87 46.6661 1270.87 63.173H1273.87H1276.87C1276.87 45.3927 1271.17 29.689 1260.75 18.3996C1250.31 7.08433 1235.31 0.410839 1217.15 0.410839V3.41084ZM1273.87 63.173H1270.87C1270.87 79.6799 1265.59 93.8572 1256.34 103.877C1247.12 113.871 1233.76 119.935 1217.15 119.935V122.935V125.935C1235.31 125.935 1250.31 119.262 1260.75 107.946C1271.17 96.657 1276.87 80.9533 1276.87 63.173H1273.87ZM36.9257 280.211H33.9257V283.211H36.9257V280.211ZM36.9257 189.687H39.9257V186.687H36.9257V189.687ZM3.5999 189.687H0.599905V192.687H3.5999V189.687ZM3.5999 165.654V162.654H0.599905V165.654H3.5999ZM98.931 165.654H101.931V162.654H98.931V165.654ZM98.931 189.687V192.687H101.931V189.687H98.931ZM65.2847 189.687V186.687H62.2847V189.687H65.2847ZM65.2847 280.211V283.211H68.2847V280.211H65.2847ZM36.9257 280.211H39.9257V189.687H36.9257H33.9257V280.211H36.9257ZM36.9257 189.687V186.687H3.5999V189.687V192.687H36.9257V189.687ZM3.5999 189.687H6.5999V165.654H3.5999H0.599905V189.687H3.5999ZM3.5999 165.654V168.654H98.931V165.654V162.654H3.5999V165.654ZM98.931 165.654H95.931V189.687H98.931H101.931V165.654H98.931ZM98.931 189.687V186.687H65.2847V189.687V192.687H98.931V189.687ZM65.2847 189.687H62.2847V280.211H65.2847H68.2847V189.687H65.2847ZM65.2847 280.211V277.211H36.9257V280.211V283.211H65.2847V280.211ZM109.49 280.211H106.49V283.211H109.49V280.211ZM109.49 165.654V162.654H106.49V165.654H109.49ZM137.849 165.654H140.849V162.654H137.849V165.654ZM137.849 209.074H134.849V212.074H137.849V209.074ZM178.065 209.074V212.074H181.065V209.074H178.065ZM178.065 165.654V162.654H175.065V165.654H178.065ZM206.424 165.654H209.424V162.654H206.424V165.654ZM206.424 280.211V283.211H209.424V280.211H206.424ZM178.065 280.211H175.065V283.211H178.065V280.211ZM178.065 232.466H181.065V229.466H178.065V232.466ZM137.849 232.466V229.466H134.849V232.466H137.849ZM137.849 280.211V283.211H140.849V280.211H137.849ZM109.49 280.211H112.49V165.654H109.49H106.49V280.211H109.49ZM109.49 165.654V168.654H137.849V165.654V162.654H109.49V165.654ZM137.849 165.654H134.849V209.074H137.849H140.849V165.654H137.849ZM137.849 209.074V212.074H178.065V209.074V206.074H137.849V209.074ZM178.065 209.074H181.065V165.654H178.065H175.065V209.074H178.065ZM178.065 165.654V168.654H206.424V165.654V162.654H178.065V165.654ZM206.424 165.654H203.424V280.211H206.424H209.424V165.654H206.424ZM206.424 280.211V277.211H178.065V280.211V283.211H206.424V280.211ZM178.065 280.211H181.065V232.466H178.065H175.065V280.211H178.065ZM178.065 232.466V229.466H137.849V232.466V235.466H178.065V232.466ZM137.849 232.466H134.849V280.211H137.849H140.849V232.466H137.849ZM137.849 280.211V277.211H109.49V280.211V283.211H137.849V280.211ZM222.145 280.211H219.145V283.211H222.145V280.211ZM222.145 165.654V162.654H219.145V165.654H222.145ZM308.985 165.654H311.985V162.654H308.985V165.654ZM308.985 189.046V192.046H311.985V189.046H308.985ZM250.504 189.046V186.046H247.504V189.046H250.504ZM250.504 209.554H247.504V212.554H250.504V209.554ZM300.653 209.554H303.653V206.554H300.653V209.554ZM300.653 231.665V234.665H303.653V231.665H300.653ZM250.504 231.665V228.665H247.504V231.665H250.504ZM250.504 256.178H247.504V259.178H250.504V256.178ZM309.946 256.178H312.946V253.178H309.946V256.178ZM309.946 280.211V283.211H312.946V280.211H309.946ZM222.145 280.211H225.145V165.654H222.145H219.145V280.211H222.145ZM222.145 165.654V168.654H308.985V165.654V162.654H222.145V165.654ZM308.985 165.654H305.985V189.046H308.985H311.985V165.654H308.985ZM308.985 189.046V186.046H250.504V189.046V192.046H308.985V189.046ZM250.504 189.046H247.504V209.554H250.504H253.504V189.046H250.504ZM250.504 209.554V212.554H300.653V209.554V206.554H250.504V209.554ZM300.653 209.554H297.653V231.665H300.653H303.653V209.554H300.653ZM300.653 231.665V228.665H250.504V231.665V234.665H300.653V231.665ZM250.504 231.665H247.504V256.178H250.504H253.504V231.665H250.504ZM250.504 256.178V259.178H309.946V256.178V253.178H250.504V256.178ZM309.946 256.178H306.946V280.211H309.946H312.946V256.178H309.946ZM309.946 280.211V277.211H222.145V280.211V283.211H309.946V280.211ZM347.63 280.211H344.63V283.211H347.63V280.211ZM347.63 165.654V162.654H344.63V165.654H347.63ZM376.15 165.654L378.733 164.128L377.862 162.654H376.15V165.654ZM410.116 223.173L412.745 221.727L412.723 221.687L412.7 221.648L410.116 223.173ZM417.967 237.753L415.322 239.169L416.17 240.753H417.967V237.753ZM418.288 237.753V240.753H421.358L421.287 237.683L418.288 237.753ZM417.967 165.654V162.654H414.967V165.654H417.967ZM445.685 165.654H448.685V162.654H445.685V165.654ZM445.685 280.211V283.211H448.685V280.211H445.685ZM417.166 280.211L414.586 281.742L415.458 283.211H417.166V280.211ZM383.52 223.493L386.1 221.963L386.079 221.927L386.056 221.891L383.52 223.493ZM375.349 208.112L378.025 206.757L377.192 205.112H375.349V208.112ZM375.028 208.112V205.112H371.962L372.029 208.178L375.028 208.112ZM375.349 280.211V283.211H378.349V280.211H375.349ZM347.63 280.211H350.63V165.654H347.63H344.63V280.211H347.63ZM347.63 165.654V168.654H376.15V165.654V162.654H347.63V165.654ZM376.15 165.654L373.566 167.179L407.533 224.698L410.116 223.173L412.7 221.648L378.733 164.128L376.15 165.654ZM410.116 223.173L407.488 224.619C408.36 226.205 410.315 229.835 412.06 233.084C412.93 234.705 413.746 236.227 414.344 237.343C414.643 237.901 414.888 238.357 415.057 238.674C415.142 238.833 415.208 238.956 415.253 239.04C415.276 239.082 415.293 239.115 415.305 239.136C415.31 239.147 415.315 239.155 415.318 239.16C415.319 239.163 415.32 239.165 415.321 239.167C415.321 239.167 415.322 239.168 415.322 239.168C415.322 239.168 415.322 239.168 415.322 239.169C415.322 239.169 415.322 239.169 417.967 237.753C420.612 236.337 420.612 236.337 420.612 236.337C420.612 236.337 420.612 236.337 420.612 236.337C420.612 236.337 420.611 236.336 420.611 236.335C420.61 236.334 420.609 236.332 420.608 236.329C420.605 236.324 420.6 236.315 420.595 236.305C420.583 236.283 420.566 236.251 420.543 236.209C420.498 236.124 420.432 236.001 420.347 235.842C420.177 235.524 419.932 235.067 419.633 234.509C419.034 233.391 418.217 231.869 417.346 230.245C415.606 227.006 413.635 223.346 412.745 221.727L410.116 223.173ZM417.967 237.753V240.753H418.288V237.753V234.753H417.967V237.753ZM418.288 237.753C421.287 237.683 421.287 237.683 421.287 237.683C421.287 237.683 421.287 237.683 421.287 237.683C421.287 237.682 421.287 237.682 421.287 237.681C421.287 237.679 421.287 237.677 421.286 237.673C421.286 237.667 421.286 237.657 421.286 237.644C421.285 237.618 421.284 237.579 421.283 237.528C421.281 237.427 421.277 237.277 421.273 237.085C421.264 236.701 421.252 236.147 421.237 235.471C421.207 234.118 421.167 232.272 421.127 230.302C421.046 226.346 420.967 221.934 420.967 219.969H417.967H414.967C414.967 222.009 415.048 226.489 415.128 230.424C415.168 232.399 415.208 234.248 415.238 235.604C415.253 236.282 415.266 236.836 415.275 237.221C415.279 237.414 415.282 237.564 415.285 237.666C415.286 237.717 415.287 237.757 415.287 237.783C415.288 237.796 415.288 237.806 415.288 237.813C415.288 237.816 415.288 237.819 415.288 237.82C415.288 237.821 415.288 237.822 415.288 237.822C415.288 237.822 415.288 237.823 415.288 237.823C415.288 237.823 415.288 237.823 418.288 237.753ZM417.967 219.969H420.967V165.654H417.967H414.967V219.969H417.967ZM417.967 165.654V168.654H445.685V165.654V162.654H417.967V165.654ZM445.685 165.654H442.685V280.211H445.685H448.685V165.654H445.685ZM445.685 280.211V277.211H417.166V280.211V283.211H445.685V280.211ZM417.166 280.211L419.746 278.681L386.1 221.963L383.52 223.493L380.94 225.024L414.586 281.742L417.166 280.211ZM383.52 223.493L386.056 221.891C385.178 220.501 383.202 216.789 381.375 213.277C380.477 211.552 379.64 209.922 379.026 208.721C378.719 208.122 378.468 207.63 378.295 207.288C378.208 207.117 378.14 206.984 378.094 206.894C378.071 206.849 378.054 206.814 378.042 206.791C378.036 206.78 378.032 206.771 378.029 206.765C378.028 206.762 378.027 206.76 378.026 206.759C378.025 206.758 378.025 206.758 378.025 206.757C378.025 206.757 378.025 206.757 378.025 206.757C378.025 206.757 378.025 206.757 375.349 208.112C372.672 209.468 372.672 209.468 372.672 209.468C372.672 209.468 372.672 209.468 372.673 209.469C372.673 209.469 372.673 209.47 372.673 209.47C372.674 209.472 372.675 209.474 372.677 209.477C372.68 209.483 372.685 209.492 372.691 209.504C372.703 209.528 372.721 209.563 372.744 209.609C372.791 209.701 372.859 209.836 372.947 210.008C373.122 210.353 373.375 210.849 373.684 211.454C374.302 212.662 375.146 214.305 376.052 216.046C377.829 219.463 379.939 223.442 380.983 225.095L383.52 223.493ZM375.349 208.112V205.112H375.028V208.112V211.112H375.349V208.112ZM375.028 208.112C372.029 208.178 372.029 208.178 372.029 208.178C372.029 208.178 372.029 208.178 372.029 208.178C372.029 208.179 372.029 208.179 372.029 208.18C372.029 208.182 372.029 208.185 372.029 208.188C372.029 208.195 372.029 208.206 372.03 208.22C372.03 208.248 372.031 208.289 372.032 208.343C372.035 208.452 372.038 208.612 372.043 208.817C372.051 209.228 372.064 209.819 372.079 210.54C372.109 211.984 372.149 213.95 372.189 216.041C372.269 220.238 372.349 224.891 372.349 226.858H375.349H378.349C378.349 224.82 378.268 220.1 378.188 215.926C378.148 213.831 378.108 211.861 378.077 210.416C378.062 209.693 378.05 209.101 378.041 208.69C378.037 208.484 378.033 208.323 378.031 208.214C378.03 208.16 378.029 208.118 378.028 208.09C378.028 208.076 378.028 208.065 378.028 208.058C378.028 208.054 378.027 208.052 378.027 208.05C378.027 208.049 378.027 208.048 378.027 208.048C378.027 208.048 378.027 208.047 378.027 208.047C378.027 208.047 378.027 208.047 375.028 208.112ZM375.349 226.858H372.349V280.211H375.349H378.349V226.858H375.349ZM375.349 280.211V277.211H347.63V280.211V283.211H375.349V280.211ZM461.381 280.211H458.381V283.211H461.381V280.211ZM461.381 165.654V162.654H458.381V165.654H461.381ZM548.22 165.654H551.22V162.654H548.22V165.654ZM548.22 189.046V192.046H551.22V189.046H548.22ZM489.74 189.046V186.046H486.74V189.046H489.74ZM489.74 209.554H486.74V212.554H489.74V209.554ZM539.888 209.554H542.888V206.554H539.888V209.554ZM539.888 231.665V234.665H542.888V231.665H539.888ZM489.74 231.665V228.665H486.74V231.665H489.74ZM489.74 256.178H486.74V259.178H489.74V256.178ZM549.181 256.178H552.181V253.178H549.181V256.178ZM549.181 280.211V283.211H552.181V280.211H549.181ZM461.381 280.211H464.381V165.654H461.381H458.381V280.211H461.381ZM461.381 165.654V168.654H548.22V165.654V162.654H461.381V165.654ZM548.22 165.654H545.22V189.046H548.22H551.22V165.654H548.22ZM548.22 189.046V186.046H489.74V189.046V192.046H548.22V189.046ZM489.74 189.046H486.74V209.554H489.74H492.74V189.046H489.74ZM489.74 209.554V212.554H539.888V209.554V206.554H489.74V209.554ZM539.888 209.554H536.888V231.665H539.888H542.888V209.554H539.888ZM539.888 231.665V228.665H489.74V231.665V234.665H539.888V231.665ZM489.74 231.665H486.74V256.178H489.74H492.74V231.665H489.74ZM489.74 256.178V259.178H549.181V256.178V253.178H489.74V256.178ZM549.181 256.178H546.181V280.211H549.181H552.181V256.178H549.181ZM549.181 280.211V277.211H461.381V280.211V283.211H549.181V280.211ZM585.54 280.211L582.647 281.005L583.252 283.211H585.54V280.211ZM554.137 165.654V162.654H550.204L551.244 166.447L554.137 165.654ZM582.816 165.654L585.733 164.954L585.181 162.654H582.816V165.654ZM594.352 213.72L597.275 213.042L597.272 213.031L597.269 213.02L594.352 213.72ZM599.639 242.079L596.676 242.545L597.075 245.079H599.639V242.079ZM599.96 242.079V245.079H602.434L602.905 242.65L599.96 242.079ZM605.568 214.842L608.496 215.492L608.498 215.481L605.568 214.842ZM616.302 165.654V162.654H613.886L613.371 165.014L616.302 165.654ZM642.578 165.654L645.508 165.01L644.991 162.654H642.578V165.654ZM653.313 214.521L656.244 213.879L656.243 213.877L653.313 214.521ZM658.761 242.079L655.809 242.616L656.257 245.079H658.761V242.079ZM659.081 242.079V245.079H661.577L662.031 242.625L659.081 242.079ZM664.849 213.4L661.931 212.704L661.926 212.722L661.922 212.74L664.849 213.4ZM676.225 165.654V162.654H673.855L673.306 164.959L676.225 165.654ZM704.744 165.654L707.637 166.447L708.677 162.654H704.744V165.654ZM673.341 280.211V283.211H675.629L676.234 281.005L673.341 280.211ZM645.623 280.211L642.692 280.852L643.208 283.211H645.623V280.211ZM633.606 225.256L636.537 224.615L636.534 224.602L636.531 224.589L633.606 225.256ZM629.601 203.947L632.564 203.479L632.164 200.947H629.601V203.947ZM629.28 203.947V200.947H626.717L626.317 203.479L629.28 203.947ZM625.435 225.256L628.366 225.897L628.368 225.885L628.37 225.874L625.435 225.256ZM613.418 280.211V283.211H615.833L616.349 280.852L613.418 280.211ZM585.54 280.211L588.433 279.418L557.03 164.861L554.137 165.654L551.244 166.447L582.647 281.005L585.54 280.211ZM554.137 165.654V168.654H582.816V165.654V162.654H554.137V165.654ZM582.816 165.654L579.899 166.354L591.435 214.42L594.352 213.72L597.269 213.02L585.733 164.954L582.816 165.654ZM594.352 213.72L591.43 214.398C592.692 219.842 594.003 226.866 595.002 232.564C595.501 235.405 595.919 237.903 596.214 239.69C596.361 240.583 596.476 241.298 596.555 241.79C596.595 242.035 596.625 242.225 596.645 242.353C596.656 242.417 596.663 242.465 596.668 242.498C596.671 242.514 596.673 242.526 596.674 242.534C596.675 242.538 596.675 242.541 596.675 242.543C596.676 242.544 596.676 242.545 596.676 242.545C596.676 242.545 596.676 242.545 596.676 242.545C596.676 242.545 596.676 242.545 599.639 242.079C602.603 241.613 602.603 241.612 602.603 241.612C602.603 241.612 602.603 241.612 602.603 241.611C602.603 241.611 602.602 241.61 602.602 241.609C602.602 241.607 602.601 241.603 602.601 241.599C602.599 241.59 602.597 241.577 602.595 241.56C602.589 241.527 602.581 241.477 602.571 241.411C602.55 241.28 602.519 241.087 602.479 240.838C602.399 240.34 602.282 239.617 602.134 238.715C601.837 236.912 601.415 234.393 600.912 231.527C599.909 225.808 598.576 218.653 597.275 213.042L594.352 213.72ZM599.639 242.079V245.079H599.96V242.079V239.079H599.639V242.079ZM599.96 242.079C602.905 242.65 602.905 242.65 602.905 242.65C602.905 242.65 602.905 242.65 602.905 242.649C602.905 242.649 602.905 242.648 602.905 242.647C602.906 242.646 602.906 242.643 602.907 242.639C602.909 242.632 602.911 242.62 602.914 242.606C602.919 242.576 602.928 242.531 602.939 242.473C602.962 242.356 602.996 242.182 603.04 241.957C603.128 241.506 603.257 240.85 603.419 240.025C603.744 238.376 604.203 236.057 604.743 233.379C605.823 228.017 607.221 221.231 608.496 215.492L605.568 214.842L602.639 214.191C601.351 219.988 599.944 226.82 598.861 232.194C598.32 234.882 597.858 237.21 597.532 238.866C597.369 239.693 597.24 240.353 597.151 240.807C597.107 241.033 597.073 241.208 597.05 241.327C597.038 241.386 597.03 241.431 597.024 241.462C597.021 241.477 597.018 241.488 597.017 241.496C597.016 241.5 597.016 241.503 597.015 241.505C597.015 241.506 597.015 241.507 597.015 241.507C597.015 241.507 597.015 241.508 597.015 241.508C597.015 241.508 597.015 241.508 599.96 242.079ZM605.568 214.842L608.498 215.481L619.233 166.294L616.302 165.654L613.371 165.014L602.636 214.202L605.568 214.842ZM616.302 165.654V168.654H642.578V165.654V162.654H616.302V165.654ZM642.578 165.654L639.648 166.298L650.383 215.165L653.313 214.521L656.243 213.877L645.508 165.01L642.578 165.654ZM653.313 214.521L650.383 215.163C651.656 220.973 653.012 227.832 654.052 233.251C654.571 235.958 655.011 238.301 655.32 239.966C655.475 240.799 655.598 241.462 655.681 241.917C655.723 242.144 655.755 242.319 655.776 242.437C655.787 242.496 655.795 242.541 655.801 242.571C655.804 242.586 655.806 242.597 655.807 242.605C655.808 242.608 655.808 242.611 655.809 242.613C655.809 242.614 655.809 242.615 655.809 242.615C655.809 242.615 655.809 242.615 655.809 242.616C655.809 242.616 655.809 242.616 658.761 242.079C661.712 241.542 661.712 241.542 661.712 241.542C661.712 241.542 661.712 241.542 661.712 241.541C661.712 241.541 661.712 241.54 661.712 241.539C661.711 241.537 661.711 241.534 661.71 241.53C661.709 241.522 661.706 241.511 661.704 241.495C661.698 241.464 661.69 241.419 661.679 241.359C661.657 241.239 661.624 241.062 661.582 240.833C661.498 240.374 661.375 239.707 661.219 238.87C660.908 237.195 660.466 234.841 659.944 232.121C658.901 226.685 657.534 219.765 656.244 213.879L653.313 214.521ZM658.761 242.079V245.079H659.081V242.079V239.079H658.761V242.079ZM659.081 242.079C662.031 242.625 662.031 242.625 662.031 242.625C662.031 242.625 662.031 242.625 662.031 242.625C662.031 242.624 662.031 242.623 662.031 242.622C662.032 242.62 662.032 242.617 662.033 242.613C662.035 242.605 662.037 242.593 662.04 242.576C662.046 242.544 662.055 242.495 662.067 242.431C662.091 242.302 662.127 242.111 662.173 241.865C662.265 241.371 662.4 240.653 662.57 239.755C662.909 237.959 663.389 235.447 663.948 232.58C665.069 226.838 666.504 219.703 667.776 214.059L664.849 213.4L661.922 212.74C660.631 218.472 659.182 225.677 658.059 231.431C657.497 234.311 657.015 236.836 656.674 238.64C656.503 239.542 656.368 240.265 656.275 240.762C656.228 241.01 656.193 241.203 656.168 241.333C656.156 241.398 656.147 241.448 656.141 241.482C656.138 241.498 656.135 241.511 656.134 241.52C656.133 241.524 656.132 241.527 656.132 241.529C656.132 241.53 656.131 241.531 656.131 241.532C656.131 241.532 656.131 241.532 656.131 241.532C656.131 241.533 656.131 241.533 659.081 242.079ZM664.849 213.4L667.767 214.095L679.143 166.349L676.225 165.654L673.306 164.959L661.931 212.704L664.849 213.4ZM676.225 165.654V168.654H704.744V165.654V162.654H676.225V165.654ZM704.744 165.654L701.851 164.861L670.447 279.418L673.341 280.211L676.234 281.005L707.637 166.447L704.744 165.654ZM673.341 280.211V277.211H645.623V280.211V283.211H673.341V280.211ZM645.623 280.211L648.553 279.571L636.537 224.615L633.606 225.256L630.675 225.897L642.692 280.852L645.623 280.211ZM633.606 225.256L636.531 224.589C635.506 220.094 634.514 214.823 633.776 210.654C633.408 208.574 633.104 206.777 632.893 205.501C632.787 204.864 632.705 204.357 632.649 204.009C632.621 203.836 632.599 203.702 632.585 203.613C632.578 203.568 632.573 203.534 632.569 203.511C632.567 203.5 632.566 203.492 632.565 203.486C632.565 203.484 632.564 203.482 632.564 203.48C632.564 203.48 632.564 203.479 632.564 203.479C632.564 203.479 632.564 203.479 632.564 203.479C632.564 203.479 632.564 203.479 629.601 203.947C626.637 204.414 626.637 204.415 626.637 204.415C626.637 204.415 626.637 204.415 626.637 204.415C626.637 204.416 626.638 204.416 626.638 204.417C626.638 204.419 626.638 204.421 626.639 204.425C626.64 204.431 626.641 204.44 626.643 204.452C626.647 204.476 626.653 204.512 626.66 204.558C626.675 204.652 626.697 204.789 626.726 204.966C626.783 205.32 626.867 205.836 626.974 206.482C627.188 207.775 627.495 209.594 627.868 211.699C628.612 215.901 629.623 221.285 630.681 225.923L633.606 225.256ZM629.601 203.947V200.947H629.28V203.947V206.947H629.601V203.947ZM629.28 203.947C626.317 203.479 626.317 203.479 626.317 203.479C626.317 203.479 626.317 203.479 626.317 203.479C626.317 203.479 626.317 203.48 626.317 203.48C626.316 203.482 626.316 203.484 626.316 203.487C626.315 203.492 626.313 203.501 626.312 203.512C626.308 203.535 626.302 203.569 626.295 203.614C626.281 203.704 626.26 203.838 626.232 204.012C626.176 204.36 626.094 204.868 625.989 205.507C625.78 206.785 625.481 208.584 625.122 210.667C624.403 214.841 623.449 220.126 622.499 224.638L625.435 225.256L628.37 225.874C629.343 221.254 630.312 215.884 631.035 211.686C631.397 209.583 631.699 207.767 631.91 206.477C632.016 205.831 632.099 205.317 632.156 204.963C632.184 204.786 632.206 204.65 632.221 204.557C632.228 204.511 632.234 204.475 632.237 204.451C632.239 204.44 632.241 204.43 632.242 204.424C632.242 204.421 632.243 204.419 632.243 204.417C632.243 204.416 632.243 204.416 632.243 204.415C632.243 204.415 632.243 204.415 632.243 204.415C632.243 204.415 632.243 204.414 629.28 203.947ZM625.435 225.256L622.504 224.615L610.488 279.571L613.418 280.211L616.349 280.852L628.366 225.897L625.435 225.256ZM613.418 280.211V277.211H585.54V280.211V283.211H613.418V280.211ZM737.541 280.211H734.541V283.211H737.541V280.211ZM737.541 165.654V162.654H734.541V165.654H737.541ZM824.381 165.654H827.381V162.654H824.381V165.654ZM824.381 189.046V192.046H827.381V189.046H824.381ZM765.9 189.046V186.046H762.9V189.046H765.9ZM765.9 209.554H762.9V212.554H765.9V209.554ZM816.049 209.554H819.049V206.554H816.049V209.554ZM816.049 231.665V234.665H819.049V231.665H816.049ZM765.9 231.665V228.665H762.9V231.665H765.9ZM765.9 256.178H762.9V259.178H765.9V256.178ZM825.342 256.178H828.342V253.178H825.342V256.178ZM825.342 280.211V283.211H828.342V280.211H825.342ZM737.541 280.211H740.541V165.654H737.541H734.541V280.211H737.541ZM737.541 165.654V168.654H824.381V165.654V162.654H737.541V165.654ZM824.381 165.654H821.381V189.046H824.381H827.381V165.654H824.381ZM824.381 189.046V186.046H765.9V189.046V192.046H824.381V189.046ZM765.9 189.046H762.9V209.554H765.9H768.9V189.046H765.9ZM765.9 209.554V212.554H816.049V209.554V206.554H765.9V209.554ZM816.049 209.554H813.049V231.665H816.049H819.049V209.554H816.049ZM816.049 231.665V228.665H765.9V231.665V234.665H816.049V231.665ZM765.9 231.665H762.9V256.178H765.9H768.9V231.665H765.9ZM765.9 256.178V259.178H825.342V256.178V253.178H765.9V256.178ZM825.342 256.178H822.342V280.211H825.342H828.342V256.178H825.342ZM825.342 280.211V277.211H737.541V280.211V283.211H825.342V280.211ZM920.238 173.505L918.415 175.888L918.425 175.895L920.238 173.505ZM937.381 205.068V208.068H940.738L940.362 204.733L937.381 205.068ZM909.022 205.068L906.051 205.486L906.415 208.068H909.022V205.068ZM909.823 240.477V237.477H907.151L906.843 240.131L909.823 240.477ZM938.182 240.477L941.175 240.688L941.401 237.477H938.182V240.477ZM924.403 269.797L922.327 267.632L922.322 267.637L924.403 269.797ZM887.713 282.775V279.775C871.673 279.775 858.34 273.797 849.003 263.858C839.651 253.902 834.155 239.805 834.155 223.333H831.155H828.155C828.155 241.149 834.115 256.772 844.63 267.966C855.161 279.176 870.106 285.775 887.713 285.775V282.775ZM831.155 223.333H834.155C834.155 206.92 839.506 192.694 848.767 182.603C858.005 172.537 871.289 166.411 887.553 166.411V163.411V160.411C869.69 160.411 854.775 167.183 844.346 178.546C833.94 189.884 828.155 205.62 828.155 223.333H831.155ZM887.553 163.411V166.411C900.275 166.411 910.829 170.087 918.415 175.888L920.238 173.505L922.06 171.122C913.304 164.426 901.427 160.411 887.553 160.411V163.411ZM920.238 173.505L918.425 175.895C927.619 182.865 933.037 193.289 934.4 205.404L937.381 205.068L940.362 204.733C938.841 191.212 932.724 179.205 922.05 171.114L920.238 173.505ZM937.381 205.068V202.068H909.022V205.068V208.068H937.381V205.068ZM909.022 205.068L911.993 204.65C910.345 192.935 901.084 183.963 887.392 183.963V186.963V189.963C898.054 189.963 904.815 196.693 906.051 205.486L909.022 205.068ZM887.392 186.963V183.963C877.132 183.963 869.358 188.318 864.263 195.621C859.265 202.787 856.995 212.557 856.995 223.333H859.995H862.995C862.995 213.281 865.13 204.866 869.185 199.054C873.143 193.379 879.068 189.963 887.392 189.963V186.963ZM859.995 223.333H856.995C856.995 234.295 859.752 244.024 864.995 251.096C870.294 258.242 878.055 262.543 887.553 262.543V259.543V256.543C880.067 256.543 874.049 253.233 869.815 247.522C865.525 241.736 862.995 233.36 862.995 223.333H859.995ZM887.553 259.543V262.543C894.533 262.543 900.51 260.323 904.942 256.402C909.368 252.486 912.085 247.019 912.803 240.822L909.823 240.477L906.843 240.131C906.28 244.99 904.19 249.056 900.966 251.909C897.747 254.757 893.23 256.543 887.553 256.543V259.543ZM909.823 240.477V243.477H938.182V240.477V237.477H909.823V240.477ZM938.182 240.477L935.19 240.266C934.443 250.874 929.659 260.6 922.327 267.632L924.403 269.797L926.48 271.962C934.85 263.934 940.32 252.83 941.175 240.688L938.182 240.477ZM924.403 269.797L922.322 267.637C914.178 275.484 903.286 279.775 887.713 279.775V282.775V285.775C904.504 285.775 917.004 281.094 926.485 271.957L924.403 269.797ZM1000.37 259.863V262.863C1010.65 262.863 1018.49 258.415 1023.66 251.051C1028.73 243.815 1031.09 233.969 1031.09 223.173H1028.09H1025.09C1025.09 233.206 1022.88 241.705 1018.74 247.607C1014.69 253.381 1008.68 256.863 1000.37 256.863V259.863ZM1028.09 223.173H1031.09C1031.09 212.377 1028.73 202.495 1023.66 195.222C1018.5 187.821 1010.66 183.322 1000.37 183.322V186.322V189.322C1008.67 189.322 1014.68 192.834 1018.74 198.652C1022.88 204.597 1025.09 213.14 1025.09 223.173H1028.09ZM1000.37 186.322V183.322C990.158 183.322 982.285 187.823 977.072 195.207C971.94 202.475 969.493 212.357 969.493 223.173H972.493H975.493C975.493 213.16 977.773 204.617 981.974 198.667C986.093 192.833 992.16 189.322 1000.37 189.322V186.322ZM972.493 223.173H969.493C969.493 233.989 971.94 243.835 977.077 251.066C982.296 258.413 990.17 262.863 1000.37 262.863V259.863V256.863C992.148 256.863 986.083 253.383 981.969 247.592C977.773 241.685 975.493 233.186 975.493 223.173H972.493ZM1000.21 282.935V279.935C983.685 279.935 970.367 273.874 961.161 263.879C951.932 253.859 946.654 239.68 946.654 223.173H943.654H940.654C940.654 240.953 946.351 256.656 956.748 267.944C967.169 279.259 982.13 285.935 1000.21 285.935V282.935ZM943.654 223.173H946.654C946.654 206.666 951.932 192.487 961.161 182.467C970.367 172.472 983.685 166.411 1000.21 166.411V163.411V160.411C982.13 160.411 967.169 167.087 956.748 178.402C946.351 189.69 940.654 205.393 940.654 223.173H943.654ZM1000.21 163.411V166.411C1016.82 166.411 1030.18 172.475 1039.4 182.469C1048.65 192.489 1053.93 206.666 1053.93 223.173H1056.93H1059.93C1059.93 205.393 1054.23 189.689 1043.81 178.4C1033.37 167.084 1018.37 160.411 1000.21 160.411V163.411ZM1056.93 223.173H1053.93C1053.93 239.68 1048.65 253.857 1039.4 263.877C1030.18 273.871 1016.82 279.935 1000.21 279.935V282.935V285.935C1018.37 285.935 1033.37 279.262 1043.81 267.946C1054.23 256.657 1059.93 240.953 1059.93 223.173H1056.93ZM1068 280.211H1065V283.211H1068V280.211ZM1068 165.654V162.654H1065V165.654H1068ZM1096.52 165.654L1099.1 164.128L1098.23 162.654H1096.52V165.654ZM1130.48 223.173L1133.11 221.727L1133.09 221.687L1133.06 221.648L1130.48 223.173ZM1138.33 237.753L1135.69 239.169L1136.54 240.753H1138.33V237.753ZM1138.65 237.753V240.753H1141.72L1141.65 237.683L1138.65 237.753ZM1138.33 165.654V162.654H1135.33V165.654H1138.33ZM1166.05 165.654H1169.05V162.654H1166.05V165.654ZM1166.05 280.211V283.211H1169.05V280.211H1166.05ZM1137.53 280.211L1134.95 281.742L1135.82 283.211H1137.53V280.211ZM1103.89 223.493L1106.47 221.963L1106.44 221.927L1106.42 221.891L1103.89 223.493ZM1095.71 208.112L1098.39 206.757L1097.56 205.112H1095.71V208.112ZM1095.39 208.112V205.112H1092.33L1092.39 208.178L1095.39 208.112ZM1095.71 280.211V283.211H1098.71V280.211H1095.71ZM1068 280.211H1071V165.654H1068H1065V280.211H1068ZM1068 165.654V168.654H1096.52V165.654V162.654H1068V165.654ZM1096.52 165.654L1093.93 167.179L1127.9 224.698L1130.48 223.173L1133.06 221.648L1099.1 164.128L1096.52 165.654ZM1130.48 223.173L1127.85 224.619C1128.73 226.205 1130.68 229.835 1132.43 233.084C1133.3 234.705 1134.11 236.227 1134.71 237.343C1135.01 237.901 1135.25 238.357 1135.42 238.674C1135.51 238.833 1135.57 238.956 1135.62 239.04C1135.64 239.082 1135.66 239.115 1135.67 239.136C1135.68 239.147 1135.68 239.155 1135.68 239.16C1135.68 239.163 1135.69 239.165 1135.69 239.167C1135.69 239.167 1135.69 239.168 1135.69 239.168C1135.69 239.168 1135.69 239.168 1135.69 239.169C1135.69 239.169 1135.69 239.169 1138.33 237.753C1140.98 236.337 1140.98 236.337 1140.98 236.337C1140.98 236.337 1140.98 236.337 1140.98 236.337C1140.98 236.337 1140.98 236.336 1140.98 236.335C1140.98 236.334 1140.97 236.332 1140.97 236.329C1140.97 236.324 1140.97 236.315 1140.96 236.305C1140.95 236.283 1140.93 236.251 1140.91 236.209C1140.86 236.124 1140.8 236.001 1140.71 235.842C1140.54 235.524 1140.3 235.067 1140 234.509C1139.4 233.391 1138.58 231.869 1137.71 230.245C1135.97 227.006 1134 223.346 1133.11 221.727L1130.48 223.173ZM1138.33 237.753V240.753H1138.65V237.753V234.753H1138.33V237.753ZM1138.65 237.753C1141.65 237.683 1141.65 237.683 1141.65 237.683C1141.65 237.683 1141.65 237.683 1141.65 237.683C1141.65 237.682 1141.65 237.682 1141.65 237.681C1141.65 237.679 1141.65 237.677 1141.65 237.673C1141.65 237.667 1141.65 237.657 1141.65 237.644C1141.65 237.618 1141.65 237.579 1141.65 237.528C1141.65 237.427 1141.64 237.277 1141.64 237.085C1141.63 236.701 1141.62 236.147 1141.6 235.471C1141.57 234.118 1141.53 232.272 1141.49 230.302C1141.41 226.346 1141.33 221.934 1141.33 219.969H1138.33H1135.33C1135.33 222.009 1135.41 226.489 1135.49 230.424C1135.53 232.399 1135.57 234.248 1135.6 235.604C1135.62 236.282 1135.63 236.836 1135.64 237.221C1135.64 237.414 1135.65 237.564 1135.65 237.666C1135.65 237.717 1135.65 237.757 1135.65 237.783C1135.65 237.796 1135.65 237.806 1135.65 237.813C1135.65 237.816 1135.65 237.819 1135.65 237.82C1135.65 237.821 1135.65 237.822 1135.65 237.822C1135.65 237.822 1135.65 237.823 1135.65 237.823C1135.65 237.823 1135.65 237.823 1138.65 237.753ZM1138.33 219.969H1141.33V165.654H1138.33H1135.33V219.969H1138.33ZM1138.33 165.654V168.654H1166.05V165.654V162.654H1138.33V165.654ZM1166.05 165.654H1163.05V280.211H1166.05H1169.05V165.654H1166.05ZM1166.05 280.211V277.211H1137.53V280.211V283.211H1166.05V280.211ZM1137.53 280.211L1140.11 278.681L1106.47 221.963L1103.89 223.493L1101.3 225.024L1134.95 281.742L1137.53 280.211ZM1103.89 223.493L1106.42 221.891C1105.54 220.501 1103.57 216.789 1101.74 213.277C1100.84 211.552 1100.01 209.922 1099.39 208.721C1099.08 208.122 1098.83 207.63 1098.66 207.288C1098.57 207.117 1098.51 206.984 1098.46 206.894C1098.44 206.849 1098.42 206.814 1098.41 206.791C1098.4 206.78 1098.4 206.771 1098.39 206.765C1098.39 206.762 1098.39 206.76 1098.39 206.759C1098.39 206.758 1098.39 206.758 1098.39 206.757C1098.39 206.757 1098.39 206.757 1098.39 206.757C1098.39 206.757 1098.39 206.757 1095.71 208.112C1093.04 209.468 1093.04 209.468 1093.04 209.468C1093.04 209.468 1093.04 209.468 1093.04 209.469C1093.04 209.469 1093.04 209.47 1093.04 209.47C1093.04 209.472 1093.04 209.474 1093.04 209.477C1093.05 209.483 1093.05 209.492 1093.06 209.504C1093.07 209.528 1093.09 209.563 1093.11 209.609C1093.16 209.701 1093.22 209.836 1093.31 210.008C1093.49 210.353 1093.74 210.849 1094.05 211.454C1094.67 212.662 1095.51 214.305 1096.42 216.046C1098.19 219.463 1100.3 223.442 1101.35 225.095L1103.89 223.493ZM1095.71 208.112V205.112H1095.39V208.112V211.112H1095.71V208.112ZM1095.39 208.112C1092.39 208.178 1092.39 208.178 1092.39 208.178C1092.39 208.178 1092.39 208.178 1092.39 208.178C1092.39 208.179 1092.39 208.179 1092.39 208.18C1092.39 208.182 1092.39 208.185 1092.39 208.188C1092.39 208.195 1092.39 208.206 1092.4 208.22C1092.4 208.248 1092.4 208.289 1092.4 208.343C1092.4 208.452 1092.4 208.612 1092.41 208.817C1092.42 209.228 1092.43 209.819 1092.44 210.54C1092.47 211.984 1092.51 213.95 1092.55 216.041C1092.63 220.238 1092.71 224.891 1092.71 226.858H1095.71H1098.71C1098.71 224.82 1098.63 220.1 1098.55 215.926C1098.51 213.831 1098.47 211.861 1098.44 210.416C1098.43 209.693 1098.42 209.101 1098.41 208.69C1098.4 208.484 1098.4 208.323 1098.4 208.214C1098.4 208.16 1098.39 208.118 1098.39 208.09C1098.39 208.076 1098.39 208.065 1098.39 208.058C1098.39 208.054 1098.39 208.052 1098.39 208.05C1098.39 208.049 1098.39 208.048 1098.39 208.048C1098.39 208.048 1098.39 208.047 1098.39 208.047C1098.39 208.047 1098.39 208.047 1095.39 208.112ZM1095.71 226.858H1092.71V280.211H1095.71H1098.71V226.858H1095.71ZM1095.71 280.211V277.211H1068V280.211V283.211H1095.71V280.211ZM1233.82 259.863V262.863C1244.1 262.863 1251.94 258.415 1257.1 251.051C1262.18 243.815 1264.54 233.969 1264.54 223.173H1261.54H1258.54C1258.54 233.206 1256.33 241.705 1252.19 247.607C1248.14 253.381 1242.12 256.863 1233.82 256.863V259.863ZM1261.54 223.173H1264.54C1264.54 212.377 1262.18 202.495 1257.11 195.222C1251.95 187.821 1244.11 183.322 1233.82 183.322V186.322V189.322C1242.11 189.322 1248.13 192.834 1252.18 198.652C1256.33 204.597 1258.54 213.14 1258.54 223.173H1261.54ZM1233.82 186.322V183.322C1223.6 183.322 1215.73 187.823 1210.52 195.207C1205.39 202.475 1202.94 212.357 1202.94 223.173H1205.94H1208.94C1208.94 213.16 1211.22 204.617 1215.42 198.667C1219.54 192.833 1225.61 189.322 1233.82 189.322V186.322ZM1205.94 223.173H1202.94C1202.94 233.989 1205.39 243.835 1210.52 251.066C1215.74 258.413 1223.62 262.863 1233.82 262.863V259.863V256.863C1225.59 256.863 1219.53 253.383 1215.41 247.592C1211.22 241.685 1208.94 233.186 1208.94 223.173H1205.94ZM1233.66 282.935V279.935C1217.13 279.935 1203.81 273.874 1194.61 263.879C1185.38 253.859 1180.1 239.68 1180.1 223.173H1177.1H1174.1C1174.1 240.953 1179.8 256.656 1190.19 267.944C1200.62 279.259 1215.58 285.935 1233.66 285.935V282.935ZM1177.1 223.173H1180.1C1180.1 206.666 1185.38 192.487 1194.61 182.467C1203.81 172.472 1217.13 166.411 1233.66 166.411V163.411V160.411C1215.58 160.411 1200.62 167.087 1190.19 178.402C1179.8 189.69 1174.1 205.393 1174.1 223.173H1177.1ZM1233.66 163.411V166.411C1250.27 166.411 1263.63 172.475 1272.85 182.469C1282.1 192.489 1287.38 206.666 1287.38 223.173H1290.38H1293.38C1293.38 205.393 1287.68 189.689 1277.26 178.4C1266.82 167.084 1251.81 160.411 1233.66 160.411V163.411ZM1290.38 223.173H1287.38C1287.38 239.68 1282.1 253.857 1272.85 263.877C1263.63 273.871 1250.27 279.935 1233.66 279.935V282.935V285.935C1251.81 285.935 1266.82 279.262 1277.26 267.946C1287.68 256.657 1293.38 240.953 1293.38 223.173H1290.38ZM1301.44 280.211H1298.44V283.211H1301.44V280.211ZM1301.44 165.654V162.654H1298.44V165.654H1301.44ZM1339.57 165.654L1342.46 164.851L1341.85 162.654H1339.57V165.654ZM1353.51 215.803L1350.62 216.606L1350.63 216.621L1350.63 216.635L1353.51 215.803ZM1360.08 241.919L1357.16 242.611L1357.71 244.919H1360.08V241.919ZM1360.4 241.919V244.919H1362.77L1363.32 242.611L1360.4 241.919ZM1366.81 215.803L1363.92 214.991L1363.92 215.01L1363.91 215.03L1366.81 215.803ZM1380.91 165.654V162.654H1378.64L1378.02 164.842L1380.91 165.654ZM1419.36 165.654H1422.36V162.654H1419.36V165.654ZM1419.36 280.211V283.211H1422.36V280.211H1419.36ZM1393.41 280.211H1390.41V283.211H1393.41V280.211ZM1393.89 199.621L1396.89 199.7L1396.97 196.621H1393.89V199.621ZM1393.57 199.621V196.621H1391.19L1390.65 198.938L1393.57 199.621ZM1388.28 220.93L1385.41 220.048L1385.4 220.086L1385.39 220.125L1388.28 220.93ZM1371.78 280.211V283.211H1374.06L1374.67 281.016L1371.78 280.211ZM1348.39 280.211L1345.49 281.011L1346.1 283.211H1348.39V280.211ZM1332.04 221.09L1334.94 220.291L1334.92 220.249L1334.91 220.208L1332.04 221.09ZM1326.76 199.621L1329.68 198.944L1329.14 196.621H1326.76V199.621ZM1326.44 199.621V196.621H1323.36L1323.44 199.699L1326.44 199.621ZM1326.92 280.211V283.211H1329.92V280.211H1326.92ZM1301.44 280.211H1304.44V165.654H1301.44H1298.44V280.211H1301.44ZM1301.44 165.654V168.654H1339.57V165.654V162.654H1301.44V165.654ZM1339.57 165.654L1336.68 166.457L1350.62 216.606L1353.51 215.803L1356.4 214.999L1342.46 164.851L1339.57 165.654ZM1353.51 215.803L1350.63 216.635C1351.65 220.172 1353.28 226.641 1354.67 232.28C1355.35 235.088 1355.98 237.671 1356.43 239.553C1356.66 240.494 1356.84 241.259 1356.97 241.789C1357.03 242.054 1357.08 242.26 1357.11 242.399C1357.13 242.469 1357.14 242.522 1357.15 242.558C1357.15 242.576 1357.16 242.589 1357.16 242.598C1357.16 242.603 1357.16 242.606 1357.16 242.608C1357.16 242.609 1357.16 242.61 1357.16 242.611C1357.16 242.611 1357.16 242.611 1357.16 242.611C1357.16 242.611 1357.16 242.611 1360.08 241.919C1363 241.226 1363 241.226 1363 241.226C1363 241.226 1363 241.225 1363 241.225C1363 241.225 1363 241.224 1363 241.222C1363 241.22 1363 241.217 1363 241.212C1363 241.203 1362.99 241.189 1362.99 241.171C1362.98 241.135 1362.97 241.081 1362.95 241.01C1362.92 240.869 1362.87 240.662 1362.8 240.396C1362.68 239.863 1362.49 239.095 1362.27 238.151C1361.81 236.263 1361.18 233.669 1360.49 230.849C1359.11 225.233 1357.46 218.644 1356.4 214.97L1353.51 215.803ZM1360.08 241.919V244.919H1360.4V241.919V238.919H1360.08V241.919ZM1360.4 241.919C1363.32 242.611 1363.32 242.611 1363.32 242.611C1363.32 242.611 1363.32 242.611 1363.32 242.611C1363.32 242.61 1363.32 242.609 1363.32 242.608C1363.32 242.606 1363.32 242.602 1363.32 242.598C1363.33 242.589 1363.33 242.575 1363.33 242.557C1363.34 242.522 1363.36 242.468 1363.37 242.398C1363.41 242.258 1363.45 242.052 1363.52 241.787C1363.64 241.257 1363.83 240.491 1364.05 239.55C1364.5 237.666 1365.12 235.081 1365.8 232.27C1367.17 226.636 1368.76 220.141 1369.71 216.576L1366.81 215.803L1363.91 215.03C1362.94 218.674 1361.33 225.238 1359.97 230.859C1359.29 233.676 1358.67 236.268 1358.22 238.155C1357.99 239.098 1357.81 239.866 1357.68 240.398C1357.62 240.663 1357.57 240.87 1357.53 241.011C1357.52 241.081 1357.51 241.135 1357.5 241.171C1357.49 241.189 1357.49 241.203 1357.49 241.212C1357.49 241.217 1357.49 241.22 1357.48 241.223C1357.48 241.224 1357.48 241.225 1357.48 241.225C1357.48 241.226 1357.48 241.226 1357.48 241.226C1357.48 241.226 1357.48 241.226 1360.4 241.919ZM1366.81 215.803L1369.7 216.615L1383.8 166.466L1380.91 165.654L1378.02 164.842L1363.92 214.991L1366.81 215.803ZM1380.91 165.654V168.654H1419.36V165.654V162.654H1380.91V165.654ZM1419.36 165.654H1416.36V280.211H1419.36H1422.36V165.654H1419.36ZM1419.36 280.211V277.211H1393.41V280.211V283.211H1419.36V280.211ZM1393.41 280.211H1396.41V222.532H1393.41H1390.41V280.211H1393.41ZM1393.41 222.532H1396.41C1396.41 220.252 1396.53 214.567 1396.65 209.404C1396.71 206.833 1396.77 204.407 1396.81 202.623C1396.84 201.731 1396.85 201 1396.87 200.492C1396.87 200.238 1396.88 200.04 1396.88 199.905C1396.88 199.838 1396.89 199.786 1396.89 199.752C1396.89 199.734 1396.89 199.721 1396.89 199.713C1396.89 199.708 1396.89 199.705 1396.89 199.703C1396.89 199.702 1396.89 199.701 1396.89 199.7C1396.89 199.7 1396.89 199.7 1396.89 199.7C1396.89 199.7 1396.89 199.7 1393.89 199.621C1390.89 199.542 1390.89 199.542 1390.89 199.542C1390.89 199.542 1390.89 199.542 1390.89 199.543C1390.89 199.543 1390.89 199.544 1390.89 199.545C1390.89 199.547 1390.89 199.551 1390.89 199.555C1390.89 199.564 1390.89 199.577 1390.89 199.595C1390.89 199.629 1390.89 199.681 1390.88 199.749C1390.88 199.884 1390.88 200.082 1390.87 200.337C1390.86 200.846 1390.84 201.578 1390.81 202.471C1390.77 204.258 1390.71 206.688 1390.65 209.264C1390.53 214.396 1390.41 220.165 1390.41 222.532H1393.41ZM1393.89 199.621V196.621H1393.57V199.621V202.621H1393.89V199.621ZM1393.57 199.621C1390.65 198.938 1390.65 198.938 1390.65 198.938C1390.65 198.938 1390.65 198.939 1390.65 198.939C1390.65 198.939 1390.65 198.94 1390.65 198.941C1390.65 198.943 1390.65 198.946 1390.64 198.95C1390.64 198.958 1390.64 198.97 1390.64 198.987C1390.63 199.019 1390.62 199.067 1390.6 199.13C1390.57 199.256 1390.53 199.442 1390.47 199.679C1390.36 200.155 1390.2 200.839 1390 201.674C1389.61 203.343 1389.07 205.611 1388.49 208.008C1387.32 212.856 1386.02 218.075 1385.41 220.048L1388.28 220.93L1391.15 221.812C1391.82 219.62 1393.17 214.183 1394.32 209.418C1394.9 207.008 1395.45 204.73 1395.84 203.055C1396.04 202.217 1396.2 201.53 1396.31 201.051C1396.37 200.812 1396.41 200.626 1396.44 200.498C1396.46 200.435 1396.47 200.386 1396.48 200.353C1396.48 200.337 1396.48 200.324 1396.49 200.316C1396.49 200.312 1396.49 200.309 1396.49 200.307C1396.49 200.305 1396.49 200.305 1396.49 200.304C1396.49 200.304 1396.49 200.304 1396.49 200.303C1396.49 200.303 1396.49 200.303 1393.57 199.621ZM1388.28 220.93L1385.39 220.125L1368.89 279.407L1371.78 280.211L1374.67 281.016L1391.17 221.734L1388.28 220.93ZM1371.78 280.211V277.211H1348.39V280.211V283.211H1371.78V280.211ZM1348.39 280.211L1351.28 279.412L1334.94 220.291L1332.04 221.09L1329.15 221.889L1345.49 281.011L1348.39 280.211ZM1332.04 221.09L1334.91 220.208C1334.3 218.238 1333.01 212.983 1331.84 208.094C1331.26 205.677 1330.72 203.389 1330.32 201.705C1330.13 200.863 1329.96 200.172 1329.85 199.692C1329.8 199.452 1329.75 199.265 1329.72 199.138C1329.71 199.074 1329.7 199.026 1329.69 198.993C1329.69 198.977 1329.68 198.964 1329.68 198.956C1329.68 198.952 1329.68 198.949 1329.68 198.947C1329.68 198.946 1329.68 198.945 1329.68 198.945C1329.68 198.945 1329.68 198.944 1329.68 198.944C1329.68 198.944 1329.68 198.944 1326.76 199.621C1323.83 200.297 1323.83 200.297 1323.83 200.297C1323.83 200.298 1323.83 200.298 1323.83 200.298C1323.83 200.299 1323.83 200.299 1323.83 200.301C1323.83 200.303 1323.84 200.306 1323.84 200.31C1323.84 200.319 1323.84 200.331 1323.85 200.348C1323.85 200.381 1323.86 200.43 1323.88 200.494C1323.91 200.623 1323.95 200.811 1324.01 201.052C1324.12 201.535 1324.28 202.229 1324.48 203.074C1324.88 204.765 1325.42 207.063 1326 209.492C1327.15 214.296 1328.5 219.776 1329.18 221.972L1332.04 221.09ZM1326.76 199.621V196.621H1326.44V199.621V202.621H1326.76V199.621ZM1326.44 199.621C1323.44 199.699 1323.44 199.699 1323.44 199.699C1323.44 199.699 1323.44 199.699 1323.44 199.7C1323.44 199.7 1323.44 199.701 1323.44 199.702C1323.44 199.704 1323.44 199.708 1323.44 199.712C1323.44 199.721 1323.44 199.734 1323.44 199.752C1323.44 199.786 1323.44 199.838 1323.44 199.906C1323.45 200.042 1323.45 200.242 1323.46 200.498C1323.47 201.011 1323.49 201.748 1323.51 202.647C1323.56 204.446 1323.62 206.892 1323.68 209.484C1323.8 214.686 1323.92 220.412 1323.92 222.692H1326.92H1329.92C1329.92 220.326 1329.8 214.516 1329.68 209.345C1329.62 206.749 1329.56 204.298 1329.51 202.497C1329.49 201.596 1329.47 200.858 1329.46 200.345C1329.45 200.088 1329.44 199.887 1329.44 199.751C1329.44 199.683 1329.44 199.631 1329.44 199.596C1329.44 199.578 1329.44 199.565 1329.44 199.556C1329.44 199.551 1329.44 199.548 1329.44 199.546C1329.44 199.545 1329.43 199.544 1329.43 199.543C1329.43 199.543 1329.43 199.543 1329.43 199.543C1329.43 199.542 1329.43 199.542 1326.44 199.621ZM1326.92 222.692H1323.92V280.211H1326.92H1329.92V222.692H1326.92ZM1326.92 280.211V277.211H1301.44V280.211V283.211H1326.92V280.211ZM1466.15 280.211H1463.15V283.211H1466.15V280.211ZM1466.15 237.913H1469.15V237.159L1468.79 236.495L1466.15 237.913ZM1427.37 165.654V162.654H1422.36L1424.73 167.072L1427.37 165.654ZM1458.29 165.654L1460.98 164.318L1460.15 162.654H1458.29V165.654ZM1473.04 195.295L1475.73 193.975L1475.73 193.967L1475.72 193.959L1473.04 195.295ZM1480.57 212.759L1477.76 213.832L1478.5 215.759H1480.57V212.759ZM1480.89 212.759V215.759H1482.89L1483.66 213.913L1480.89 212.759ZM1488.74 195.295L1486.04 193.971L1486.04 193.975L1488.74 195.295ZM1503.32 165.654V162.654H1501.45L1500.62 164.33L1503.32 165.654ZM1533.28 165.654L1535.92 167.072L1538.29 162.654H1533.28V165.654ZM1494.5 237.913L1491.86 236.495L1491.5 237.159V237.913H1494.5ZM1494.5 280.211V283.211H1497.5V280.211H1494.5ZM1466.15 280.211H1469.15V237.913H1466.15H1463.15V280.211H1466.15ZM1466.15 237.913L1468.79 236.495L1430.02 164.235L1427.37 165.654L1424.73 167.072L1463.5 239.332L1466.15 237.913ZM1427.37 165.654V168.654H1458.29V165.654V162.654H1427.37V165.654ZM1458.29 165.654L1455.61 166.99L1470.35 196.631L1473.04 195.295L1475.72 193.959L1460.98 164.318L1458.29 165.654ZM1473.04 195.295L1470.34 196.614C1472.22 200.458 1474.08 204.759 1475.47 208.119C1476.16 209.794 1476.74 211.226 1477.14 212.239C1477.34 212.745 1477.5 213.145 1477.6 213.418C1477.66 213.555 1477.7 213.66 1477.72 213.729C1477.74 213.764 1477.75 213.791 1477.75 213.808C1477.76 213.817 1477.76 213.823 1477.76 213.827C1477.76 213.829 1477.76 213.831 1477.76 213.832C1477.76 213.832 1477.76 213.832 1477.76 213.832C1477.76 213.833 1477.76 213.833 1477.76 213.833C1477.76 213.833 1477.76 213.832 1480.57 212.759C1483.37 211.685 1483.37 211.685 1483.37 211.685C1483.37 211.684 1483.37 211.684 1483.37 211.684C1483.37 211.684 1483.37 211.683 1483.37 211.682C1483.37 211.681 1483.36 211.679 1483.36 211.676C1483.36 211.671 1483.36 211.663 1483.35 211.654C1483.35 211.634 1483.34 211.605 1483.32 211.568C1483.29 211.493 1483.25 211.384 1483.2 211.242C1483.09 210.959 1482.92 210.547 1482.72 210.029C1482.31 208.994 1481.72 207.532 1481.01 205.823C1479.6 202.413 1477.69 197.982 1475.73 193.975L1473.04 195.295ZM1480.57 212.759V215.759H1480.89V212.759V209.759H1480.57V212.759ZM1480.89 212.759C1483.66 213.913 1483.66 213.913 1483.66 213.913C1483.66 213.913 1483.66 213.912 1483.66 213.912C1483.66 213.912 1483.66 213.912 1483.66 213.911C1483.66 213.91 1483.66 213.909 1483.66 213.907C1483.66 213.902 1483.66 213.896 1483.67 213.887C1483.67 213.869 1483.68 213.843 1483.7 213.807C1483.73 213.736 1483.77 213.631 1483.83 213.494C1483.95 213.219 1484.12 212.816 1484.33 212.308C1484.76 211.292 1485.38 209.855 1486.12 208.174C1487.59 204.806 1489.54 200.484 1491.43 196.614L1488.74 195.295L1486.04 193.975C1484.09 197.956 1482.11 202.366 1480.62 205.767C1479.88 207.471 1479.25 208.928 1478.81 209.96C1478.59 210.475 1478.42 210.885 1478.3 211.167C1478.24 211.308 1478.2 211.416 1478.16 211.49C1478.15 211.527 1478.14 211.556 1478.13 211.575C1478.13 211.584 1478.12 211.592 1478.12 211.597C1478.12 211.599 1478.12 211.601 1478.12 211.603C1478.12 211.603 1478.12 211.604 1478.12 211.604C1478.12 211.604 1478.12 211.604 1478.12 211.605C1478.12 211.605 1478.12 211.605 1480.89 212.759ZM1488.74 195.295L1491.43 196.619L1506.01 166.978L1503.32 165.654L1500.62 164.33L1486.04 193.971L1488.74 195.295ZM1503.32 165.654V168.654H1533.28V165.654V162.654H1503.32V165.654ZM1533.28 165.654L1530.63 164.235L1491.86 236.495L1494.5 237.913L1497.15 239.332L1535.92 167.072L1533.28 165.654ZM1494.5 237.913H1491.5V280.211H1494.5H1497.5V237.913H1494.5ZM1494.5 280.211V277.211H1466.15V280.211V283.211H1494.5V280.211Z" fill="white" mask="url(#path-1-outside-1_4477_5541)"/>
</g>
</svg>
