<svg width="17" height="17" viewBox="0 0 17 17" fill="none" xmlns="http://www.w3.org/2000/svg">
<g clip-path="url(#clip0_4639_2988)">
<path d="M14.1465 11.5V14.5H3.14648V3H8.14648V2H3.14648C2.88127 2 2.62691 2.10536 2.43938 2.29289C2.25184 2.48043 2.14648 2.73478 2.14648 3V14.5C2.14648 14.7652 2.25184 15.0196 2.43938 15.2071C2.62691 15.3946 2.88127 15.5 3.14648 15.5H14.1465C14.4117 15.5 14.6661 15.3946 14.8536 15.2071C15.0411 15.0196 15.1465 14.7652 15.1465 14.5V11.5H14.1465Z" fill="white"/>
<path d="M15.4165 3.88003L13.7665 2.23003C13.6169 2.08345 13.4159 2.00134 13.2065 2.00134C12.9971 2.00134 12.796 2.08345 12.6465 2.23003L5.64648 9.23003V12H8.41148L15.4115 5.00003C15.5581 4.85049 15.6402 4.64943 15.6402 4.44003C15.6402 4.23063 15.5581 4.02957 15.4115 3.88003H15.4165ZM7.99648 11H6.64648V9.65003L11.3665 4.92503L12.7215 6.28003L7.99648 11ZM13.4265 5.57503L12.0715 4.22003L13.2065 3.08503L14.5615 4.44003L13.4265 5.57503Z" fill="white"/>
</g>
<defs>
<clipPath id="clip0_4639_2988">
<rect width="16" height="16" fill="white" transform="translate(0.646484 0.5)"/>
</clipPath>
</defs>
</svg>
