<svg width="24" height="701" viewBox="0 0 24 701" fill="none" xmlns="http://www.w3.org/2000/svg">
<g clip-path="url(#clip0_5292_25291)">
<g clip-path="url(#clip1_5292_25291)">
<path d="M15.8017 676.11L15.8017 673.465L13.1588 673.465L10.5138 673.465L7.87079 673.465L5.22851 673.465L5.22851 676.11L5.22851 678.753L5.22852 681.395L5.22852 684.041L7.87079 684.041L7.87079 681.395L7.87079 678.753L10.5138 678.753L10.5138 676.11L13.1588 676.11L15.8017 676.11Z" fill="#FF5800"/>
<path d="M10.5137 678.75L10.5137 681.393L13.1587 681.393L13.1587 678.75L10.5137 678.75Z" fill="#FF5800"/>
<path d="M13.1621 681.39L13.1621 684.035L15.8044 684.035L15.8044 681.39L13.1621 681.39Z" fill="#FF5800"/>
<path d="M15.8047 684.035L15.8047 686.678L18.4497 686.678L18.4497 684.035L15.8047 684.035Z" fill="#FF5800"/>
</g>
<g clip-path="url(#clip2_5292_25291)">
<path d="M15.8017 325.313L15.8017 322.668L13.1588 322.668L10.5138 322.668L7.87079 322.668L5.22851 322.668L5.22851 325.313L5.22851 327.956L5.22852 330.598L5.22852 333.244L7.87079 333.244L7.87079 330.598L7.87079 327.956L10.5138 327.956L10.5138 325.313L13.1588 325.313L15.8017 325.313Z" fill="#FF5800"/>
<path d="M10.5137 327.959L10.5137 330.601L13.1587 330.601L13.1587 327.959L10.5137 327.959Z" fill="#FF5800"/>
<path d="M13.1621 330.599L13.1621 333.244L15.8044 333.244L15.8044 330.599L13.1621 330.599Z" fill="#FF5800"/>
<path d="M15.8047 333.244L15.8047 335.886L18.4497 335.886L18.4497 333.244L15.8047 333.244Z" fill="#FF5800"/>
</g>
<g clip-path="url(#clip3_5292_25291)">
<path fill-rule="evenodd" clip-rule="evenodd" d="M5.11133 601.549L6.01101 601.549L6.01101 602.397L6.90056 602.397L6.90056 603.236L7.76872 603.236L7.76872 604.1L5.11133 604.1L5.11133 601.549Z" fill="#FF5800"/>
<path fill-rule="evenodd" clip-rule="evenodd" d="M5.11133 601.549L6.01101 601.549L6.01101 602.397L6.90056 602.397L6.90056 603.236L7.76872 603.236L7.76872 604.1L5.11133 604.1L5.11133 601.549Z" fill="#FF5800"/>
<path fill-rule="evenodd" clip-rule="evenodd" d="M18.6232 601.549L17.7235 601.549L17.7235 602.397L16.834 602.397L16.834 603.236L15.9658 603.236L15.9658 604.1L18.6232 604.1L18.6232 601.549Z" fill="#FF5800"/>
<path fill-rule="evenodd" clip-rule="evenodd" d="M18.6232 601.549L17.7235 601.549L17.7235 602.397L16.834 602.397L16.834 603.236L15.9658 603.236L15.9658 604.1L18.6232 604.1L18.6232 601.549Z" fill="#FF5800"/>
<path fill-rule="evenodd" clip-rule="evenodd" d="M5.08496 579.109L5.98464 579.109L5.98464 578.262L6.87419 578.262L6.87419 577.422L7.74235 577.422L7.74235 576.559L5.08496 576.559L5.08496 579.109Z" fill="#FF5800"/>
<path fill-rule="evenodd" clip-rule="evenodd" d="M5.08496 579.109L5.98464 579.109L5.98464 578.262L6.87419 578.262L6.87419 577.422L7.74235 577.422L7.74235 576.559L5.08496 576.559L5.08496 579.109Z" fill="#FF5800"/>
<path fill-rule="evenodd" clip-rule="evenodd" d="M18.5968 579.109L17.6972 579.109L17.6972 578.262L16.8076 578.262L16.8076 577.422L15.9395 577.422L15.9395 576.559L18.5968 576.559L18.5968 579.109Z" fill="#FF5800"/>
<path fill-rule="evenodd" clip-rule="evenodd" d="M18.5968 579.109L17.6972 579.109L17.6972 578.262L16.8076 578.262L16.8076 577.422L15.9395 577.422L15.9395 576.559L18.5968 576.559L18.5968 579.109Z" fill="#FF5800"/>
<path d="M18.6301 647.841L15.6259 647.841L15.6259 654.566L15.3387 654.851L13.6283 654.851L13.2872 654.513L13.2872 649.588L10.3257 649.588L10.3257 654.581L10.0544 654.85L8.34396 654.85L8.11651 654.624L8.1165 648.032L5.1123 648.032L5.1123 658.41L18.6301 658.41L18.6301 647.841Z" fill="#FF5800"/>
<path d="M18.6301 647.841L15.6259 647.841L15.6259 654.566L15.3387 654.851L13.6283 654.851L13.2872 654.513L13.2872 649.588L10.3257 649.588L10.3257 654.581L10.0544 654.85L8.34396 654.85L8.11651 654.624L8.1165 648.032L5.1123 648.032L5.1123 658.41L18.6301 658.41L18.6301 647.841Z" fill="#FF5800"/>
<path d="M5.12598 647.013L5.12598 643.391L15.3412 643.391L15.6396 643.094L15.6396 636.743L18.6438 636.743L18.6438 647.014L5.12598 647.014L5.12598 647.013Z" fill="#FF5800"/>
<path d="M5.12598 647.013L5.12598 643.391L15.3412 643.391L15.6396 643.094L15.6396 636.743L18.6438 636.743L18.6438 647.014L5.12598 647.014L5.12598 647.013Z" fill="#FF5800"/>
<path d="M5.12598 632.379L5.12598 636.001L18.6438 636.001L18.6438 632.379L5.12598 632.379Z" fill="#FF5800"/>
<path d="M5.12598 632.379L5.12598 636.001L18.6438 636.001L18.6438 632.379L5.12598 632.379Z" fill="#FF5800"/>
<path d="M15.6396 626.686L15.2432 626.686L7.95902 620.382L5.12598 620.382L5.12598 631.526L8.13018 631.526L8.13018 625.294L8.49275 625.294L15.8749 631.59L18.6426 631.59L18.6426 620.212L15.6384 620.212L15.6384 626.687L15.6396 626.686Z" fill="#FF5800"/>
<path d="M15.6396 626.686L15.2432 626.686L7.95902 620.382L5.12598 620.382L5.12598 631.526L8.13018 631.526L8.13018 625.294L8.49275 625.294L15.8749 631.59L18.6426 631.59L18.6426 620.212L15.6384 620.212L15.6384 626.687L15.6396 626.686Z" fill="#FF5800"/>
<path fill-rule="evenodd" clip-rule="evenodd" d="M5.12598 614.418L5.12598 610.37L18.6438 605.021L18.6438 608.878L16.2521 609.793L16.0258 610.07L16.0258 614.905L16.2701 615.214L18.6438 616.122L18.6438 619.765L5.12598 614.418ZM9.30911 612.654L13.0182 613.976L13.2997 613.696L13.2997 611.272L13.0407 611.015L9.30911 612.344L9.30911 612.654Z" fill="#FF5800"/>
<path fill-rule="evenodd" clip-rule="evenodd" d="M5.12598 614.418L5.12598 610.37L18.6438 605.021L18.6438 608.878L16.2521 609.793L16.0258 610.07L16.0258 614.905L16.2701 615.214L18.6438 616.122L18.6438 619.765L5.12598 614.418ZM9.30911 612.654L13.0182 613.976L13.2997 613.696L13.2997 611.272L13.0407 611.015L9.30911 612.344L9.30911 612.654Z" fill="#FF5800"/>
<path fill-rule="evenodd" clip-rule="evenodd" d="M18.6235 580.801L18.6235 587.844L17.7396 587.844L17.7396 588.694L16.8556 588.694L16.8556 589.545L13.9629 589.545L13.9629 586.766L15.0777 586.766L15.0777 585.915L15.9616 585.915L15.9616 582.729L15.0777 582.729L15.0777 581.879L14.1994 581.879L14.1994 582.729L13.3155 582.729L13.3155 586.993L12.4259 586.993L12.4259 588.694L11.542 588.694L11.542 589.545L6.8848 589.545L6.8848 588.694L6.00088 588.694L6.00088 587.844L5.11133 587.844L5.11133 580.801L6.00088 580.801L6.00088 579.95L6.8848 579.95L6.8848 579.094L9.77752 579.094L9.77752 581.878L8.88797 581.878L8.88797 582.728L7.77885 582.728L7.77885 585.914L8.66277 585.914L8.66277 586.765L9.54106 586.765L9.54106 585.914L10.425 585.914L10.425 581.65L11.3089 581.65L11.3089 579.949L12.1984 579.949L12.1984 579.093L16.8579 579.093L16.8579 579.949L17.7418 579.949L17.7418 580.8L18.6257 580.8L18.6235 580.801Z" fill="#FF5800"/>
<path fill-rule="evenodd" clip-rule="evenodd" d="M18.6235 580.801L18.6235 587.844L17.7396 587.844L17.7396 588.694L16.8556 588.694L16.8556 589.545L13.9629 589.545L13.9629 586.766L15.0777 586.766L15.0777 585.915L15.9616 585.915L15.9616 582.729L15.0777 582.729L15.0777 581.879L14.1994 581.879L14.1994 582.729L13.3155 582.729L13.3155 586.993L12.4259 586.993L12.4259 588.694L11.542 588.694L11.542 589.545L6.8848 589.545L6.8848 588.694L6.00088 588.694L6.00088 587.844L5.11133 587.844L5.11133 580.801L6.00088 580.801L6.00088 579.95L6.8848 579.95L6.8848 579.094L9.77752 579.094L9.77752 581.878L8.88797 581.878L8.88797 582.728L7.77885 582.728L7.77885 585.914L8.66277 585.914L8.66277 586.765L9.54106 586.765L9.54106 585.914L10.425 585.914L10.425 581.65L11.3089 581.65L11.3089 579.949L12.1984 579.949L12.1984 579.093L16.8579 579.093L16.8579 579.949L17.7418 579.949L17.7418 580.8L18.6257 580.8L18.6235 580.801Z" fill="#FF5800"/>
<path fill-rule="evenodd" clip-rule="evenodd" d="M18.6235 592.879L18.6235 599.072L17.7396 599.072L17.7396 599.923L16.8556 599.923L16.8556 600.774L15.9717 600.774L15.9717 601.625L7.76759 601.625L7.76759 600.774L6.88367 600.774L6.88367 599.923L5.99975 599.923L5.99975 599.072L5.11133 599.072L5.11133 592.879L6.00088 592.879L6.00088 592.028L6.8848 592.028L6.8848 591.171L7.76872 591.171L7.76872 590.32L15.974 590.32L15.974 591.171L16.8579 591.171L16.8579 592.028L17.7418 592.028L17.7418 592.879L18.6257 592.879L18.6235 592.879ZM14.8536 594.808L14.8536 593.958L13.964 593.958L13.964 593.107L9.77752 593.107L9.77752 593.958L8.88797 593.958L8.88797 594.808L8.00405 594.808L8.00405 597.138L8.88797 597.138L8.88797 597.995L9.77752 597.995L9.77752 598.846L13.964 598.846L13.964 597.995L14.8536 597.995L14.8536 597.138L15.7375 597.138L15.7375 594.808L14.8536 594.808Z" fill="#FF5800"/>
<path fill-rule="evenodd" clip-rule="evenodd" d="M18.6235 592.879L18.6235 599.072L17.7396 599.072L17.7396 599.923L16.8556 599.923L16.8556 600.774L15.9717 600.774L15.9717 601.625L7.76759 601.625L7.76759 600.774L6.88367 600.774L6.88367 599.923L5.99975 599.923L5.99975 599.072L5.11133 599.072L5.11133 592.879L6.00088 592.879L6.00088 592.028L6.8848 592.028L6.8848 591.171L7.76872 591.171L7.76872 590.32L15.974 590.32L15.974 591.171L16.8579 591.171L16.8579 592.028L17.7418 592.028L17.7418 592.879L18.6257 592.879L18.6235 592.879ZM14.8536 594.808L14.8536 593.958L13.964 593.958L13.964 593.107L9.77752 593.107L9.77752 593.958L8.88797 593.958L8.88797 594.808L8.00405 594.808L8.00405 597.138L8.88797 597.138L8.88797 597.995L9.77752 597.995L9.77752 598.846L13.964 598.846L13.964 597.995L14.8536 597.995L14.8536 597.138L15.7375 597.138L15.7375 594.808L14.8536 594.808Z" fill="#FF5800"/>
</g>
<g clip-path="url(#clip4_5292_25291)">
<path fill-rule="evenodd" clip-rule="evenodd" d="M5.10254 250.757L6.00222 250.757L6.00222 251.605L6.89177 251.605L6.89177 252.445L7.75993 252.445L7.75993 253.308L5.10254 253.308L5.10254 250.757Z" fill="#FF5800"/>
<path fill-rule="evenodd" clip-rule="evenodd" d="M5.10254 250.757L6.00222 250.757L6.00222 251.605L6.89177 251.605L6.89177 252.445L7.75993 252.445L7.75993 253.308L5.10254 253.308L5.10254 250.757Z" fill="#FF5800"/>
<path fill-rule="evenodd" clip-rule="evenodd" d="M18.6144 250.757L17.7147 250.757L17.7147 251.605L16.8252 251.605L16.8252 252.445L15.957 252.445L15.957 253.308L18.6144 253.308L18.6144 250.757Z" fill="#FF5800"/>
<path fill-rule="evenodd" clip-rule="evenodd" d="M18.6144 250.757L17.7147 250.757L17.7147 251.605L16.8252 251.605L16.8252 252.445L15.957 252.445L15.957 253.308L18.6144 253.308L18.6144 250.757Z" fill="#FF5800"/>
<path fill-rule="evenodd" clip-rule="evenodd" d="M5.07617 228.318L5.97586 228.318L5.97586 227.47L6.86541 227.47L6.86541 226.63L7.73356 226.63L7.73356 225.767L5.07617 225.767L5.07617 228.318Z" fill="#FF5800"/>
<path fill-rule="evenodd" clip-rule="evenodd" d="M5.07617 228.318L5.97586 228.318L5.97586 227.47L6.86541 227.47L6.86541 226.63L7.73356 226.63L7.73356 225.767L5.07617 225.767L5.07617 228.318Z" fill="#FF5800"/>
<path fill-rule="evenodd" clip-rule="evenodd" d="M18.5881 228.318L17.6884 228.318L17.6884 227.47L16.7988 227.47L16.7988 226.63L15.9307 226.63L15.9307 225.767L18.5881 225.767L18.5881 228.318Z" fill="#FF5800"/>
<path fill-rule="evenodd" clip-rule="evenodd" d="M18.5881 228.318L17.6884 228.318L17.6884 227.47L16.7988 227.47L16.7988 226.63L15.9307 226.63L15.9307 225.767L18.5881 225.767L18.5881 228.318Z" fill="#FF5800"/>
<path d="M18.6213 297.05L15.6171 297.05L15.6171 303.775L15.33 304.06L13.6195 304.06L13.2784 303.721L13.2784 298.796L10.317 298.796L10.317 303.789L10.0456 304.059L8.33517 304.059L8.10772 303.833L8.10772 297.241L5.10352 297.241L5.10352 307.618L18.6213 307.618L18.6213 297.05Z" fill="#FF5800"/>
<path d="M18.6213 297.05L15.6171 297.05L15.6171 303.775L15.33 304.06L13.6195 304.06L13.2784 303.721L13.2784 298.796L10.317 298.796L10.317 303.789L10.0456 304.059L8.33517 304.059L8.10772 303.833L8.10772 297.241L5.10352 297.241L5.10352 307.618L18.6213 307.618L18.6213 297.05Z" fill="#FF5800"/>
<path d="M5.11719 296.221L5.11719 292.599L15.3324 292.599L15.6308 292.303L15.6308 285.951L18.635 285.951L18.635 296.222L5.11719 296.222L5.11719 296.221Z" fill="#FF5800"/>
<path d="M5.11719 296.221L5.11719 292.599L15.3324 292.599L15.6308 292.303L15.6308 285.951L18.635 285.951L18.635 296.222L5.11719 296.222L5.11719 296.221Z" fill="#FF5800"/>
<path d="M5.11719 281.587L5.11719 285.209L18.635 285.209L18.635 281.587L5.11719 281.587Z" fill="#FF5800"/>
<path d="M5.11719 281.587L5.11719 285.209L18.635 285.209L18.635 281.587L5.11719 281.587Z" fill="#FF5800"/>
<path d="M15.6308 275.895L15.2344 275.895L7.95023 269.59L5.11719 269.59L5.11719 280.735L8.12139 280.735L8.12139 274.503L8.48396 274.503L15.8661 280.798L18.6338 280.798L18.6338 269.42L15.6296 269.42L15.6296 275.896L15.6308 275.895Z" fill="#FF5800"/>
<path d="M15.6308 275.895L15.2344 275.895L7.95023 269.59L5.11719 269.59L5.11719 280.735L8.12139 280.735L8.12139 274.503L8.48396 274.503L15.8661 280.798L18.6338 280.798L18.6338 269.42L15.6296 269.42L15.6296 275.896L15.6308 275.895Z" fill="#FF5800"/>
<path fill-rule="evenodd" clip-rule="evenodd" d="M5.11719 263.626L5.11719 259.578L18.635 254.23L18.635 258.086L16.2433 259.001L16.017 259.278L16.017 264.114L16.2613 264.422L18.635 265.33L18.635 268.974L5.11719 263.626ZM9.30032 261.863L13.0094 263.184L13.2909 262.905L13.2909 260.481L13.0319 260.223L9.30032 261.553L9.30032 261.863Z" fill="#FF5800"/>
<path fill-rule="evenodd" clip-rule="evenodd" d="M5.11719 263.626L5.11719 259.578L18.635 254.23L18.635 258.086L16.2433 259.001L16.017 259.278L16.017 264.114L16.2613 264.422L18.635 265.33L18.635 268.974L5.11719 263.626ZM9.30032 261.863L13.0094 263.184L13.2909 262.905L13.2909 260.481L13.0319 260.223L9.30032 261.553L9.30032 261.863Z" fill="#FF5800"/>
<path fill-rule="evenodd" clip-rule="evenodd" d="M18.6147 230.01L18.6147 237.053L17.7308 237.053L17.7308 237.902L16.8468 237.902L16.8468 238.753L13.9541 238.753L13.9541 235.975L15.0689 235.975L15.0689 235.124L15.9528 235.124L15.9528 231.938L15.0689 231.938L15.0689 231.088L14.1906 231.088L14.1906 231.938L13.3067 231.938L13.3067 236.202L12.4171 236.202L12.4171 237.902L11.5332 237.902L11.5332 238.753L6.87601 238.753L6.87601 237.902L5.99209 237.902L5.99209 237.053L5.10254 237.053L5.10254 230.01L5.99209 230.01L5.99209 229.159L6.87601 229.159L6.87601 228.302L9.76873 228.302L9.76873 231.087L8.87918 231.087L8.87918 231.937L7.77006 231.937L7.77006 235.122L8.65398 235.122L8.65398 235.973L9.53227 235.973L9.53227 235.122L10.4162 235.122L10.4162 230.859L11.3001 230.859L11.3001 229.158L12.1897 229.158L12.1897 228.301L16.8491 228.301L16.8491 229.158L17.733 229.158L17.733 230.009L18.6169 230.009L18.6147 230.01Z" fill="#FF5800"/>
<path fill-rule="evenodd" clip-rule="evenodd" d="M18.6147 230.01L18.6147 237.053L17.7308 237.053L17.7308 237.902L16.8468 237.902L16.8468 238.753L13.9541 238.753L13.9541 235.975L15.0689 235.975L15.0689 235.124L15.9528 235.124L15.9528 231.938L15.0689 231.938L15.0689 231.088L14.1906 231.088L14.1906 231.938L13.3067 231.938L13.3067 236.202L12.4171 236.202L12.4171 237.902L11.5332 237.902L11.5332 238.753L6.87601 238.753L6.87601 237.902L5.99209 237.902L5.99209 237.053L5.10254 237.053L5.10254 230.01L5.99209 230.01L5.99209 229.159L6.87601 229.159L6.87601 228.302L9.76873 228.302L9.76873 231.087L8.87918 231.087L8.87918 231.937L7.77006 231.937L7.77006 235.122L8.65398 235.122L8.65398 235.973L9.53227 235.973L9.53227 235.122L10.4162 235.122L10.4162 230.859L11.3001 230.859L11.3001 229.158L12.1897 229.158L12.1897 228.301L16.8491 228.301L16.8491 229.158L17.733 229.158L17.733 230.009L18.6169 230.009L18.6147 230.01Z" fill="#FF5800"/>
<path fill-rule="evenodd" clip-rule="evenodd" d="M18.6147 242.087L18.6147 248.28L17.7308 248.28L17.7308 249.131L16.8468 249.131L16.8468 249.982L15.9629 249.982L15.9629 250.833L7.7588 250.833L7.7588 249.982L6.87488 249.982L6.87488 249.131L5.99096 249.131L5.99096 248.28L5.10254 248.28L5.10254 242.087L5.99209 242.087L5.99209 241.236L6.87601 241.236L6.87601 240.38L7.75993 240.38L7.75993 239.529L15.9652 239.529L15.9652 240.38L16.8491 240.38L16.8491 241.236L17.733 241.236L17.733 242.087L18.6169 242.087L18.6147 242.087ZM14.8448 244.016L14.8448 243.166L13.9552 243.166L13.9552 242.315L9.76873 242.315L9.76873 243.166L8.87918 243.166L8.87918 244.016L7.99526 244.016L7.99526 246.347L8.87918 246.347L8.87918 247.203L9.76873 247.203L9.76873 248.054L13.9552 248.054L13.9552 247.203L14.8448 247.203L14.8448 246.347L15.7287 246.347L15.7287 244.016L14.8448 244.016Z" fill="#FF5800"/>
<path fill-rule="evenodd" clip-rule="evenodd" d="M18.6147 242.087L18.6147 248.28L17.7308 248.28L17.7308 249.131L16.8468 249.131L16.8468 249.982L15.9629 249.982L15.9629 250.833L7.7588 250.833L7.7588 249.982L6.87488 249.982L6.87488 249.131L5.99096 249.131L5.99096 248.28L5.10254 248.28L5.10254 242.087L5.99209 242.087L5.99209 241.236L6.87601 241.236L6.87601 240.38L7.75993 240.38L7.75993 239.529L15.9652 239.529L15.9652 240.38L16.8491 240.38L16.8491 241.236L17.733 241.236L17.733 242.087L18.6169 242.087L18.6147 242.087ZM14.8448 244.016L14.8448 243.166L13.9552 243.166L13.9552 242.315L9.76873 242.315L9.76873 243.166L8.87918 243.166L8.87918 244.016L7.99526 244.016L7.99526 246.347L8.87918 246.347L8.87918 247.203L9.76873 247.203L9.76873 248.054L13.9552 248.054L13.9552 247.203L14.8448 247.203L14.8448 246.347L15.7287 246.347L15.7287 244.016L14.8448 244.016Z" fill="#FF5800"/>
</g>
<path d="M4.30673 552.029L4.30673 553.967L5.2863 553.967L5.2863 548.128L6.24199 548.128L6.24199 545.208L5.2863 545.208L5.2863 546.189L4.30672 546.189L4.30673 549.109L3.32715 549.109L3.32715 552.029L4.30673 552.029Z" fill="#FF5800"/>
<path d="M7.22157 554.948L7.22157 555.93L12.0717 555.93L12.0717 556.887L16.9457 556.887L16.9457 557.868L18.8809 557.868L18.8809 556.887L19.8605 556.887L19.8605 554.948L18.8809 554.948L18.8809 553.967L17.9252 553.967L17.9252 553.01L13.0513 553.01L13.0513 553.967L10.1364 553.967L10.1364 552.029L11.116 552.029L11.1112 551.052L11.104 550.078L10.1292 550.071L9.15683 550.066L9.15683 548.128L7.22157 548.128L7.22157 552.029L6.24199 552.029L6.24199 554.948L7.22157 554.948Z" fill="#FF5800"/>
<path d="M10.1364 546.189L10.1364 545.208L9.15683 545.208L9.15683 544.227L11.116 544.227L11.116 543.27L9.15683 543.27L9.15683 544.227L8.20114 544.227L8.20114 546.189L10.1364 546.189Z" fill="#FF5800"/>
<path d="M17.9252 546.189L17.9252 547.147L16.9457 547.147L16.9457 549.109L19.8605 549.109L19.8605 548.128L18.8809 548.128L18.8857 547.642L18.8929 547.159L19.3755 547.152L19.8605 547.147L19.8605 545.208L15.9661 545.208L15.9661 546.189L17.9252 546.189Z" fill="#FF5800"/>
<path d="M4.30673 201.232L4.30673 203.17L5.2863 203.17L5.2863 197.331L6.24199 197.331L6.24199 194.411L5.2863 194.411L5.2863 195.393L4.30672 195.393L4.30673 198.312L3.32715 198.312L3.32715 201.232L4.30673 201.232Z" fill="#FF5800"/>
<path d="M7.22157 204.152L7.22157 205.133L12.0717 205.133L12.0717 206.09L16.9457 206.09L16.9457 207.071L18.8809 207.071L18.8809 206.09L19.8605 206.09L19.8605 204.152L18.8809 204.152L18.8809 203.17L17.9252 203.17L17.9252 202.213L13.0513 202.213L13.0513 203.17L10.1364 203.17L10.1364 201.232L11.116 201.232L11.1112 200.256L11.104 199.282L10.1292 199.274L9.15683 199.27L9.15683 197.331L7.22157 197.331L7.22157 201.232L6.24199 201.232L6.24199 204.152L7.22157 204.152Z" fill="#FF5800"/>
<path d="M10.1364 195.393L10.1364 194.411L9.15683 194.411L9.15683 193.43L11.116 193.43L11.116 192.473L9.15683 192.473L9.15683 193.43L8.20114 193.43L8.20114 195.393L10.1364 195.393Z" fill="#FF5800"/>
<path d="M17.9252 195.393L17.9252 196.35L16.9457 196.35L16.9457 198.312L19.8605 198.312L19.8605 197.331L18.8809 197.331L18.8857 196.845L18.8929 196.362L19.3755 196.355L19.8605 196.35L19.8605 194.411L15.9661 194.411L15.9661 195.393L17.9252 195.393Z" fill="#FF5800"/>
<path d="M5.21455 516.301L5.21455 514.959L5.30606 514.867L6.64822 514.867L6.73973 514.959L6.73973 516.301L6.64822 516.392L5.30606 516.392L5.21455 516.301ZM6.73973 517.826L6.73973 516.484L6.83124 516.392L8.1734 516.392L8.26491 516.484L8.26491 517.826L8.1734 517.917L6.83124 517.917L6.73973 517.826ZM8.26491 519.351L8.26491 518.009L8.35642 517.917L15.7993 517.917L15.8908 518.009L15.8908 519.351L15.7993 519.443L8.35642 519.443L8.26491 519.351ZM15.8908 517.826L15.8908 516.484L15.9823 516.392L17.3245 516.392L17.416 516.484L17.416 517.826L17.3245 517.917L15.9823 517.917L15.8908 517.826ZM17.416 516.301L17.416 514.959L17.5075 514.867L18.8497 514.867L18.9412 514.959L18.9412 516.301L18.8497 516.392L17.5075 516.392L17.416 516.301ZM6.73973 509.889L6.73973 505.496L6.83124 505.405L8.1734 505.405L8.26491 505.496L8.26491 509.889L8.1734 509.981L6.83124 509.981L6.73973 509.889ZM8.26491 505.313L8.26491 503.971L8.35643 503.88L15.7993 503.88L15.8908 503.971L15.8908 505.313L15.7993 505.405L8.35643 505.405L8.26491 505.313ZM8.26491 511.414L8.26491 510.072L8.35643 509.981L15.7993 509.981L15.8908 510.072L15.8908 511.414L15.7993 511.506L8.35643 511.506L8.26491 511.414ZM11.239 508.44L11.239 506.945L11.3305 506.854L12.8252 506.854L12.9167 506.945L12.9167 508.44L12.8252 508.532L11.3305 508.532L11.239 508.44ZM15.8908 509.889L15.8908 505.496L15.9823 505.405L17.3245 505.405L17.416 505.496L17.416 509.889L17.3245 509.981L15.9823 509.981L15.8908 509.889ZM6.73973 501.952L6.73973 496.034L6.83124 495.943L8.1734 495.943L8.26492 496.034L8.26491 500.427L8.1734 500.518L8.26491 500.61L8.35643 500.518L11.2238 500.518L11.3153 500.61L11.4068 500.518L11.3153 500.427L11.3153 496.034L11.4068 495.943L12.749 495.943L12.8405 496.034L12.8405 500.427L12.749 500.518L12.8405 500.61L12.932 500.518L17.3245 500.518L17.416 500.61L17.416 501.952L17.3245 502.044L6.83124 502.044L6.73973 501.952ZM8.26492 495.851L8.26492 494.509L8.35643 494.418L11.2238 494.418L11.3153 494.509L11.3153 495.851L11.2238 495.943L8.35643 495.943L8.26492 495.851ZM6.73973 492.49L6.73973 485.047L6.83124 484.956L8.1734 484.956L8.26492 485.047L8.26492 490.965L8.1734 491.056L8.26492 491.148L8.35643 491.056L11.2238 491.056L11.3153 491.148L11.4068 491.056L11.3153 490.965L11.3153 486.572L11.4068 486.481L12.749 486.481L12.8405 486.572L12.8405 490.965L12.749 491.056L12.8405 491.148L12.932 491.056L15.7993 491.056L15.8908 491.148L15.9823 491.056L15.8908 490.965L15.8908 485.047L15.9823 484.956L17.3245 484.956L17.416 485.047L17.416 492.49L17.3245 492.582L6.83124 492.582L6.73973 492.49ZM6.73973 483.028L6.73973 477.11L6.83124 477.019L8.17341 477.019L8.26492 477.11L8.26492 481.503L8.1734 481.594L8.26492 481.686L8.35643 481.594L11.2238 481.594L11.3153 481.686L11.4068 481.594L11.3153 481.503L11.3153 477.11L11.4068 477.019L12.749 477.019L12.8405 477.11L12.8405 478.452L12.749 478.544L12.8405 478.635L12.932 478.544L14.2741 478.544L14.3657 478.635L14.3657 479.978L14.2741 480.069L12.932 480.069L12.8405 479.978L12.749 480.069L12.8405 480.161L12.8405 481.503L12.749 481.594L12.8405 481.686L12.932 481.594L17.3245 481.594L17.416 481.686L17.416 483.028L17.3245 483.119L6.83124 483.119L6.73973 483.028ZM8.26492 476.927L8.26492 475.585L8.35643 475.494L11.2238 475.494L11.3153 475.585L11.3153 476.927L11.2238 477.019L8.35643 477.019L8.26492 476.927ZM14.3657 478.452L14.3657 477.11L14.4572 477.019L15.7993 477.019L15.8908 477.11L15.8908 478.452L15.7993 478.544L14.4572 478.544L14.3657 478.452ZM15.8908 476.927L15.8908 475.585L15.9823 475.494L17.3245 475.494L17.416 475.585L17.416 476.927L17.3245 477.019L15.9823 477.019L15.8908 476.927ZM6.73973 470.515L6.73973 469.173L6.83124 469.082L8.17341 469.082L8.26492 469.173L8.26492 470.515L8.17341 470.607L6.83124 470.607L6.73973 470.515ZM8.26492 468.99L8.26492 467.648L8.35643 467.557L9.69859 467.557L9.7901 467.648L9.7901 468.99L9.69859 469.082L8.35643 469.082L8.26492 468.99ZM8.26492 472.041L8.26492 470.698L8.35643 470.607L9.69859 470.607L9.7901 470.698L9.7901 472.041L9.69859 472.132L8.35643 472.132L8.26492 472.041ZM9.7901 467.465L9.7901 466.123L9.88161 466.031L17.3245 466.031L17.416 466.123L17.416 467.465L17.3245 467.557L13.6946 467.557L13.6031 467.465L13.5115 467.557L13.6031 467.648L13.6031 472.041L13.5115 472.132L13.6031 472.224L13.6946 472.132L17.3245 472.132L17.416 472.224L17.416 473.566L17.3245 473.657L9.88161 473.657L9.7901 473.566L9.7901 472.224L9.88161 472.132L11.9864 472.132L12.0779 472.224L12.1694 472.132L12.0779 472.041L12.0779 467.648L12.1694 467.557L12.0779 467.465L11.9864 467.557L9.88161 467.557L9.7901 467.465ZM6.73973 464.104L6.73973 456.661L6.83124 456.569L8.17341 456.569L8.26492 456.661L8.26492 459.528L8.17341 459.62L8.26492 459.711L8.35643 459.62L17.3245 459.62L17.416 459.711L17.416 461.053L17.3245 461.145L8.35643 461.145L8.26492 461.053L8.17341 461.145L8.26492 461.236L8.26492 464.104L8.17341 464.195L6.83124 464.195L6.73973 464.104ZM6.73973 453.879L6.73973 447.961L6.83124 447.87L8.17341 447.87L8.26492 447.961L8.26492 450.066L8.17341 450.158L8.26492 450.249L8.35643 450.158L15.7993 450.158L15.8908 450.249L15.9823 450.158L15.8908 450.066L15.8908 447.199L15.9823 447.107L17.3245 447.107L17.416 447.199L17.416 454.642L17.3245 454.733L15.9823 454.733L15.8908 454.642L15.8908 451.774L15.9823 451.683L15.8908 451.591L15.7993 451.683L8.35643 451.683L8.26492 451.591L8.17341 451.683L8.26492 451.774L8.26492 453.879L8.17341 453.971L6.83124 453.971L6.73973 453.879ZM6.73973 439.079L6.73973 437.737L6.83125 437.645L17.3245 437.645L17.416 437.737L17.416 439.079L17.3245 439.17L12.932 439.17L12.8405 439.079L12.749 439.17L12.8405 439.262L12.8405 440.604L12.749 440.696L11.4068 440.696L11.3153 440.604L11.3153 439.262L11.4068 439.17L11.3153 439.079L11.2238 439.17L6.83125 439.17L6.73973 439.079ZM6.73973 445.18L6.73973 443.837L6.83124 443.746L8.17341 443.746L8.26492 443.837L8.35643 443.746L8.26492 443.654L8.26492 442.312L8.35643 442.221L9.69859 442.221L9.7901 442.312L9.7901 443.654L9.69859 443.746L9.7901 443.837L9.88161 443.746L17.3245 443.746L17.416 443.837L17.416 445.18L17.3245 445.271L6.83124 445.271L6.73973 445.18ZM9.7901 442.129L9.7901 440.787L9.88161 440.696L11.2238 440.696L11.3153 440.787L11.3153 442.129L11.2238 442.221L9.88161 442.221L9.7901 442.129ZM6.73973 434.192L6.73973 429.8L6.83125 429.708L8.17341 429.708L8.26492 429.8L8.26492 434.192L8.17341 434.284L6.83125 434.284L6.73973 434.192ZM8.26492 429.617L8.26492 428.275L8.35643 428.183L9.69859 428.183L9.7901 428.275L9.7901 429.617L9.69859 429.708L8.35643 429.708L8.26492 429.617ZM8.26492 435.717L8.26492 434.375L8.35643 434.284L15.7993 434.284L15.8908 434.375L15.8908 435.717L15.7993 435.809L8.35643 435.809L8.26492 435.717ZM11.3153 431.904L11.3153 428.275L11.4068 428.183L15.7993 428.183L15.8908 428.275L15.8908 429.617L15.7993 429.708L12.932 429.708L12.8405 429.617L12.749 429.708L12.8405 429.8L12.8405 431.904L12.749 431.996L11.4068 431.996L11.3153 431.904ZM15.8908 434.192L15.8908 429.8L15.9823 429.708L17.3245 429.708L17.416 429.8L17.416 434.192L17.3245 434.284L15.9823 434.284L15.8908 434.192ZM6.73973 415.268L6.73973 410.876L6.83125 410.784L8.17341 410.784L8.26492 410.876L8.26492 415.268L8.17341 415.36L6.83125 415.36L6.73973 415.268ZM8.26492 410.693L8.26492 409.35L8.35643 409.259L9.69859 409.259L9.7901 409.35L9.7901 410.693L9.69859 410.784L8.35643 410.784L8.26492 410.693ZM8.26492 416.793L8.26492 415.451L8.35643 415.36L11.2238 415.36L11.3153 415.451L11.3153 416.793L11.2238 416.885L8.35643 416.885L8.26492 416.793ZM11.3153 415.268L11.3153 410.876L11.4068 410.784L12.749 410.784L12.8405 410.876L12.8405 415.268L12.749 415.36L11.4068 415.36L11.3153 415.268ZM12.8405 410.693L12.8405 409.35L12.932 409.259L15.7993 409.259L15.8908 409.35L15.8908 410.693L15.7993 410.784L12.932 410.784L12.8405 410.693ZM14.3657 416.793L14.3657 415.451L14.4572 415.36L15.7993 415.36L15.8908 415.451L15.8908 416.793L15.7993 416.885L14.4572 416.885L14.3657 416.793ZM15.8908 415.268L15.8908 410.876L15.9823 410.784L17.3245 410.784L17.416 410.876L17.416 415.268L17.3245 415.36L15.9823 415.36L15.8908 415.268ZM6.73974 401.23L6.73974 399.888L6.83125 399.797L9.69859 399.797L9.7901 399.888L9.7901 401.23L9.69859 401.322L6.83125 401.322L6.73974 401.23ZM6.73973 407.331L6.73973 405.989L6.83125 405.897L9.69859 405.897L9.7901 405.989L9.7901 407.331L9.69859 407.423L6.83125 407.423L6.73973 407.331ZM9.7901 402.756L9.7901 401.413L9.88161 401.322L11.2238 401.322L11.3153 401.413L11.3153 402.756L11.2238 402.847L9.88161 402.847L9.7901 402.756ZM9.7901 405.806L9.7901 404.464L9.88161 404.372L11.2238 404.372L11.3153 404.464L11.3153 405.806L11.2238 405.897L9.88161 405.897L9.7901 405.806ZM11.3153 404.281L11.3153 402.939L11.4068 402.847L17.3245 402.847L17.416 402.939L17.416 404.281L17.3245 404.372L11.4068 404.372L11.3153 404.281ZM6.73974 396.344L6.73974 391.951L6.83125 391.86L8.17341 391.86L8.26492 391.951L8.26492 396.344L8.17341 396.435L6.83125 396.435L6.73974 396.344ZM8.26492 391.768L8.26492 390.426L8.35643 390.335L9.69859 390.335L9.7901 390.426L9.7901 391.768L9.69859 391.86L8.35643 391.86L8.26492 391.768ZM8.26492 397.869L8.26492 396.527L8.35643 396.435L11.2238 396.435L11.3153 396.527L11.3153 397.869L11.2238 397.961L8.35643 397.961L8.26492 397.869ZM11.3153 396.344L11.3153 391.951L11.4068 391.86L12.749 391.86L12.8405 391.951L12.8405 396.344L12.749 396.435L11.4068 396.435L11.3153 396.344ZM12.8405 391.768L12.8405 390.426L12.932 390.335L15.7993 390.335L15.8908 390.426L15.8908 391.768L15.7993 391.86L12.932 391.86L12.8405 391.768ZM14.3657 397.869L14.3657 396.527L14.4572 396.435L15.7993 396.435L15.8908 396.527L15.8908 397.869L15.7993 397.961L14.4572 397.961L14.3657 397.869ZM15.8908 396.344L15.8908 391.951L15.9823 391.86L17.3245 391.86L17.416 391.951L17.416 396.344L17.3245 396.435L15.9823 396.435L15.8908 396.344ZM6.73974 388.407L6.73974 380.964L6.83125 380.873L8.17341 380.873L8.26492 380.964L8.26492 383.831L8.17341 383.923L8.26492 384.014L8.35643 383.923L17.3245 383.923L17.416 384.014L17.416 385.357L17.3245 385.448L8.35643 385.448L8.26492 385.357L8.17341 385.448L8.26492 385.54L8.26492 388.407L8.17341 388.498L6.83125 388.498L6.73974 388.407ZM6.73974 378.945L6.73974 371.502L6.83125 371.41L8.17341 371.41L8.26492 371.502L8.26492 377.42L8.17341 377.511L8.26492 377.603L8.35643 377.511L11.2238 377.511L11.3153 377.603L11.4068 377.511L11.3153 377.42L11.3153 373.027L11.4068 372.936L12.749 372.936L12.8405 373.027L12.8405 377.42L12.749 377.511L12.8405 377.603L12.932 377.511L15.7993 377.511L15.8908 377.603L15.9823 377.511L15.8908 377.42L15.8908 371.502L15.9823 371.41L17.3245 371.41L17.416 371.502L17.416 378.945L17.3245 379.036L6.83125 379.036L6.73974 378.945ZM6.73974 363.382L6.73974 362.04L6.83125 361.948L17.3245 361.948L17.416 362.04L17.416 363.382L17.3245 363.474L9.88162 363.474L9.7901 363.382L9.69859 363.474L9.7901 363.565L9.7901 364.907L9.69859 364.999L8.35643 364.999L8.26492 364.907L8.26492 363.565L8.35643 363.474L8.26492 363.382L8.17341 363.474L6.83125 363.474L6.73974 363.382ZM6.73974 369.483L6.73974 368.141L6.83125 368.049L8.17341 368.049L8.26492 368.141L8.35643 368.049L8.26492 367.958L8.26492 366.615L8.35643 366.524L9.69859 366.524L9.7901 366.615L9.7901 367.958L9.69859 368.049L9.7901 368.141L9.88162 368.049L17.3245 368.049L17.416 368.141L17.416 369.483L17.3245 369.574L6.83125 369.574L6.73974 369.483ZM9.7901 366.432L9.7901 365.09L9.88162 364.999L12.749 364.999L12.8405 365.09L12.8405 366.432L12.749 366.524L9.88162 366.524L9.7901 366.432ZM5.21455 357.153L5.30606 357.062L6.64823 357.062L6.73974 357.153L6.73974 358.495L6.64823 358.587L5.30606 358.587L5.21455 358.495L5.21455 357.153ZM6.73974 355.628L6.83125 355.537L8.17341 355.537L8.26492 355.628L8.26492 356.97L8.17341 357.062L6.83125 357.062L6.73974 356.97L6.73974 355.628ZM8.26492 354.103L8.35643 354.011L15.7993 354.011L15.8908 354.103L15.8908 355.445L15.7993 355.537L8.35643 355.537L8.26492 355.445L8.26492 354.103ZM15.8908 355.628L15.9824 355.537L17.3245 355.537L17.416 355.628L17.416 356.97L17.3245 357.062L15.9824 357.062L15.8908 356.97L15.8908 355.628ZM17.416 357.153L17.5075 357.062L18.8497 357.062L18.9412 357.153L18.9412 358.495L18.8497 358.587L17.5075 358.587L17.416 358.495L17.416 357.153Z" fill="#FF5800"/>
<path d="M5.21455 165.504L5.21455 164.162L5.30606 164.07L6.64822 164.07L6.73973 164.162L6.73973 165.504L6.64822 165.595L5.30606 165.595L5.21455 165.504ZM6.73973 167.029L6.73973 165.687L6.83124 165.595L8.1734 165.595L8.26491 165.687L8.26491 167.029L8.1734 167.121L6.83124 167.121L6.73973 167.029ZM8.26491 168.554L8.26491 167.212L8.35642 167.121L15.7993 167.121L15.8908 167.212L15.8908 168.554L15.7993 168.646L8.35642 168.646L8.26491 168.554ZM15.8908 167.029L15.8908 165.687L15.9823 165.595L17.3245 165.595L17.416 165.687L17.416 167.029L17.3245 167.121L15.9823 167.121L15.8908 167.029ZM17.416 165.504L17.416 164.162L17.5075 164.07L18.8497 164.07L18.9412 164.162L18.9412 165.504L18.8497 165.595L17.5075 165.595L17.416 165.504ZM6.73973 159.092L6.73973 154.7L6.83124 154.608L8.1734 154.608L8.26491 154.7L8.26491 159.092L8.1734 159.184L6.83124 159.184L6.73973 159.092ZM8.26491 154.517L8.26491 153.174L8.35643 153.083L15.7993 153.083L15.8908 153.174L15.8908 154.517L15.7993 154.608L8.35643 154.608L8.26491 154.517ZM8.26491 160.617L8.26491 159.275L8.35643 159.184L15.7993 159.184L15.8908 159.275L15.8908 160.617L15.7993 160.709L8.35643 160.709L8.26491 160.617ZM11.239 157.643L11.239 156.149L11.3305 156.057L12.8252 156.057L12.9167 156.149L12.9167 157.643L12.8252 157.735L11.3305 157.735L11.239 157.643ZM15.8908 159.092L15.8908 154.7L15.9823 154.608L17.3245 154.608L17.416 154.7L17.416 159.092L17.3245 159.184L15.9823 159.184L15.8908 159.092ZM6.73973 151.155L6.73973 145.238L6.83124 145.146L8.1734 145.146L8.26492 145.238L8.26491 149.63L8.1734 149.722L8.26491 149.813L8.35643 149.722L11.2238 149.722L11.3153 149.813L11.4068 149.722L11.3153 149.63L11.3153 145.238L11.4068 145.146L12.749 145.146L12.8405 145.238L12.8405 149.63L12.749 149.722L12.8405 149.813L12.932 149.722L17.3245 149.722L17.416 149.813L17.416 151.155L17.3245 151.247L6.83124 151.247L6.73973 151.155ZM8.26492 145.055L8.26492 143.712L8.35643 143.621L11.2238 143.621L11.3153 143.712L11.3153 145.055L11.2238 145.146L8.35643 145.146L8.26492 145.055ZM6.73973 141.693L6.73973 134.25L6.83124 134.159L8.1734 134.159L8.26492 134.25L8.26492 140.168L8.1734 140.259L8.26492 140.351L8.35643 140.259L11.2238 140.259L11.3153 140.351L11.4068 140.259L11.3153 140.168L11.3153 135.775L11.4068 135.684L12.749 135.684L12.8405 135.775L12.8405 140.168L12.749 140.259L12.8405 140.351L12.932 140.259L15.7993 140.259L15.8908 140.351L15.9823 140.259L15.8908 140.168L15.8908 134.25L15.9823 134.159L17.3245 134.159L17.416 134.25L17.416 141.693L17.3245 141.785L6.83124 141.785L6.73973 141.693ZM6.73973 132.231L6.73973 126.313L6.83124 126.222L8.17341 126.222L8.26492 126.313L8.26492 130.706L8.1734 130.797L8.26492 130.889L8.35643 130.797L11.2238 130.797L11.3153 130.889L11.4068 130.797L11.3153 130.706L11.3153 126.313L11.4068 126.222L12.749 126.222L12.8405 126.313L12.8405 127.655L12.749 127.747L12.8405 127.839L12.932 127.747L14.2741 127.747L14.3657 127.839L14.3657 129.181L14.2741 129.272L12.932 129.272L12.8405 129.181L12.749 129.272L12.8405 129.364L12.8405 130.706L12.749 130.797L12.8405 130.889L12.932 130.797L17.3245 130.797L17.416 130.889L17.416 132.231L17.3245 132.323L6.83124 132.323L6.73973 132.231ZM8.26492 126.13L8.26492 124.788L8.35643 124.697L11.2238 124.697L11.3153 124.788L11.3153 126.13L11.2238 126.222L8.35643 126.222L8.26492 126.13ZM14.3657 127.655L14.3657 126.313L14.4572 126.222L15.7993 126.222L15.8908 126.313L15.8908 127.655L15.7993 127.747L14.4572 127.747L14.3657 127.655ZM15.8908 126.13L15.8908 124.788L15.9823 124.697L17.3245 124.697L17.416 124.788L17.416 126.13L17.3245 126.222L15.9823 126.222L15.8908 126.13ZM6.73973 119.719L6.73973 118.376L6.83124 118.285L8.17341 118.285L8.26492 118.376L8.26492 119.719L8.17341 119.81L6.83124 119.81L6.73973 119.719ZM8.26492 118.193L8.26492 116.851L8.35643 116.76L9.69859 116.76L9.7901 116.851L9.7901 118.193L9.69859 118.285L8.35643 118.285L8.26492 118.193ZM8.26492 121.244L8.26492 119.902L8.35643 119.81L9.69859 119.81L9.7901 119.902L9.7901 121.244L9.69859 121.335L8.35643 121.335L8.26492 121.244ZM9.7901 116.668L9.7901 115.326L9.88161 115.235L17.3245 115.235L17.416 115.326L17.416 116.668L17.3245 116.76L13.6946 116.76L13.6031 116.668L13.5115 116.76L13.6031 116.851L13.6031 121.244L13.5115 121.335L13.6031 121.427L13.6946 121.335L17.3245 121.335L17.416 121.427L17.416 122.769L17.3245 122.86L9.88161 122.86L9.7901 122.769L9.7901 121.427L9.88161 121.335L11.9864 121.335L12.0779 121.427L12.1694 121.335L12.0779 121.244L12.0779 116.851L12.1694 116.76L12.0779 116.668L11.9864 116.76L9.88161 116.76L9.7901 116.668ZM6.73973 113.307L6.73973 105.864L6.83124 105.772L8.17341 105.772L8.26492 105.864L8.26492 108.731L8.17341 108.823L8.26492 108.914L8.35643 108.823L17.3245 108.823L17.416 108.914L17.416 110.256L17.3245 110.348L8.35643 110.348L8.26492 110.256L8.17341 110.348L8.26492 110.44L8.26492 113.307L8.17341 113.398L6.83124 113.398L6.73973 113.307ZM6.73973 103.082L6.73973 97.1645L6.83124 97.0729L8.17341 97.0729L8.26492 97.1645L8.26492 99.2692L8.17341 99.3607L8.26492 99.4522L8.35643 99.3607L15.7993 99.3607L15.8908 99.4522L15.9823 99.3607L15.8908 99.2692L15.8908 96.4019L15.9823 96.3103L17.3245 96.3103L17.416 96.4019L17.416 103.845L17.3245 103.936L15.9823 103.936L15.8908 103.845L15.8908 100.977L15.9823 100.886L15.8908 100.794L15.7993 100.886L8.35643 100.886L8.26492 100.794L8.17341 100.886L8.26492 100.977L8.26492 103.082L8.17341 103.174L6.83124 103.174L6.73973 103.082ZM6.73973 88.2819L6.73973 86.9398L6.83125 86.8483L17.3245 86.8483L17.416 86.9398L17.416 88.2819L17.3245 88.3734L12.932 88.3734L12.8405 88.2819L12.749 88.3734L12.8405 88.465L12.8405 89.8071L12.749 89.8986L11.4068 89.8986L11.3153 89.8071L11.3153 88.465L11.4068 88.3734L11.3153 88.2819L11.2238 88.3734L6.83125 88.3734L6.73973 88.2819ZM6.73973 94.3827L6.73973 93.0405L6.83124 92.949L8.17341 92.949L8.26492 93.0405L8.35643 92.949L8.26492 92.8575L8.26492 91.5153L8.35643 91.4238L9.69859 91.4238L9.7901 91.5153L9.7901 92.8575L9.69859 92.949L9.7901 93.0405L9.88161 92.949L17.3245 92.949L17.416 93.0405L17.416 94.3827L17.3245 94.4742L6.83124 94.4742L6.73973 94.3827ZM9.7901 91.3323L9.7901 89.9901L9.88161 89.8986L11.2238 89.8986L11.3153 89.9901L11.3153 91.3323L11.2238 91.4238L9.88161 91.4238L9.7901 91.3323ZM6.73973 83.3954L6.73973 79.0029L6.83125 78.9113L8.17341 78.9113L8.26492 79.0029L8.26492 83.3954L8.17341 83.4869L6.83125 83.4869L6.73973 83.3954ZM8.26492 78.8198L8.26492 77.4777L8.35643 77.3862L9.69859 77.3862L9.7901 77.4777L9.7901 78.8198L9.69859 78.9113L8.35643 78.9113L8.26492 78.8198ZM8.26492 84.9206L8.26492 83.5784L8.35643 83.4869L15.7993 83.4869L15.8908 83.5784L15.8908 84.9206L15.7993 85.0121L8.35643 85.0121L8.26492 84.9206ZM11.3153 81.1076L11.3153 77.4777L11.4068 77.3862L15.7993 77.3862L15.8908 77.4777L15.8908 78.8198L15.7993 78.9113L12.932 78.9113L12.8405 78.8198L12.749 78.9113L12.8405 79.0029L12.8405 81.1076L12.749 81.1991L11.4068 81.1991L11.3153 81.1076ZM15.8908 83.3954L15.8908 79.0029L15.9823 78.9113L17.3245 78.9113L17.416 79.0029L17.416 83.3954L17.3245 83.4869L15.9823 83.4869L15.8908 83.3954ZM6.73973 64.4712L6.73973 60.0787L6.83125 59.9872L8.17341 59.9872L8.26492 60.0787L8.26492 64.4712L8.17341 64.5627L6.83125 64.5627L6.73973 64.4712ZM8.26492 59.8956L8.26492 58.5535L8.35643 58.462L9.69859 58.462L9.7901 58.5535L9.7901 59.8956L9.69859 59.9872L8.35643 59.9872L8.26492 59.8956ZM8.26492 65.9964L8.26492 64.6542L8.35643 64.5627L11.2238 64.5627L11.3153 64.6542L11.3153 65.9964L11.2238 66.0879L8.35643 66.0879L8.26492 65.9964ZM11.3153 64.4712L11.3153 60.0787L11.4068 59.9872L12.749 59.9872L12.8405 60.0787L12.8405 64.4712L12.749 64.5627L11.4068 64.5627L11.3153 64.4712ZM12.8405 59.8956L12.8405 58.5535L12.932 58.462L15.7993 58.462L15.8908 58.5535L15.8908 59.8956L15.7993 59.9872L12.932 59.9872L12.8405 59.8956ZM14.3657 65.9964L14.3657 64.6542L14.4572 64.5627L15.7993 64.5627L15.8908 64.6542L15.8908 65.9964L15.7993 66.0879L14.4572 66.0879L14.3657 65.9964ZM15.8908 64.4712L15.8908 60.0787L15.9823 59.9872L17.3245 59.9872L17.416 60.0787L17.416 64.4712L17.3245 64.5627L15.9823 64.5627L15.8908 64.4712ZM6.73974 50.4335L6.73974 49.0914L6.83125 48.9999L9.69859 48.9999L9.7901 49.0914L9.7901 50.4335L9.69859 50.5251L6.83125 50.5251L6.73974 50.4335ZM6.73973 56.5343L6.73973 55.1921L6.83125 55.1006L9.69859 55.1006L9.7901 55.1921L9.7901 56.5343L9.69859 56.6258L6.83125 56.6258L6.73973 56.5343ZM9.7901 51.9587L9.7901 50.6166L9.88161 50.5251L11.2238 50.5251L11.3153 50.6166L11.3153 51.9587L11.2238 52.0502L9.88161 52.0502L9.7901 51.9587ZM9.7901 55.0091L9.7901 53.6669L9.88161 53.5754L11.2238 53.5754L11.3153 53.6669L11.3153 55.0091L11.2238 55.1006L9.88161 55.1006L9.7901 55.0091ZM11.3153 53.4839L11.3153 52.1417L11.4068 52.0502L17.3245 52.0502L17.416 52.1417L17.416 53.4839L17.3245 53.5754L11.4068 53.5754L11.3153 53.4839ZM6.73974 45.547L6.73974 41.1545L6.83125 41.063L8.17341 41.063L8.26492 41.1545L8.26492 45.547L8.17341 45.6385L6.83125 45.6385L6.73974 45.547ZM8.26492 40.9714L8.26492 39.6293L8.35643 39.5378L9.69859 39.5378L9.7901 39.6293L9.7901 40.9714L9.69859 41.063L8.35643 41.063L8.26492 40.9714ZM8.26492 47.0722L8.26492 45.73L8.35643 45.6385L11.2238 45.6385L11.3153 45.73L11.3153 47.0722L11.2238 47.1637L8.35643 47.1637L8.26492 47.0722ZM11.3153 45.547L11.3153 41.1545L11.4068 41.063L12.749 41.063L12.8405 41.1545L12.8405 45.547L12.749 45.6385L11.4068 45.6385L11.3153 45.547ZM12.8405 40.9714L12.8405 39.6293L12.932 39.5378L15.7993 39.5378L15.8908 39.6293L15.8908 40.9714L15.7993 41.063L12.932 41.063L12.8405 40.9714ZM14.3657 47.0722L14.3657 45.73L14.4572 45.6385L15.7993 45.6385L15.8908 45.73L15.8908 47.0722L15.7993 47.1637L14.4572 47.1637L14.3657 47.0722ZM15.8908 45.547L15.8908 41.1545L15.9823 41.063L17.3245 41.063L17.416 41.1545L17.416 45.547L17.3245 45.6385L15.9823 45.6385L15.8908 45.547ZM6.73974 37.6101L6.73974 30.1672L6.83125 30.0757L8.17341 30.0757L8.26492 30.1672L8.26492 33.0345L8.17341 33.1261L8.26492 33.2176L8.35643 33.1261L17.3245 33.1261L17.416 33.2176L17.416 34.5597L17.3245 34.6512L8.35643 34.6512L8.26492 34.5597L8.17341 34.6512L8.26492 34.7427L8.26492 37.6101L8.17341 37.7016L6.83125 37.7016L6.73974 37.6101ZM6.73974 28.148L6.73974 20.7051L6.83125 20.6136L8.17341 20.6136L8.26492 20.7051L8.26492 26.6228L8.17341 26.7143L8.26492 26.8058L8.35643 26.7143L11.2238 26.7143L11.3153 26.8058L11.4068 26.7143L11.3153 26.6228L11.3153 22.2303L11.4068 22.1388L12.749 22.1388L12.8405 22.2303L12.8405 26.6228L12.749 26.7143L12.8405 26.8058L12.932 26.7143L15.7993 26.7143L15.8908 26.8058L15.9823 26.7143L15.8908 26.6228L15.8908 20.7051L15.9823 20.6136L17.3245 20.6136L17.416 20.7051L17.416 28.148L17.3245 28.2395L6.83125 28.2395L6.73974 28.148ZM6.73974 12.5852L6.73974 11.243L6.83125 11.1515L17.3245 11.1515L17.416 11.243L17.416 12.5852L17.3245 12.6767L9.88162 12.6767L9.7901 12.5852L9.69859 12.6767L9.7901 12.7682L9.7901 14.1103L9.69859 14.2019L8.35643 14.2019L8.26492 14.1103L8.26492 12.7682L8.35643 12.6767L8.26492 12.5852L8.17341 12.6767L6.83125 12.6767L6.73974 12.5852ZM6.73974 18.6859L6.73974 17.3437L6.83125 17.2522L8.17341 17.2522L8.26492 17.3437L8.35643 17.2522L8.26492 17.1607L8.26492 15.8186L8.35643 15.727L9.69859 15.727L9.7901 15.8186L9.7901 17.1607L9.69859 17.2522L9.7901 17.3437L9.88162 17.2522L17.3245 17.2522L17.416 17.3437L17.416 18.6859L17.3245 18.7774L6.83125 18.7774L6.73974 18.6859ZM9.7901 15.6355L9.7901 14.2934L9.88162 14.2019L12.749 14.2019L12.8405 14.2934L12.8405 15.6355L12.749 15.727L9.88162 15.727L9.7901 15.6355ZM5.21455 6.35645L5.30606 6.26494L6.64823 6.26494L6.73974 6.35645L6.73974 7.69862L6.64823 7.79013L5.30606 7.79013L5.21455 7.69862L5.21455 6.35645ZM6.73974 4.83127L6.83125 4.73976L8.17341 4.73976L8.26492 4.83127L8.26492 6.17343L8.17341 6.26494L6.83125 6.26494L6.73974 6.17343L6.73974 4.83127ZM8.26492 3.30609L8.35643 3.21458L15.7993 3.21458L15.8908 3.30609L15.8908 4.64825L15.7993 4.73976L8.35643 4.73976L8.26492 4.64825L8.26492 3.30609ZM15.8908 4.83127L15.9824 4.73976L17.3245 4.73976L17.416 4.83127L17.416 6.17343L17.3245 6.26494L15.9824 6.26494L15.8908 6.17343L15.8908 4.83127ZM17.416 6.35645L17.5075 6.26494L18.8497 6.26494L18.9412 6.35645L18.9412 7.69862L18.8497 7.79013L17.5075 7.79013L17.416 7.69862L17.416 6.35645Z" fill="#FF5800"/>
</g>
<defs>
<clipPath id="clip0_5292_25291">
<rect width="22.3713" height="1535.88" fill="white" transform="translate(0.652344 0.289551)"/>
</clipPath>
<clipPath id="clip1_5292_25291">
<rect width="13.2183" height="13.2183" fill="white" transform="translate(5.22852 686.678) rotate(-90)"/>
</clipPath>
<clipPath id="clip2_5292_25291">
<rect width="13.2183" height="13.2183" fill="white" transform="translate(5.22852 335.886) rotate(-90)"/>
</clipPath>
<clipPath id="clip3_5292_25291">
<rect width="81.3431" height="13.5572" fill="white" transform="translate(5.0625 657.872) rotate(-90)"/>
</clipPath>
<clipPath id="clip4_5292_25291">
<rect width="81.3431" height="13.5572" fill="white" transform="translate(5.05371 307.081) rotate(-90)"/>
</clipPath>
</defs>
</svg>
