<svg width="41" height="41" viewBox="0 0 41 41" fill="none" xmlns="http://www.w3.org/2000/svg">
<mask id="mask0_4477_3339" style="mask-type:luminance" maskUnits="userSpaceOnUse" x="0" y="0" width="41" height="41">
<path d="M20.0337 40.9477C8.96868 40.9477 0 31.9791 0 20.9141C0 9.84905 8.96868 0.880371 20.0337 0.880371C31.0987 0.880371 40.0674 9.84905 40.0674 20.9141C40.0674 31.9791 31.0987 40.9477 20.0337 40.9477Z" fill="white"/>
</mask>
<g mask="url(#mask0_4477_3339)">
<path fill-rule="evenodd" clip-rule="evenodd" d="M20.0329 20.914L-8.30273 20.7393L-8.27709 19.6975L20.0329 20.914Z" fill="#FEFEFF"/>
<path fill-rule="evenodd" clip-rule="evenodd" d="M20.0336 20.914L-8.28125 19.8706L-8.23798 19.002L20.0336 20.914Z" fill="#FDFEFF"/>
<path fill-rule="evenodd" clip-rule="evenodd" d="M20.0331 20.9139L-8.24805 19.1766L-8.18394 18.3096L20.0331 20.9139Z" fill="#FCFDFF"/>
<path fill-rule="evenodd" clip-rule="evenodd" d="M20.0346 20.9142L-8.19531 18.4829L-8.11037 17.6174L20.0346 20.9142Z" fill="#FBFCFF"/>
<path fill-rule="evenodd" clip-rule="evenodd" d="M20.034 20.9141L-8.12695 17.7905L-8.02118 16.9282L20.034 20.9141Z" fill="#FAFCFF"/>
<path fill-rule="evenodd" clip-rule="evenodd" d="M20.033 20.9139L-8.04297 17.1011L-7.91636 16.2405L20.033 20.9139Z" fill="#F9FBFF"/>
<path fill-rule="evenodd" clip-rule="evenodd" d="M20.034 20.914L-7.93945 16.412L-7.79201 15.5562L20.034 20.914Z" fill="#F8FAFF"/>
<path fill-rule="evenodd" clip-rule="evenodd" d="M20.0345 20.914L-7.82031 15.7276L-7.65203 14.875L20.0345 20.914Z" fill="#F7FAFF"/>
<path fill-rule="evenodd" clip-rule="evenodd" d="M20.0327 20.9139L-7.6875 15.0464L-7.49678 14.197L20.0327 20.9139Z" fill="#F6F9FF"/>
<path fill-rule="evenodd" clip-rule="evenodd" d="M20.0328 20.914L-7.53516 14.3669L-7.3236 13.5239L20.0328 20.914Z" fill="#F5F8FF"/>
<path fill-rule="evenodd" clip-rule="evenodd" d="M20.0328 20.914L-7.36523 13.6922L-7.13445 12.854L20.0328 20.914Z" fill="#F4F8FF"/>
<path fill-rule="evenodd" clip-rule="evenodd" d="M20.0341 20.9139L-7.17969 13.0222L-6.92646 12.1904L20.0341 20.9139Z" fill="#F3F7FF"/>
<path fill-rule="evenodd" clip-rule="evenodd" d="M20.0333 20.9142L-6.97852 12.3574L-6.70445 11.532L20.0333 20.9142Z" fill="#F2F6FF"/>
<path fill-rule="evenodd" clip-rule="evenodd" d="M20.0341 20.914L-6.75977 11.6969L-6.46647 10.8779L20.0341 20.914Z" fill="#F1F6FF"/>
<path fill-rule="evenodd" clip-rule="evenodd" d="M20.0329 20.914L-6.52539 11.0414L-6.21287 10.2305L20.0329 20.914Z" fill="#F0F5FF"/>
<path fill-rule="evenodd" clip-rule="evenodd" d="M20.0328 20.914L-6.27539 10.3923L-5.94363 9.58936L20.0328 20.914Z" fill="#EFF4FF"/>
<path fill-rule="evenodd" clip-rule="evenodd" d="M20.0344 20.914L-6.00781 9.74963L-5.65522 8.9563L20.0344 20.914Z" fill="#EEF3FF"/>
<path fill-rule="evenodd" clip-rule="evenodd" d="M20.0336 20.9139L-5.72656 9.11491L-5.35474 8.32959L20.0336 20.9139Z" fill="#EDF3FF"/>
<path fill-rule="evenodd" clip-rule="evenodd" d="M20.0339 20.9141L-5.42969 8.48678L-5.03863 7.70947L20.0339 20.9141Z" fill="#ECF2FF"/>
<path fill-rule="evenodd" clip-rule="evenodd" d="M20.0339 20.9141L-5.11719 7.86496L-4.7069 7.09888L20.0339 20.9141Z" fill="#EBF1FF"/>
<path fill-rule="evenodd" clip-rule="evenodd" d="M20.0335 20.9141L-4.78906 7.2527L-4.36114 6.49463L20.0335 20.9141Z" fill="#EAF1FF"/>
<path fill-rule="evenodd" clip-rule="evenodd" d="M20.0343 20.9141L-4.44531 6.64686L-3.99816 5.90161L20.0343 20.9141Z" fill="#E9F0FF"/>
<path fill-rule="evenodd" clip-rule="evenodd" d="M20.0343 20.914L-4.08789 6.05058L-3.62311 5.31494L20.0343 20.914Z" fill="#E8EFFF"/>
<path fill-rule="evenodd" clip-rule="evenodd" d="M20.0335 20.9141L-3.7168 5.46256L-3.23278 4.73975L20.0335 20.9141Z" fill="#E7EFFF"/>
<path fill-rule="evenodd" clip-rule="evenodd" d="M20.034 20.914L-3.33008 4.88382L-2.83004 4.17383L20.034 20.914Z" fill="#E6EEFF"/>
<path fill-rule="evenodd" clip-rule="evenodd" d="M20.0337 20.914L-2.92969 4.31645L-2.41202 3.61768L20.0337 20.914Z" fill="#E5EDFF"/>
<path fill-rule="evenodd" clip-rule="evenodd" d="M20.0343 20.9141L-2.51562 3.75724L-1.98032 3.07129L20.0343 20.9141Z" fill="#E4EDFF"/>
<path fill-rule="evenodd" clip-rule="evenodd" d="M20.0341 20.9141L-2.08789 3.20913L-1.53656 2.5376L20.0341 20.9141Z" fill="#E3ECFF"/>
<path fill-rule="evenodd" clip-rule="evenodd" d="M20.0332 20.914L-1.64648 2.67214L-1.07913 2.01343L20.0332 20.914Z" fill="#E2EBFF"/>
<path fill-rule="evenodd" clip-rule="evenodd" d="M20.0347 20.9139L-1.19141 2.14477L-0.608025 1.50049L20.0347 20.9139Z" fill="#E1EBFF"/>
<path fill-rule="evenodd" clip-rule="evenodd" d="M20.0331 20.914L-0.726562 1.63035L-0.127155 1.00049L20.0331 20.914Z" fill="#E0EAFF"/>
<path fill-rule="evenodd" clip-rule="evenodd" d="M20.0344 20.914L-0.246094 1.12715L0.369341 0.511719L20.0344 20.914Z" fill="#DFE9FF"/>
<path fill-rule="evenodd" clip-rule="evenodd" d="M20.033 20.9139L0.246094 0.63345L0.87435 0.0356445L20.033 20.9139Z" fill="#DEE9FF"/>
<path fill-rule="evenodd" clip-rule="evenodd" d="M20.0336 20.9141L0.75 0.154426L1.39428 -0.428955L20.0336 20.9141Z" fill="#DDE8FF"/>
<path fill-rule="evenodd" clip-rule="evenodd" d="M20.0328 20.9141L1.26367 -0.312041L1.92238 -0.879395L20.0328 20.9141Z" fill="#DCE7FF"/>
<path fill-rule="evenodd" clip-rule="evenodd" d="M20.0329 20.9141L1.79102 -0.765567L2.46254 -1.31689L20.0329 20.9141Z" fill="#DBE7FF"/>
<path fill-rule="evenodd" clip-rule="evenodd" d="M20.0331 20.914L2.32812 -1.208L3.01408 -1.7417L20.0331 20.914Z" fill="#DAE6FF"/>
<path fill-rule="evenodd" clip-rule="evenodd" d="M20.0338 20.914L2.87695 -1.63589L3.57573 -2.15356L20.0338 20.914Z" fill="#D9E5FF"/>
<path fill-rule="evenodd" clip-rule="evenodd" d="M20.0331 20.9141L3.43555 -2.04928L4.14554 -2.54932L20.0331 20.9141Z" fill="#D8E5FF"/>
<path fill-rule="evenodd" clip-rule="evenodd" d="M20.0341 20.9141L4.00391 -2.44996L4.72672 -2.93237L20.0341 20.9141Z" fill="#D7E4FF"/>
<path fill-rule="evenodd" clip-rule="evenodd" d="M20.0336 20.9141L4.58203 -2.83624L5.31767 -3.30103L20.0336 20.9141Z" fill="#D6E3FF"/>
<path fill-rule="evenodd" clip-rule="evenodd" d="M20.0333 20.914L5.16992 -3.20812L5.91518 -3.65527L20.0333 20.914Z" fill="#D5E3FF"/>
<path fill-rule="evenodd" clip-rule="evenodd" d="M20.0328 20.9141L5.76562 -3.56549L6.5221 -3.99341L20.0328 20.9141Z" fill="#D4E2FF"/>
<path fill-rule="evenodd" clip-rule="evenodd" d="M20.0344 20.914L6.37305 -3.90856L7.13913 -4.31885L20.0344 20.914Z" fill="#D3E1FF"/>
<path fill-rule="evenodd" clip-rule="evenodd" d="M20.0335 20.9141L6.98438 -4.23701L7.76168 -4.62646L20.0335 20.9141Z" fill="#D2E0FF"/>
<path fill-rule="evenodd" clip-rule="evenodd" d="M20.0328 20.9139L7.60547 -4.5497L8.39079 -4.91992L20.0328 20.9139Z" fill="#D1E0FF"/>
<path fill-rule="evenodd" clip-rule="evenodd" d="M20.0334 20.914L8.23438 -4.84614L9.02931 -5.19873L20.0334 20.914Z" fill="#D0DFFF"/>
<path fill-rule="evenodd" clip-rule="evenodd" d="M20.0335 20.9141L8.86914 -5.12806L9.67369 -5.46143L20.0335 20.9141Z" fill="#CFDEFF"/>
<path fill-rule="evenodd" clip-rule="evenodd" d="M20.0334 20.914L9.51172 -5.39426L10.3243 -5.70679L20.0334 20.914Z" fill="#CEDEFF"/>
<path fill-rule="evenodd" clip-rule="evenodd" d="M20.0328 20.9141L10.1602 -5.64421L10.9791 -5.9375L20.0328 20.9141Z" fill="#CDDDFF"/>
<path fill-rule="evenodd" clip-rule="evenodd" d="M20.0335 20.9141L10.8164 -5.87978L11.6418 -6.15063L20.0335 20.9141Z" fill="#CCDCFF"/>
<path fill-rule="evenodd" clip-rule="evenodd" d="M20.0333 20.9141L11.4766 -6.09774L12.3084 -6.34937L20.0333 20.9141Z" fill="#CBDCFF"/>
<path fill-rule="evenodd" clip-rule="evenodd" d="M20.0342 20.914L12.1426 -6.29973L12.9808 -6.53052L20.0342 20.914Z" fill="#CADBFF"/>
<path fill-rule="evenodd" clip-rule="evenodd" d="M20.0342 20.9141L12.8125 -6.484L13.6555 -6.69556L20.0342 20.9141Z" fill="#C9DAFF"/>
<path fill-rule="evenodd" clip-rule="evenodd" d="M20.0333 20.9141L13.4863 -6.6539L14.3342 -6.84302L20.0333 20.9141Z" fill="#C8DAFF"/>
<path fill-rule="evenodd" clip-rule="evenodd" d="M20.0335 20.9141L14.166 -6.80608L15.017 -6.97437L20.0335 20.9141Z" fill="#C7D9FF"/>
<path fill-rule="evenodd" clip-rule="evenodd" d="M20.034 20.914L14.8477 -6.94079L15.7035 -7.08984L20.034 20.914Z" fill="#C6D8FF"/>
<path fill-rule="evenodd" clip-rule="evenodd" d="M20.0332 20.9142L15.5312 -7.05928L16.3919 -7.1875L20.0332 20.9142Z" fill="#C5D8FF"/>
<path fill-rule="evenodd" clip-rule="evenodd" d="M20.0335 20.914L16.2207 -7.16204L17.083 -7.26782L20.0335 20.914Z" fill="#C4D7FF"/>
<path fill-rule="evenodd" clip-rule="evenodd" d="M20.0338 20.9141L16.9102 -7.24684L17.7756 -7.33179L20.0338 20.9141Z" fill="#C3D6FF"/>
<path fill-rule="evenodd" clip-rule="evenodd" d="M20.0329 20.9141L17.6016 -7.31577L18.4686 -7.37988L20.0329 20.9141Z" fill="#C2D6FF"/>
<path fill-rule="evenodd" clip-rule="evenodd" d="M20.0342 20.9141L18.2969 -7.36702L19.1655 -7.40869L20.0342 20.9141Z" fill="#C1D5FF"/>
<path fill-rule="evenodd" clip-rule="evenodd" d="M20.0336 20.914L18.9902 -7.4008L19.8589 -7.42163L20.0336 20.914Z" fill="#C0D4FF"/>
<path fill-rule="evenodd" clip-rule="evenodd" d="M20.0333 20.914L19.6855 -7.41846H20.5542L20.0333 20.914Z" fill="#BFD4FF"/>
<path fill-rule="evenodd" clip-rule="evenodd" d="M20.0332 20.914L20.381 -7.41846L21.2496 -7.39602L20.0332 20.914Z" fill="#BED3FF"/>
<path fill-rule="evenodd" clip-rule="evenodd" d="M20.0332 20.9139L21.0766 -7.40088L21.9436 -7.35761L20.0332 20.9139Z" fill="#BDD2FF"/>
<path fill-rule="evenodd" clip-rule="evenodd" d="M20.0332 20.914L21.7705 -7.36719L22.6376 -7.30308L20.0332 20.914Z" fill="#BCD2FF"/>
<path fill-rule="evenodd" clip-rule="evenodd" d="M20.0332 20.914L22.4645 -7.31592L23.3299 -7.23098L20.0332 20.914Z" fill="#BBD1FF"/>
<path fill-rule="evenodd" clip-rule="evenodd" d="M20.0332 20.9141L23.1553 -7.24683L24.0191 -7.14105L20.0332 20.9141Z" fill="#BAD0FF"/>
<path fill-rule="evenodd" clip-rule="evenodd" d="M20.0332 20.9141L23.846 -7.16187L24.7067 -7.03525L20.0332 20.9141Z" fill="#B9D0FF"/>
<path fill-rule="evenodd" clip-rule="evenodd" d="M20.0332 20.9141L24.5336 -7.05933L25.391 -6.91188L20.0332 20.9141Z" fill="#B8CFFF"/>
<path fill-rule="evenodd" clip-rule="evenodd" d="M20.0332 20.9142L25.2195 -6.94067L26.0722 -6.77239L20.0332 20.9142Z" fill="#B7CEFF"/>
<path fill-rule="evenodd" clip-rule="evenodd" d="M20.0332 20.9141L25.9007 -6.80615L26.7501 -6.61543L20.0332 20.9141Z" fill="#B6CDFF"/>
<path fill-rule="evenodd" clip-rule="evenodd" d="M20.0332 20.9141L26.5802 -6.65381L27.4232 -6.44225L20.0332 20.9141Z" fill="#B5CDFF"/>
<path fill-rule="evenodd" clip-rule="evenodd" d="M20.0332 20.9139L27.2549 -6.48413L28.0916 -6.25334L20.0332 20.9139Z" fill="#B4CCFF"/>
<path fill-rule="evenodd" clip-rule="evenodd" d="M20.0332 20.914L27.9249 -6.2998L28.7567 -6.04658L20.0332 20.914Z" fill="#B3CBFF"/>
<path fill-rule="evenodd" clip-rule="evenodd" d="M20.0332 20.9139L28.59 -6.0979L29.4154 -5.82384L20.0332 20.9139Z" fill="#B2CBFF"/>
<path fill-rule="evenodd" clip-rule="evenodd" d="M20.0332 20.914L29.2503 -5.87988L30.0693 -5.58659L20.0332 20.914Z" fill="#B1CAFF"/>
<path fill-rule="evenodd" clip-rule="evenodd" d="M20.0332 20.914L29.9058 -5.64429L30.7168 -5.33176L20.0332 20.914Z" fill="#B0C9FF"/>
<path fill-rule="evenodd" clip-rule="evenodd" d="M20.0332 20.9139L30.5533 -5.39429L31.3578 -5.06253L20.0332 20.9139Z" fill="#AFC9FF"/>
<path fill-rule="evenodd" clip-rule="evenodd" d="M20.0332 20.914L31.196 -5.12817L31.9909 -4.77558L20.0332 20.914Z" fill="#AEC8FF"/>
<path fill-rule="evenodd" clip-rule="evenodd" d="M20.0332 20.9139L31.8322 -4.84619L32.6176 -4.47437L20.0332 20.9139Z" fill="#ADC7FF"/>
<path fill-rule="evenodd" clip-rule="evenodd" d="M20.0332 20.9141L32.4605 -4.54956L33.2378 -4.1585L20.0332 20.9141Z" fill="#ACC7FF"/>
<path fill-rule="evenodd" clip-rule="evenodd" d="M20.0332 20.914L33.0823 -4.23706L33.8484 -3.82677L20.0332 20.914Z" fill="#ABC6FF"/>
<path fill-rule="evenodd" clip-rule="evenodd" d="M20.0332 20.9141L33.6946 -3.90845L34.4526 -3.48053L20.0332 20.9141Z" fill="#AAC5FF"/>
<path fill-rule="evenodd" clip-rule="evenodd" d="M20.0332 20.9141L34.3004 -3.56543L35.0456 -3.11828L20.0332 20.9141Z" fill="#A9C5FF"/>
<path fill-rule="evenodd" clip-rule="evenodd" d="M20.0332 20.9139L34.8966 -3.20825L35.6306 -2.74347L20.0332 20.9139Z" fill="#A8C4FF"/>
<path fill-rule="evenodd" clip-rule="evenodd" d="M20.0332 20.9142L35.4848 -2.83618L36.2076 -2.35217L20.0332 20.9142Z" fill="#A7C3FF"/>
<path fill-rule="evenodd" clip-rule="evenodd" d="M20.0332 20.9141L36.0634 -2.44995L36.7734 -1.94991L20.0332 20.9141Z" fill="#A6C3FF"/>
<path fill-rule="evenodd" clip-rule="evenodd" d="M20.0332 20.9141L36.6307 -2.04932L37.3295 -1.53165L20.0332 20.9141Z" fill="#A5C2FF"/>
<path fill-rule="evenodd" clip-rule="evenodd" d="M20.0332 20.9139L37.1901 -1.63599L37.8744 -1.10069L20.0332 20.9139Z" fill="#A4C1FF"/>
<path fill-rule="evenodd" clip-rule="evenodd" d="M20.0332 20.914L37.7382 -1.20801L38.4097 -0.656681L20.0332 20.914Z" fill="#A3C1FF"/>
<path fill-rule="evenodd" clip-rule="evenodd" d="M20.0332 20.914L38.2751 -0.765625L38.9338 -0.198271L20.0332 20.914Z" fill="#A2C0FF"/>
<path fill-rule="evenodd" clip-rule="evenodd" d="M20.0332 20.9141L38.8024 -0.312012L39.4466 0.271369L20.0332 20.9141Z" fill="#A1BFFF"/>
<path fill-rule="evenodd" clip-rule="evenodd" d="M20.0332 20.914L39.3168 0.154297L39.9467 0.753705L20.0332 20.914Z" fill="#A0BFFF"/>
<path fill-rule="evenodd" clip-rule="evenodd" d="M20.0332 20.914L39.8201 0.633545L40.4355 1.24898L20.0332 20.914Z" fill="#9FBEFF"/>
<path fill-rule="evenodd" clip-rule="evenodd" d="M20.0332 20.9141L40.3121 1.1272L40.9115 1.75545L20.0332 20.9141Z" fill="#9EBDFF"/>
<path fill-rule="evenodd" clip-rule="evenodd" d="M20.0332 20.914L40.7929 1.63037L41.3763 2.27465L20.0332 20.914Z" fill="#9DBDFF"/>
<path fill-rule="evenodd" clip-rule="evenodd" d="M20.0332 20.9139L41.2593 2.14478L41.8267 2.80348L20.0332 20.9139Z" fill="#9CBCFF"/>
<path fill-rule="evenodd" clip-rule="evenodd" d="M20.0332 20.914L41.7129 2.67212L42.2642 3.34365L20.0332 20.914Z" fill="#9BBBFF"/>
<path fill-rule="evenodd" clip-rule="evenodd" d="M20.0332 20.914L42.1552 3.20898L42.6889 3.89494L20.0332 20.914Z" fill="#9ABAFF"/>
<path fill-rule="evenodd" clip-rule="evenodd" d="M20.0332 20.9139L42.5831 3.75708L43.1008 4.45586L20.0332 20.9139Z" fill="#99BAFF"/>
<path fill-rule="evenodd" clip-rule="evenodd" d="M20.0332 20.9139L42.9966 4.31641L43.4967 5.0264L20.0332 20.9139Z" fill="#98B9FF"/>
<path fill-rule="evenodd" clip-rule="evenodd" d="M20.0332 20.9139L43.3973 4.88379L43.8797 5.6066L20.0332 20.9139Z" fill="#97B8FF"/>
<path fill-rule="evenodd" clip-rule="evenodd" d="M20.0332 20.914L43.7835 5.4624L44.2483 6.19804L20.0332 20.914Z" fill="#96B8FF"/>
<path fill-rule="evenodd" clip-rule="evenodd" d="M20.0332 20.9139L44.1554 6.05054L44.6025 6.79579L20.0332 20.9139Z" fill="#95B7FF"/>
<path fill-rule="evenodd" clip-rule="evenodd" d="M20.0332 20.9139L44.5128 6.64673L44.9407 7.4032L20.0332 20.9139Z" fill="#94B6FF"/>
<path fill-rule="evenodd" clip-rule="evenodd" d="M20.0332 20.9141L44.8557 7.25269L45.2644 8.01877L20.0332 20.9141Z" fill="#93B6FF"/>
<path fill-rule="evenodd" clip-rule="evenodd" d="M20.0332 20.9141L45.1827 7.86499L45.5738 8.6423L20.0332 20.9141Z" fill="#92B5FF"/>
<path fill-rule="evenodd" clip-rule="evenodd" d="M20.0332 20.9141L45.4968 8.48682L45.867 9.27214L20.0332 20.9141Z" fill="#91B4FF"/>
<path fill-rule="evenodd" clip-rule="evenodd" d="M20.0332 20.914L45.7933 9.11499L46.1459 9.90993L20.0332 20.914Z" fill="#90B4FF"/>
<path fill-rule="evenodd" clip-rule="evenodd" d="M20.0332 20.9141L46.0754 9.74976L46.4072 10.5543L20.0332 20.9141Z" fill="#8FB3FF"/>
<path fill-rule="evenodd" clip-rule="evenodd" d="M20.0332 20.914L46.3414 10.3923L46.654 11.2049L20.0332 20.914Z" fill="#8EB2FF"/>
<path fill-rule="evenodd" clip-rule="evenodd" d="M20.0332 20.9141L46.5915 11.0415L46.8848 11.8605L20.0332 20.9141Z" fill="#8DB2FF"/>
<path fill-rule="evenodd" clip-rule="evenodd" d="M20.0332 20.9141L46.8255 11.697L47.0979 12.5224L20.0332 20.9141Z" fill="#8CB1FF"/>
<path fill-rule="evenodd" clip-rule="evenodd" d="M20.0332 20.914L47.0434 12.3572L47.2966 13.189L20.0332 20.914Z" fill="#8BB0FF"/>
<path fill-rule="evenodd" clip-rule="evenodd" d="M20.0332 20.9141L47.2454 13.0225L47.4777 13.8607L20.0332 20.9141Z" fill="#8AB0FF"/>
<path fill-rule="evenodd" clip-rule="evenodd" d="M20.0332 20.9141L47.4313 13.6924L47.6428 14.5354L20.0332 20.9141Z" fill="#89AFFF"/>
<path fill-rule="evenodd" clip-rule="evenodd" d="M20.0332 20.914L47.6012 14.3669L47.7903 15.2148L20.0332 20.914Z" fill="#88AEFF"/>
<path fill-rule="evenodd" clip-rule="evenodd" d="M20.0332 20.9141L47.7518 15.0466L47.9217 15.8977L20.0332 20.9141Z" fill="#87AEFF"/>
<path fill-rule="evenodd" clip-rule="evenodd" d="M20.0332 20.9141L47.888 15.7278L48.0371 16.5836L20.0332 20.9141Z" fill="#86ADFF"/>
<path fill-rule="evenodd" clip-rule="evenodd" d="M20.0332 20.9141L48.0066 16.4121L48.1349 17.2728L20.0332 20.9141Z" fill="#85ACFF"/>
<path fill-rule="evenodd" clip-rule="evenodd" d="M20.0332 20.9141L48.1092 17.1013L48.215 17.9636L20.0332 20.9141Z" fill="#84ACFF"/>
<path fill-rule="evenodd" clip-rule="evenodd" d="M20.0332 20.9139L48.1942 17.7903L48.2791 18.6557L20.0332 20.9139Z" fill="#83ABFF"/>
<path fill-rule="evenodd" clip-rule="evenodd" d="M20.0332 20.914L48.2631 18.4827L48.3272 19.3497L20.0332 20.914Z" fill="#82AAFF"/>
<path fill-rule="evenodd" clip-rule="evenodd" d="M20.0332 20.9141L48.3144 19.1768L48.356 20.0454L20.0332 20.9141Z" fill="#81AAFF"/>
<path fill-rule="evenodd" clip-rule="evenodd" d="M20.0332 20.914L48.348 19.8706L48.3689 20.7393L20.0332 20.914Z" fill="#80A9FF"/>
<path fill-rule="evenodd" clip-rule="evenodd" d="M20.0332 20.9139L48.364 20.5662V21.4348L20.0332 20.9139Z" fill="#7FA8FF"/>
<path fill-rule="evenodd" clip-rule="evenodd" d="M20.0332 20.9141L48.364 21.2618L48.3432 22.1305L20.0332 20.9141Z" fill="#7EA7FF"/>
<path fill-rule="evenodd" clip-rule="evenodd" d="M20.0332 20.9141L48.348 21.9574L48.3047 22.8245L20.0332 20.9141Z" fill="#7DA7FF"/>
<path fill-rule="evenodd" clip-rule="evenodd" d="M20.0332 20.9141L48.3144 22.6514L48.2503 23.5184L20.0332 20.9141Z" fill="#7CA6FF"/>
<path fill-rule="evenodd" clip-rule="evenodd" d="M20.0332 20.9141L48.2631 23.3454L48.1781 24.2108L20.0332 20.9141Z" fill="#7BA5FF"/>
<path fill-rule="evenodd" clip-rule="evenodd" d="M20.0332 20.9141L48.1942 24.0361L48.0884 24.9L20.0332 20.9141Z" fill="#7AA5FF"/>
<path fill-rule="evenodd" clip-rule="evenodd" d="M20.0332 20.9141L48.1092 24.7269L47.981 25.5875L20.0332 20.9141Z" fill="#79A4FF"/>
<path fill-rule="evenodd" clip-rule="evenodd" d="M20.0332 20.9141L48.0066 25.4144L47.8592 26.2719L20.0332 20.9141Z" fill="#78A3FF"/>
<path fill-rule="evenodd" clip-rule="evenodd" d="M20.0332 20.9141L47.888 26.1004L47.7182 26.953L20.0332 20.9141Z" fill="#77A3FF"/>
<path fill-rule="evenodd" clip-rule="evenodd" d="M20.0332 20.9141L47.7518 26.7815L47.5627 27.631L20.0332 20.9141Z" fill="#76A2FF"/>
<path fill-rule="evenodd" clip-rule="evenodd" d="M20.0332 20.9141L47.6012 27.4611L47.3896 28.3041L20.0332 20.9141Z" fill="#75A1FF"/>
<path fill-rule="evenodd" clip-rule="evenodd" d="M20.0332 20.9141L47.4313 28.1358L47.2005 28.9724L20.0332 20.9141Z" fill="#74A1FF"/>
<path fill-rule="evenodd" clip-rule="evenodd" d="M20.0332 20.9141L47.2454 28.8057L46.9937 29.6375L20.0332 20.9141Z" fill="#73A0FF"/>
<path fill-rule="evenodd" clip-rule="evenodd" d="M20.0332 20.9141L47.0434 29.4709L46.771 30.2962L20.0332 20.9141Z" fill="#729FFF"/>
<path fill-rule="evenodd" clip-rule="evenodd" d="M20.0332 20.9141L46.8255 30.1312L46.5338 30.9501L20.0332 20.9141Z" fill="#719FFF"/>
<path fill-rule="evenodd" clip-rule="evenodd" d="M20.0332 20.9141L46.5915 30.7867L46.2789 31.5976L20.0332 20.9141Z" fill="#709EFF"/>
<path fill-rule="evenodd" clip-rule="evenodd" d="M20.0332 20.9141L46.3414 31.4342L46.0081 32.2387L20.0332 20.9141Z" fill="#6F9DFF"/>
<path fill-rule="evenodd" clip-rule="evenodd" d="M20.0332 20.9141L46.0754 32.0768L45.7228 32.8718L20.0332 20.9141Z" fill="#6E9DFF"/>
<path fill-rule="evenodd" clip-rule="evenodd" d="M20.0332 20.9141L45.7933 32.7131L45.4215 33.4984L20.0332 20.9141Z" fill="#6D9CFF"/>
<path fill-rule="evenodd" clip-rule="evenodd" d="M20.0332 20.9141L45.4968 33.3414L45.1058 34.1187L20.0332 20.9141Z" fill="#6C9BFF"/>
<path fill-rule="evenodd" clip-rule="evenodd" d="M20.0332 20.9141L45.1827 33.9632L44.774 34.7293L20.0332 20.9141Z" fill="#6B9BFF"/>
<path fill-rule="evenodd" clip-rule="evenodd" d="M20.0332 20.9141L44.8557 34.5754L44.4278 35.3335L20.0332 20.9141Z" fill="#6A9AFF"/>
<path fill-rule="evenodd" clip-rule="evenodd" d="M20.0332 20.9141L44.5128 35.1813L44.0656 35.9265L20.0332 20.9141Z" fill="#6999FF"/>
<path fill-rule="evenodd" clip-rule="evenodd" d="M20.0332 20.9141L44.1554 35.7775L43.6906 36.5115L20.0332 20.9141Z" fill="#6899FF"/>
<path fill-rule="evenodd" clip-rule="evenodd" d="M20.0332 20.9141L43.7835 36.3656L43.2995 37.0885L20.0332 20.9141Z" fill="#6798FF"/>
<path fill-rule="evenodd" clip-rule="evenodd" d="M20.0332 20.9141L43.3973 36.9442L42.8972 37.6542L20.0332 20.9141Z" fill="#6697FF"/>
<path fill-rule="evenodd" clip-rule="evenodd" d="M20.0332 20.9141L42.9966 37.5116L42.4789 38.2103L20.0332 20.9141Z" fill="#6597FF"/>
<path fill-rule="evenodd" clip-rule="evenodd" d="M20.0332 20.9141L42.5831 38.0709L42.0478 38.7553L20.0332 20.9141Z" fill="#6496FF"/>
<path fill-rule="evenodd" clip-rule="evenodd" d="M20.0332 20.9141L42.1552 38.619L41.6039 39.2906L20.0332 20.9141Z" fill="#6395FF"/>
<path fill-rule="evenodd" clip-rule="evenodd" d="M20.0332 20.9141L41.7129 39.1559L41.1455 39.8146L20.0332 20.9141Z" fill="#6294FF"/>
<path fill-rule="evenodd" clip-rule="evenodd" d="M20.0332 20.9141L41.2593 39.6832L40.6759 40.3275L20.0332 20.9141Z" fill="#6194FF"/>
<path fill-rule="evenodd" clip-rule="evenodd" d="M20.0332 20.9141L40.7929 40.1977L40.1935 40.8275L20.0332 20.9141Z" fill="#6093FF"/>
<path fill-rule="evenodd" clip-rule="evenodd" d="M20.0332 20.9141L40.3121 40.7009L39.6983 41.3164L20.0332 20.9141Z" fill="#5F92FF"/>
<path fill-rule="evenodd" clip-rule="evenodd" d="M20.0332 20.9141L39.8201 41.193L39.1918 41.7924L20.0332 20.9141Z" fill="#5E92FF"/>
<path fill-rule="evenodd" clip-rule="evenodd" d="M20.0332 20.9141L39.3168 41.6738L38.6725 42.2572L20.0332 20.9141Z" fill="#5D91FF"/>
<path fill-rule="evenodd" clip-rule="evenodd" d="M20.0332 20.9141L38.8024 42.1402L38.1437 42.7075L20.0332 20.9141Z" fill="#5C90FF"/>
<path fill-rule="evenodd" clip-rule="evenodd" d="M20.0332 20.9141L38.2751 42.5937L37.6035 43.145L20.0332 20.9141Z" fill="#5B90FF"/>
<path fill-rule="evenodd" clip-rule="evenodd" d="M20.0332 20.9141L37.7382 43.0361L37.0522 43.5698L20.0332 20.9141Z" fill="#5A8FFF"/>
<path fill-rule="evenodd" clip-rule="evenodd" d="M20.0332 20.9141L37.1901 43.464L36.4913 43.9816L20.0332 20.9141Z" fill="#598EFF"/>
<path fill-rule="evenodd" clip-rule="evenodd" d="M20.0332 20.9141L36.6307 43.8775L35.9207 44.3775L20.0332 20.9141Z" fill="#588EFF"/>
<path fill-rule="evenodd" clip-rule="evenodd" d="M20.0332 20.9141L36.0634 44.2782L35.3389 44.7606L20.0332 20.9141Z" fill="#578DFF"/>
<path fill-rule="evenodd" clip-rule="evenodd" d="M20.0332 20.9141L35.4848 44.6644L34.7491 45.1292L20.0332 20.9141Z" fill="#568CFF"/>
<path fill-rule="evenodd" clip-rule="evenodd" d="M20.0332 20.9141L34.8966 45.0362L34.1513 45.4834L20.0332 20.9141Z" fill="#558CFF"/>
<path fill-rule="evenodd" clip-rule="evenodd" d="M20.0332 20.9141L34.3004 45.3936L33.5439 45.8215L20.0332 20.9141Z" fill="#548BFF"/>
<path fill-rule="evenodd" clip-rule="evenodd" d="M20.0332 20.9141L33.6946 45.7366L32.9285 46.1453L20.0332 20.9141Z" fill="#538AFF"/>
<path fill-rule="evenodd" clip-rule="evenodd" d="M20.0332 20.9141L33.0823 46.0636L32.305 46.4546L20.0332 20.9141Z" fill="#528AFF"/>
<path fill-rule="evenodd" clip-rule="evenodd" d="M20.0332 20.9141L32.4605 46.3777L31.6752 46.7479L20.0332 20.9141Z" fill="#5189FF"/>
<path fill-rule="evenodd" clip-rule="evenodd" d="M20.0332 20.9141L31.8322 46.6742L31.0373 47.0268L20.0332 20.9141Z" fill="#5088FF"/>
<path fill-rule="evenodd" clip-rule="evenodd" d="M20.0332 20.9141L31.196 46.9563L30.393 47.288L20.0332 20.9141Z" fill="#4F88FF"/>
<path fill-rule="evenodd" clip-rule="evenodd" d="M20.0332 20.9141L30.5533 47.2223L29.7423 47.5348L20.0332 20.9141Z" fill="#4E87FF"/>
<path fill-rule="evenodd" clip-rule="evenodd" d="M20.0332 20.9141L29.9058 47.4723L29.0868 47.7656L20.0332 20.9141Z" fill="#4D86FF"/>
<path fill-rule="evenodd" clip-rule="evenodd" d="M20.0332 20.9141L29.2503 47.7063L28.4249 47.9788L20.0332 20.9141Z" fill="#4C86FF"/>
<path fill-rule="evenodd" clip-rule="evenodd" d="M20.0332 20.9141L28.59 47.9243L27.7582 48.1775L20.0332 20.9141Z" fill="#4B85FF"/>
<path fill-rule="evenodd" clip-rule="evenodd" d="M20.0332 20.9141L27.9249 48.1262L27.0867 48.3586L20.0332 20.9141Z" fill="#4A84FF"/>
<path fill-rule="evenodd" clip-rule="evenodd" d="M20.0332 20.9141L27.2549 48.3121L26.4103 48.5237L20.0332 20.9141Z" fill="#4984FF"/>
<path fill-rule="evenodd" clip-rule="evenodd" d="M20.0332 20.9141L26.5802 48.482L25.7324 48.6711L20.0332 20.9141Z" fill="#4883FF"/>
<path fill-rule="evenodd" clip-rule="evenodd" d="M20.0332 20.9141L25.9007 48.6327L25.048 48.8026L20.0332 20.9141Z" fill="#4782FF"/>
<path fill-rule="evenodd" clip-rule="evenodd" d="M20.0332 20.9141L25.2195 48.7689L24.3637 48.918L20.0332 20.9141Z" fill="#4681FF"/>
<path fill-rule="evenodd" clip-rule="evenodd" d="M20.0332 20.9141L24.5336 48.8875L23.6745 49.0157L20.0332 20.9141Z" fill="#4581FF"/>
<path fill-rule="evenodd" clip-rule="evenodd" d="M20.0332 20.9141L23.846 48.9901L22.9838 49.0958L20.0332 20.9141Z" fill="#4480FF"/>
<path fill-rule="evenodd" clip-rule="evenodd" d="M20.0332 20.9141L23.1553 49.075L22.2914 49.16L20.0332 20.9141Z" fill="#437FFF"/>
<path fill-rule="evenodd" clip-rule="evenodd" d="M20.0332 20.9141L22.4645 49.1439L21.5974 49.208L20.0332 20.9141Z" fill="#427FFF"/>
<path fill-rule="evenodd" clip-rule="evenodd" d="M20.0332 20.9141L21.7705 49.1952L20.9019 49.2369L20.0332 20.9141Z" fill="#417EFF"/>
<path fill-rule="evenodd" clip-rule="evenodd" d="M20.0332 20.9141L21.0766 49.2289L20.2063 49.2497L20.0332 20.9141Z" fill="#407DFF"/>
<path fill-rule="evenodd" clip-rule="evenodd" d="M20.0342 20.9141L20.382 49.2449H19.5117L20.0342 20.9141Z" fill="#3F7DFF"/>
<path fill-rule="evenodd" clip-rule="evenodd" d="M20.0329 20.9141L19.6851 49.2449L18.8164 49.2241L20.0329 20.9141Z" fill="#3E7CFF"/>
<path fill-rule="evenodd" clip-rule="evenodd" d="M20.0331 20.9141L18.9898 49.2289L18.1211 49.1856L20.0331 20.9141Z" fill="#3D7BFF"/>
<path fill-rule="evenodd" clip-rule="evenodd" d="M20.0341 20.9141L18.2967 49.1952L17.4297 49.1311L20.0341 20.9141Z" fill="#3C7BFF"/>
<path fill-rule="evenodd" clip-rule="evenodd" d="M20.0331 20.9141L17.6018 49.1439L16.7363 49.059L20.0331 20.9141Z" fill="#3B7AFF"/>
<path fill-rule="evenodd" clip-rule="evenodd" d="M20.0328 20.9141L16.9091 49.075L16.0469 48.9692L20.0328 20.9141Z" fill="#3A79FF"/>
<path fill-rule="evenodd" clip-rule="evenodd" d="M20.0328 20.9141L16.22 48.9901L15.3594 48.8619L20.0328 20.9141Z" fill="#3979FF"/>
<path fill-rule="evenodd" clip-rule="evenodd" d="M20.0336 20.9141L15.5316 48.8875L14.6758 48.74L20.0336 20.9141Z" fill="#3878FF"/>
<path fill-rule="evenodd" clip-rule="evenodd" d="M20.0331 20.9141L14.8468 48.7689L13.9941 48.599L20.0331 20.9141Z" fill="#3777FF"/>
<path fill-rule="evenodd" clip-rule="evenodd" d="M20.0333 20.9141L14.1658 48.6327L13.3164 48.4436L20.0333 20.9141Z" fill="#3677FF"/>
<path fill-rule="evenodd" clip-rule="evenodd" d="M20.0346 20.9141L13.4875 48.482L12.6445 48.2705L20.0346 20.9141Z" fill="#3576FF"/>
<path fill-rule="evenodd" clip-rule="evenodd" d="M20.0326 20.9141L12.8109 48.3121L11.9727 48.0813L20.0326 20.9141Z" fill="#3475FF"/>
<path fill-rule="evenodd" clip-rule="evenodd" d="M20.034 20.9141L12.1423 48.1262L11.3105 47.8746L20.034 20.9141Z" fill="#3375FF"/>
<path fill-rule="evenodd" clip-rule="evenodd" d="M20.0345 20.9141L11.4777 47.9243L10.6523 47.6518L20.0345 20.9141Z" fill="#3274FF"/>
<path fill-rule="evenodd" clip-rule="evenodd" d="M20.0341 20.9141L10.817 47.7063L9.99805 47.4146L20.0341 20.9141Z" fill="#3173FF"/>
<path fill-rule="evenodd" clip-rule="evenodd" d="M20.0332 20.9141L10.1606 47.4723L9.34961 47.1598L20.0332 20.9141Z" fill="#3073FF"/>
<path fill-rule="evenodd" clip-rule="evenodd" d="M20.0336 20.9141L9.51193 47.2223L8.70898 46.8889L20.0336 20.9141Z" fill="#2F72FF"/>
<path fill-rule="evenodd" clip-rule="evenodd" d="M20.0339 20.9141L8.86951 46.9563L8.07617 46.6037L20.0339 20.9141Z" fill="#2E71FF"/>
<path fill-rule="evenodd" clip-rule="evenodd" d="M20.0336 20.9141L8.23454 46.6742L7.44922 46.3024L20.0336 20.9141Z" fill="#2D71FF"/>
<path fill-rule="evenodd" clip-rule="evenodd" d="M20.0327 20.9141L7.60543 46.3777L6.82812 45.9866L20.0327 20.9141Z" fill="#2C70FF"/>
<path fill-rule="evenodd" clip-rule="evenodd" d="M20.034 20.9141L6.98484 46.0636L6.21875 45.6549L20.034 20.9141Z" fill="#2B6FFF"/>
<path fill-rule="evenodd" clip-rule="evenodd" d="M20.0327 20.9141L6.37136 45.7366L5.61328 45.3087L20.0327 20.9141Z" fill="#2A6EFF"/>
<path fill-rule="evenodd" clip-rule="evenodd" d="M20.0339 20.9141L5.76674 45.3936L5.02148 44.9465L20.0339 20.9141Z" fill="#296EFF"/>
<path fill-rule="evenodd" clip-rule="evenodd" d="M20.0326 20.9141L5.16923 45.0362L4.43359 44.5714L20.0326 20.9141Z" fill="#286DFF"/>
<path fill-rule="evenodd" clip-rule="evenodd" d="M20.0338 20.9141L4.58219 44.6644L3.85938 44.1804L20.0338 20.9141Z" fill="#276CFF"/>
<path fill-rule="evenodd" clip-rule="evenodd" d="M20.0331 20.9141L4.00296 44.2781L3.29297 43.7781L20.0331 20.9141Z" fill="#266CFF"/>
<path fill-rule="evenodd" clip-rule="evenodd" d="M20.0346 20.9141L3.43706 43.8775L2.73828 43.3598L20.0346 20.9141Z" fill="#256BFF"/>
<path fill-rule="evenodd" clip-rule="evenodd" d="M20.0342 20.9141L2.87736 43.464L2.19141 42.9287L20.0342 20.9141Z" fill="#246AFF"/>
<path fill-rule="evenodd" clip-rule="evenodd" d="M20.0347 20.9141L2.32973 43.0361L1.6582 42.4847L20.0347 20.9141Z" fill="#236AFF"/>
<path fill-rule="evenodd" clip-rule="evenodd" d="M20.0334 20.9141L1.79152 42.5937L1.13281 42.0264L20.0334 20.9141Z" fill="#2269FF"/>
<path fill-rule="evenodd" clip-rule="evenodd" d="M20.0345 20.9141L1.26538 42.1402L0.621094 41.5568L20.0345 20.9141Z" fill="#2168FF"/>
<path fill-rule="evenodd" clip-rule="evenodd" d="M20.0326 20.9141L0.749 41.6738L0.119141 41.0744L20.0326 20.9141Z" fill="#2068FF"/>
<path fill-rule="evenodd" clip-rule="evenodd" d="M20.0332 20.9141L0.246294 41.193L-0.369141 40.5791L20.0332 20.9141Z" fill="#1F67FF"/>
<path fill-rule="evenodd" clip-rule="evenodd" d="M20.0346 20.9141L-0.245945 40.7009L-0.84375 40.0727L20.0346 20.9141Z" fill="#1E66FF"/>
<path fill-rule="evenodd" clip-rule="evenodd" d="M20.0345 20.9141L-0.725213 40.1977L-1.30859 39.5534L20.0345 20.9141Z" fill="#1D66FF"/>
<path fill-rule="evenodd" clip-rule="evenodd" d="M20.0337 20.9141L-1.19241 39.6832L-1.75977 39.0245L20.0337 20.9141Z" fill="#1C65FF"/>
<path fill-rule="evenodd" clip-rule="evenodd" d="M20.0337 20.9141L-1.64594 39.1559L-2.19727 38.4844L20.0337 20.9141Z" fill="#1B64FF"/>
<path fill-rule="evenodd" clip-rule="evenodd" d="M20.0346 20.9141L-2.0874 38.619L-2.62109 37.9331L20.0346 20.9141Z" fill="#1A64FF"/>
<path fill-rule="evenodd" clip-rule="evenodd" d="M20.0344 20.9141L-2.51553 38.0709L-3.0332 37.3721L20.0344 20.9141Z" fill="#1963FF"/>
<path fill-rule="evenodd" clip-rule="evenodd" d="M20.0338 20.9141L-2.92965 37.5116L-3.42969 36.8016L20.0338 20.9141Z" fill="#1862FF"/>
<path fill-rule="evenodd" clip-rule="evenodd" d="M20.034 20.9141L-3.33009 36.9442L-3.8125 36.2198L20.034 20.9141Z" fill="#1762FF"/>
<path fill-rule="evenodd" clip-rule="evenodd" d="M20.0335 20.9141L-3.71686 36.3656L-4.18164 35.63L20.0335 20.9141Z" fill="#1661FF"/>
<path fill-rule="evenodd" clip-rule="evenodd" d="M20.0342 20.9141L-4.088 35.7775L-4.53516 35.0322L20.0342 20.9141Z" fill="#1560FF"/>
<path fill-rule="evenodd" clip-rule="evenodd" d="M20.0344 20.9141L-4.44513 35.1813L-4.87305 34.4248L20.0344 20.9141Z" fill="#1460FF"/>
<path fill-rule="evenodd" clip-rule="evenodd" d="M20.0336 20.9141L-4.78893 34.5754L-5.19922 33.8093L20.0336 20.9141Z" fill="#135FFF"/>
<path fill-rule="evenodd" clip-rule="evenodd" d="M20.0327 20.9141L-5.11836 33.9632L-5.50781 33.1859L20.0327 20.9141Z" fill="#125EFF"/>
<path fill-rule="evenodd" clip-rule="evenodd" d="M20.0331 20.9141L-5.43056 33.3414L-5.80078 32.556L20.0331 20.9141Z" fill="#115EFF"/>
<path fill-rule="evenodd" clip-rule="evenodd" d="M20.0346 20.9141L-5.72553 32.7131L-6.07812 31.9182L20.0346 20.9141Z" fill="#105DFF"/>
<path fill-rule="evenodd" clip-rule="evenodd" d="M20.0338 20.9141L-6.00844 32.0768L-6.3418 31.2739L20.0338 20.9141Z" fill="#0F5CFF"/>
<path fill-rule="evenodd" clip-rule="evenodd" d="M20.0329 20.9141L-6.27537 31.4342L-6.58789 30.6232L20.0329 20.9141Z" fill="#0E5BFF"/>
<path fill-rule="evenodd" clip-rule="evenodd" d="M20.0332 20.9141L-6.52507 30.7867L-6.81836 29.9677L20.0332 20.9141Z" fill="#0D5BFF"/>
<path fill-rule="evenodd" clip-rule="evenodd" d="M20.0335 20.9141L-6.76039 30.1312L-7.03125 29.3058L20.0335 20.9141Z" fill="#0C5AFF"/>
<path fill-rule="evenodd" clip-rule="evenodd" d="M20.033 20.9141L-6.97885 29.4708L-7.23047 28.6391L20.033 20.9141Z" fill="#0B59FF"/>
<path fill-rule="evenodd" clip-rule="evenodd" d="M20.0344 20.9141L-7.17937 28.8057L-7.41016 27.9675L20.0344 20.9141Z" fill="#0A59FF"/>
<path fill-rule="evenodd" clip-rule="evenodd" d="M20.0335 20.9141L-7.36462 28.1358L-7.57617 27.2912L20.0335 20.9141Z" fill="#0958FF"/>
<path fill-rule="evenodd" clip-rule="evenodd" d="M20.0344 20.9141L-7.53354 27.4611L-7.72266 26.6132L20.0344 20.9141Z" fill="#0857FF"/>
<path fill-rule="evenodd" clip-rule="evenodd" d="M20.033 20.9141L-7.68719 26.7815L-7.85547 25.9289L20.033 20.9141Z" fill="#0757FF"/>
<path fill-rule="evenodd" clip-rule="evenodd" d="M20.0332 20.9141L-7.82165 26.1004L-7.9707 25.2445L20.0332 20.9141Z" fill="#0656FF"/>
<path fill-rule="evenodd" clip-rule="evenodd" d="M20.0333 20.9141L-7.94014 25.4144L-8.06836 24.5554L20.0333 20.9141Z" fill="#0555FF"/>
<path fill-rule="evenodd" clip-rule="evenodd" d="M20.0333 20.9141L-8.04266 24.7269L-8.14844 23.8646L20.0333 20.9141Z" fill="#0455FF"/>
<path fill-rule="evenodd" clip-rule="evenodd" d="M20.033 20.9141L-8.12795 24.0361L-8.21289 23.1723L20.033 20.9141Z" fill="#0354FF"/>
<path fill-rule="evenodd" clip-rule="evenodd" d="M20.0342 20.9141L-8.19566 23.3454L-8.25977 22.4783L20.0342 20.9141Z" fill="#0253FF"/>
<path fill-rule="evenodd" clip-rule="evenodd" d="M20.0338 20.9141L-8.24739 22.6514L-8.28906 21.7827L20.0338 20.9141Z" fill="#0153FF"/>
<path fill-rule="evenodd" clip-rule="evenodd" d="M20.0329 20.9141L-8.2819 21.9574L-8.30273 21.0872L20.0329 20.9141Z" fill="#0052FF"/>
<path fill-rule="evenodd" clip-rule="evenodd" d="M20.0336 20.9139L-8.29883 21.2617V20.5662L20.0336 20.9139Z" fill="white"/>
</g>
</svg>
