<svg width="43" height="43" viewBox="0 0 43 43" fill="none" xmlns="http://www.w3.org/2000/svg">
<rect x="0.646484" y="0.5" width="42" height="42" rx="21" fill="#0B35F1"/>
<path d="M19.5272 10.922L16.7133 10.922V12.3439L25.1898 12.3439L25.1898 13.7312L29.428 13.7312V12.3439H28.0037V10.922L23.7655 10.922V9.5L19.5272 9.5V10.922Z" fill="white"/>
<path d="M15.289 15.1532H13.8647L13.8647 22.1936H12.4751L12.4751 29.2688H11.0508L11.0508 32.078H12.4751L12.4751 33.5L15.289 33.5V32.078H16.7133L16.7133 30.6907H18.1029L18.1029 23.6156H16.7133L16.7133 19.3844L19.5272 19.3844V20.8064L20.9446 20.7994L22.3585 20.789L22.3689 19.374L22.3759 17.9624H25.1898V15.1532L19.5272 15.1532V13.7312L15.289 13.7312V15.1532Z" fill="white"/>
<path d="M28.0037 19.3844L29.428 19.3844L29.428 17.9624H30.8523L30.8523 20.8064H32.2419L32.2419 17.9624H30.8523V16.5751H28.0037L28.0037 19.3844Z" fill="white"/>
<path d="M28.0037 30.6907H26.6141V29.2688H23.7655V33.5H25.1898V32.078L25.895 32.085L26.5967 32.0954L26.6072 32.796L26.6141 33.5H29.428V27.8468H28.0037V30.6907Z" fill="white"/>
</svg>
