<svg width="43" height="43" viewBox="0 0 43 43" fill="none" xmlns="http://www.w3.org/2000/svg">
<rect x="0.646484" y="0.5" width="42" height="42" rx="21" fill="#FF5800"/>
<path d="M19.1743 8.15896L15.8915 8.15896V9.81792L25.7807 9.81792L25.7807 11.4364L30.7253 11.4364V9.81792H29.0635V8.15896L24.1189 8.15896V6.5L19.1743 6.5V8.15896Z" fill="black"/>
<path d="M14.2298 13.0954H12.568L12.568 21.3092H10.9469L10.9469 29.5636H9.28516L9.28516 32.841H10.9469L10.9469 34.5L14.2298 34.5V32.841H15.8915L15.8915 31.2225H17.5126V22.9682H15.8915L15.8915 18.0318L19.1743 18.0318V19.6908L20.828 19.6827L22.4775 19.6705L22.4897 18.0197L22.4978 16.3728H25.7807V13.0954L19.1743 13.0954V11.4364L14.2298 11.4364V13.0954Z" fill="black"/>
<path d="M29.0635 18.0318L30.7253 18.0318L30.7253 16.3728H32.387L32.387 19.6907H34.0081L34.0081 16.3728H32.387V14.7543H29.0635L29.0635 18.0318Z" fill="black"/>
<path d="M29.0635 31.2225H27.4424V29.5636H24.1189V34.5H25.7807V32.841L26.6034 32.8491L27.4221 32.8613L27.4343 33.6786L27.4424 34.5H30.7253V27.9046H29.0635V31.2225Z" fill="black"/>
</svg>
