<svg width="41" height="41" viewBox="0 0 41 41" fill="none" xmlns="http://www.w3.org/2000/svg">
<path d="M20.0337 40.9477C31.098 40.9477 40.0674 31.9784 40.0674 20.9141C40.0674 9.84976 31.098 0.880371 20.0337 0.880371C8.96939 0.880371 0 9.84976 0 20.9141C0 31.9784 8.96939 40.9477 20.0337 40.9477Z" fill="#072723"/>
<path d="M34.1453 20.7824C34.1453 30.1132 28.4352 33.1072 25.4266 30.4413C22.9501 28.2675 22.2133 23.674 18.4884 23.2023C13.7606 22.6076 13.3512 28.9033 10.2403 28.9033C6.61774 28.9033 5.92188 23.6329 5.92188 20.926C5.92188 18.1575 6.69961 14.3842 9.79006 14.3842C13.3922 14.3842 13.5969 19.7776 18.0995 19.4905C22.5817 19.1829 22.6636 13.5639 25.5699 11.1645C28.1077 9.09326 34.1453 11.3286 34.1453 20.7824Z" fill="#97FCE4"/>
</svg>
