<svg width="41" height="41" viewBox="0 0 41 41" fill="none" xmlns="http://www.w3.org/2000/svg">
<path d="M20.0337 40.9477C31.098 40.9477 40.0674 31.9784 40.0674 20.9141C40.0674 9.84976 31.098 0.880371 20.0337 0.880371C8.96939 0.880371 0 9.84976 0 20.9141C0 31.9784 8.96939 40.9477 20.0337 40.9477Z" fill="black"/>
<path d="M31.6801 26.9894L27.7946 31.1554C27.7104 31.2457 27.6085 31.3177 27.4954 31.3671C27.3822 31.4165 27.2602 31.4422 27.1367 31.4425H8.71694C8.62928 31.442 8.54365 31.4161 8.47044 31.3679C8.39723 31.3197 8.33961 31.2512 8.30457 31.1709C8.26953 31.0905 8.25858 31.0017 8.27305 30.9153C8.28753 30.8288 8.3268 30.7484 8.3861 30.6839L12.2668 26.5179C12.3511 26.4276 12.4529 26.3556 12.566 26.3062C12.6792 26.2568 12.8013 26.2311 12.9247 26.2308H31.3445C31.4331 26.229 31.5203 26.2535 31.595 26.3011C31.6698 26.3487 31.7288 26.4174 31.7647 26.4985C31.8005 26.5795 31.8116 26.6694 31.7966 26.7567C31.7815 26.8441 31.741 26.9251 31.6801 26.9894ZM27.7946 18.5976C27.71 18.5078 27.6081 18.436 27.495 18.3867C27.382 18.3374 27.2601 18.3114 27.1367 18.3105H8.71694C8.6291 18.3106 8.54318 18.3363 8.4697 18.3844C8.39623 18.4326 8.33839 18.5011 8.30327 18.5816C8.26816 18.6621 8.25729 18.7511 8.272 18.8377C8.28672 18.9243 8.32637 19.0048 8.3861 19.0692L12.2668 23.238C12.3514 23.3278 12.4533 23.3996 12.5664 23.4489C12.6795 23.4983 12.8014 23.5242 12.9247 23.5251H31.3445C31.432 23.5243 31.5174 23.4981 31.5903 23.4497C31.6632 23.4014 31.7205 23.3329 31.7553 23.2526C31.7902 23.1723 31.8009 23.0837 31.7864 22.9974C31.7719 22.9111 31.7326 22.8309 31.6734 22.7665L27.7946 18.5976ZM8.71694 15.6049H27.1367C27.2602 15.6045 27.3822 15.5788 27.4954 15.5295C27.6085 15.4801 27.7104 15.408 27.7946 15.3177L31.6801 11.1508C31.7253 11.1025 31.7593 11.0448 31.7797 10.9819C31.8002 10.919 31.8066 10.8523 31.7984 10.7867C31.7902 10.721 31.7677 10.6579 31.7325 10.6019C31.6973 10.5459 31.6502 10.4983 31.5945 10.4625C31.52 10.4148 31.4329 10.3904 31.3445 10.3922H12.9247C12.8013 10.3925 12.6792 10.4182 12.566 10.4676C12.4529 10.517 12.3511 10.589 12.2668 10.6793L8.3861 14.8462C8.32637 14.9106 8.28672 14.991 8.272 15.0776C8.25729 15.1642 8.26816 15.2533 8.30327 15.3338C8.33839 15.4143 8.39623 15.4828 8.4697 15.531C8.54318 15.5791 8.6291 15.6048 8.71694 15.6049Z" fill="url(#paint0_linear_4477_3321)"/>
<defs>
<linearGradient id="paint0_linear_4477_3321" x1="10.2523" y1="31.9454" x2="29.5657" y2="10.1707" gradientUnits="userSpaceOnUse">
<stop offset="0.08" stop-color="#9945FF"/>
<stop offset="0.3" stop-color="#8752F3"/>
<stop offset="0.5" stop-color="#5497D5"/>
<stop offset="0.6" stop-color="#43B4CA"/>
<stop offset="0.72" stop-color="#28E0B9"/>
<stop offset="0.97" stop-color="#19FB9B"/>
</linearGradient>
</defs>
</svg>
